<?xml version="1.0" encoding="utf-8" standalone="no"?>
<!DOCTYPE svg PUBLIC "-//W3C//DTD SVG 1.1//EN"
  "http://www.w3.org/Graphics/SVG/1.1/DTD/svg11.dtd">
<!-- Created with matplotlib (https://matplotlib.org/) -->
<svg height="373.223584pt" version="1.1" viewBox="0 0 411.285625 373.223584" width="411.285625pt" xmlns="http://www.w3.org/2000/svg" xmlns:xlink="http://www.w3.org/1999/xlink">
 <defs>
  <style type="text/css">
*{stroke-linecap:butt;stroke-linejoin:round;}
  </style>
 </defs>
 <g id="figure_1">
  <g id="patch_1">
   <path d="M 0 373.223584 
L 411.285625 373.223584 
L 411.285625 -0 
L 0 -0 
z
" style="fill:#ffffff;"/>
  </g>
  <g id="axes_1">
   <g id="patch_2">
    <path d="M 46.965625 288.430125 
L 404.085625 288.430125 
L 404.085625 22.318125 
L 46.965625 22.318125 
z
" style="fill:#ffffff;"/>
   </g>
   <g id="PolyCollection_1">
    <defs>
     <path d="M 106.558206 -333.208866 
L 106.413044 -333.208866 
L 106.395602 -333.229139 
L 106.375328 -333.249412 
L 106.352137 -333.269685 
L 106.326039 -333.289957 
L 106.297164 -333.31023 
L 106.265778 -333.330503 
L 106.232291 -333.350776 
L 106.197263 -333.371048 
L 106.161393 -333.391321 
L 106.125505 -333.411594 
L 106.090522 -333.431867 
L 106.057424 -333.452139 
L 106.027211 -333.472412 
L 106.00085 -333.492685 
L 105.979222 -333.512958 
L 105.963078 -333.53323 
L 105.952994 -333.553503 
L 105.949333 -333.573776 
L 105.952229 -333.594048 
L 105.961578 -333.614321 
L 105.97704 -333.634594 
L 105.998062 -333.654867 
L 106.023914 -333.675139 
L 106.053725 -333.695412 
L 106.086537 -333.715685 
L 106.121352 -333.735958 
L 106.157183 -333.75623 
L 106.193099 -333.776503 
L 106.228264 -333.796776 
L 106.261962 -333.817049 
L 106.293617 -333.837321 
L 106.3228 -333.857594 
L 106.349229 -333.877867 
L 106.372758 -333.89814 
L 106.393361 -333.918412 
L 106.411113 -333.938685 
L 106.426167 -333.958958 
L 106.438729 -333.979231 
L 106.44904 -333.999503 
L 106.457352 -334.019776 
L 106.463912 -334.040049 
L 106.468942 -334.060321 
L 106.47263 -334.080594 
L 106.475111 -334.100867 
L 106.476456 -334.12114 
L 106.476655 -334.141412 
L 106.475603 -334.161685 
L 106.473073 -334.181958 
L 106.468696 -334.202231 
L 106.461924 -334.222503 
L 106.451998 -334.242776 
L 106.437905 -334.263049 
L 106.418333 -334.283322 
L 106.391631 -334.303594 
L 106.355766 -334.323867 
L 106.308298 -334.34414 
L 106.246364 -334.364413 
L 106.166693 -334.384685 
L 106.065651 -334.404958 
L 105.939324 -334.425231 
L 105.783653 -334.445504 
L 105.594614 -334.465776 
L 105.368452 -334.486049 
L 105.101959 -334.506322 
L 104.792786 -334.526594 
L 104.439779 -334.546867 
L 104.0433 -334.56714 
L 103.60553 -334.587413 
L 103.130697 -334.607685 
L 102.625222 -334.627958 
L 102.097742 -334.648231 
L 101.55899 -334.668504 
L 101.021524 -334.688776 
L 100.499304 -334.709049 
L 100.007127 -334.729322 
L 99.559957 -334.749595 
L 99.172181 -334.769867 
L 98.856843 -334.79014 
L 98.624921 -334.810413 
L 98.484691 -334.830686 
L 98.441239 -334.850958 
L 98.496153 -334.871231 
L 98.647426 -334.891504 
L 98.889581 -334.911777 
L 99.213998 -334.932049 
L 99.609421 -334.952322 
L 100.062611 -334.972595 
L 100.559075 -334.992868 
L 101.083831 -335.01314 
L 101.622145 -335.033413 
L 102.160196 -335.053686 
L 102.68562 -335.073958 
L 103.187917 -335.094231 
L 103.658707 -335.114504 
L 104.091829 -335.134777 
L 104.483302 -335.155049 
L 104.831173 -335.175322 
L 105.135273 -335.195595 
L 105.396913 -335.215868 
L 107.574337 -335.215868 
L 107.574337 -335.215868 
L 107.835977 -335.195595 
L 108.140077 -335.175322 
L 108.487948 -335.155049 
L 108.879421 -335.134777 
L 109.312543 -335.114504 
L 109.783333 -335.094231 
L 110.28563 -335.073958 
L 110.811054 -335.053686 
L 111.349105 -335.033413 
L 111.887419 -335.01314 
L 112.412175 -334.992868 
L 112.908639 -334.972595 
L 113.361829 -334.952322 
L 113.757252 -334.932049 
L 114.081669 -334.911777 
L 114.323824 -334.891504 
L 114.475097 -334.871231 
L 114.530011 -334.850958 
L 114.486559 -334.830686 
L 114.346329 -334.810413 
L 114.114407 -334.79014 
L 113.799069 -334.769867 
L 113.411293 -334.749595 
L 112.964123 -334.729322 
L 112.471946 -334.709049 
L 111.949726 -334.688776 
L 111.41226 -334.668504 
L 110.873508 -334.648231 
L 110.346028 -334.627958 
L 109.840553 -334.607685 
L 109.36572 -334.587413 
L 108.92795 -334.56714 
L 108.531471 -334.546867 
L 108.178464 -334.526594 
L 107.869291 -334.506322 
L 107.602798 -334.486049 
L 107.376636 -334.465776 
L 107.187597 -334.445504 
L 107.031926 -334.425231 
L 106.905599 -334.404958 
L 106.804557 -334.384685 
L 106.724886 -334.364413 
L 106.662952 -334.34414 
L 106.615484 -334.323867 
L 106.579619 -334.303594 
L 106.552917 -334.283322 
L 106.533345 -334.263049 
L 106.519252 -334.242776 
L 106.509326 -334.222503 
L 106.502554 -334.202231 
L 106.498177 -334.181958 
L 106.495647 -334.161685 
L 106.494595 -334.141412 
L 106.494794 -334.12114 
L 106.496139 -334.100867 
L 106.49862 -334.080594 
L 106.502308 -334.060321 
L 106.507338 -334.040049 
L 106.513898 -334.019776 
L 106.52221 -333.999503 
L 106.532521 -333.979231 
L 106.545083 -333.958958 
L 106.560137 -333.938685 
L 106.577889 -333.918412 
L 106.598492 -333.89814 
L 106.622021 -333.877867 
L 106.64845 -333.857594 
L 106.677633 -333.837321 
L 106.709288 -333.817049 
L 106.742986 -333.796776 
L 106.778151 -333.776503 
L 106.814067 -333.75623 
L 106.849898 -333.735958 
L 106.884713 -333.715685 
L 106.917525 -333.695412 
L 106.947336 -333.675139 
L 106.973188 -333.654867 
L 106.99421 -333.634594 
L 107.009672 -333.614321 
L 107.019021 -333.594048 
L 107.021917 -333.573776 
L 107.018256 -333.553503 
L 107.008172 -333.53323 
L 106.992028 -333.512958 
L 106.9704 -333.492685 
L 106.944039 -333.472412 
L 106.913826 -333.452139 
L 106.880728 -333.431867 
L 106.845745 -333.411594 
L 106.809857 -333.391321 
L 106.773987 -333.371048 
L 106.738959 -333.350776 
L 106.705472 -333.330503 
L 106.674086 -333.31023 
L 106.645211 -333.289957 
L 106.619113 -333.269685 
L 106.595922 -333.249412 
L 106.575648 -333.229139 
L 106.558206 -333.208866 
z
" id="m3570f75da5" style="stroke:#3d3d3d;stroke-width:1.5;"/>
    </defs>
    <g clip-path="url(#p06433e1eba)">
     <use style="fill:#f2a5a3;stroke:#3d3d3d;stroke-width:1.5;" x="0" xlink:href="#m3570f75da5" y="373.223584"/>
    </g>
   </g>
   <g id="PolyCollection_2">
    <defs>
     <path d="M 297.017506 -331.986995 
L 296.881744 -331.986995 
L 296.863524 -332.006198 
L 296.842043 -332.025401 
L 296.817211 -332.044605 
L 296.789079 -332.063808 
L 296.757877 -332.083011 
L 296.72403 -332.102214 
L 296.688171 -332.121417 
L 296.651135 -332.140621 
L 296.613941 -332.159824 
L 296.577748 -332.179027 
L 296.543803 -332.19823 
L 296.513371 -332.217433 
L 296.487658 -332.236637 
L 296.467733 -332.25584 
L 296.454453 -332.275043 
L 296.448404 -332.294246 
L 296.449855 -332.313449 
L 296.458741 -332.332653 
L 296.474667 -332.351856 
L 296.496937 -332.371059 
L 296.524605 -332.390262 
L 296.556539 -332.409466 
L 296.5915 -332.428669 
L 296.628224 -332.447872 
L 296.665488 -332.467075 
L 296.702181 -332.486278 
L 296.737353 -332.505482 
L 296.770244 -332.524685 
L 296.800302 -332.543888 
L 296.827179 -332.563091 
L 296.850717 -332.582294 
L 296.870923 -332.601498 
L 296.887936 -332.620701 
L 296.901993 -332.639904 
L 296.913396 -332.659107 
L 296.92248 -332.67831 
L 296.92959 -332.697514 
L 296.935057 -332.716717 
L 296.939188 -332.73592 
L 296.942255 -332.755123 
L 296.944491 -332.774326 
L 296.946087 -332.79353 
L 296.947196 -332.812733 
L 296.947934 -332.831936 
L 296.948381 -332.851139 
L 296.948582 -332.870343 
L 296.948547 -332.889546 
L 296.948246 -332.908749 
L 296.947596 -332.927952 
L 296.94645 -332.947155 
L 296.944573 -332.966359 
L 296.941608 -332.985562 
L 296.937034 -333.004765 
L 296.930112 -333.023968 
L 296.919817 -333.043171 
L 296.90476 -333.062375 
L 296.883098 -333.081578 
L 296.852449 -333.100781 
L 296.809797 -333.119984 
L 296.751426 -333.139187 
L 296.672883 -333.158391 
L 296.568983 -333.177594 
L 296.433891 -333.196797 
L 296.261285 -333.216 
L 296.044628 -333.235204 
L 295.777541 -333.254407 
L 295.454292 -333.27361 
L 295.070374 -333.292813 
L 294.623147 -333.312016 
L 294.112486 -333.33122 
L 293.541388 -333.350423 
L 292.916456 -333.369626 
L 292.24819 -333.388829 
L 291.551014 -333.408032 
L 290.843002 -333.427236 
L 290.145259 -333.446439 
L 289.480982 -333.465642 
L 288.874241 -333.484845 
L 288.348561 -333.504048 
L 287.925426 -333.523252 
L 287.622827 -333.542455 
L 287.45399 -333.561658 
L 287.426425 -333.580861 
L 287.541366 -333.600065 
L 287.793681 -333.619268 
L 288.172254 -333.638471 
L 288.660794 -333.657674 
L 289.239 -333.676877 
L 289.883955 -333.696081 
L 290.571624 -333.715284 
L 291.278316 -333.734487 
L 291.981992 -333.75369 
L 292.663319 -333.772893 
L 293.306414 -333.792097 
L 293.899252 -333.8113 
L 294.43375 -333.830503 
L 294.905569 -333.849706 
L 295.313698 -333.868909 
L 295.659884 -333.888113 
L 298.239366 -333.888113 
L 298.239366 -333.888113 
L 298.585552 -333.868909 
L 298.993681 -333.849706 
L 299.4655 -333.830503 
L 299.999998 -333.8113 
L 300.592836 -333.792097 
L 301.235931 -333.772893 
L 301.917258 -333.75369 
L 302.620934 -333.734487 
L 303.327626 -333.715284 
L 304.015295 -333.696081 
L 304.66025 -333.676877 
L 305.238456 -333.657674 
L 305.726996 -333.638471 
L 306.105569 -333.619268 
L 306.357884 -333.600065 
L 306.472825 -333.580861 
L 306.44526 -333.561658 
L 306.276423 -333.542455 
L 305.973824 -333.523252 
L 305.550689 -333.504048 
L 305.025009 -333.484845 
L 304.418268 -333.465642 
L 303.753991 -333.446439 
L 303.056248 -333.427236 
L 302.348236 -333.408032 
L 301.65106 -333.388829 
L 300.982794 -333.369626 
L 300.357862 -333.350423 
L 299.786764 -333.33122 
L 299.276103 -333.312016 
L 298.828876 -333.292813 
L 298.444958 -333.27361 
L 298.121709 -333.254407 
L 297.854622 -333.235204 
L 297.637965 -333.216 
L 297.465359 -333.196797 
L 297.330267 -333.177594 
L 297.226367 -333.158391 
L 297.147824 -333.139187 
L 297.089453 -333.119984 
L 297.046801 -333.100781 
L 297.016152 -333.081578 
L 296.99449 -333.062375 
L 296.979433 -333.043171 
L 296.969138 -333.023968 
L 296.962216 -333.004765 
L 296.957642 -332.985562 
L 296.954677 -332.966359 
L 296.9528 -332.947155 
L 296.951654 -332.927952 
L 296.951004 -332.908749 
L 296.950703 -332.889546 
L 296.950668 -332.870343 
L 296.950869 -332.851139 
L 296.951316 -332.831936 
L 296.952054 -332.812733 
L 296.953163 -332.79353 
L 296.954759 -332.774326 
L 296.956995 -332.755123 
L 296.960062 -332.73592 
L 296.964193 -332.716717 
L 296.96966 -332.697514 
L 296.97677 -332.67831 
L 296.985854 -332.659107 
L 296.997257 -332.639904 
L 297.011314 -332.620701 
L 297.028327 -332.601498 
L 297.048533 -332.582294 
L 297.072071 -332.563091 
L 297.098948 -332.543888 
L 297.129006 -332.524685 
L 297.161897 -332.505482 
L 297.197069 -332.486278 
L 297.233762 -332.467075 
L 297.271026 -332.447872 
L 297.30775 -332.428669 
L 297.342711 -332.409466 
L 297.374645 -332.390262 
L 297.402313 -332.371059 
L 297.424583 -332.351856 
L 297.440509 -332.332653 
L 297.449395 -332.313449 
L 297.450846 -332.294246 
L 297.444797 -332.275043 
L 297.431517 -332.25584 
L 297.411592 -332.236637 
L 297.385879 -332.217433 
L 297.355447 -332.19823 
L 297.321502 -332.179027 
L 297.285309 -332.159824 
L 297.248115 -332.140621 
L 297.211079 -332.121417 
L 297.17522 -332.102214 
L 297.141373 -332.083011 
L 297.110171 -332.063808 
L 297.082039 -332.044605 
L 297.057207 -332.025401 
L 297.035726 -332.006198 
L 297.017506 -331.986995 
z
" id="m17452624e9" style="stroke:#3d3d3d;stroke-width:1.5;"/>
    </defs>
    <g clip-path="url(#p06433e1eba)">
     <use style="fill:#e1812c;stroke:#3d3d3d;stroke-width:1.5;" x="0" xlink:href="#m17452624e9" y="373.223584"/>
    </g>
   </g>
   <g id="PolyCollection_3">
    <defs>
     <path d="M 368.375103 -246.752413 
L 368.372147 -246.752413 
L 368.371816 -247.682282 
L 368.371436 -248.612152 
L 368.371003 -249.542021 
L 368.370518 -250.47189 
L 368.369982 -251.401759 
L 368.369399 -252.331628 
L 368.368774 -253.261497 
L 368.368114 -254.191366 
L 368.367429 -255.121236 
L 368.366732 -256.051105 
L 368.366033 -256.980974 
L 368.365348 -257.910843 
L 368.36469 -258.840712 
L 368.364073 -259.770581 
L 368.363509 -260.700451 
L 368.363008 -261.63032 
L 368.362578 -262.560189 
L 368.362221 -263.490058 
L 368.361937 -264.419927 
L 368.361722 -265.349796 
L 368.361565 -266.279665 
L 368.361452 -267.209535 
L 368.361367 -268.139404 
L 368.361288 -269.069273 
L 368.361191 -269.999142 
L 368.361054 -270.929011 
L 368.360851 -271.85888 
L 368.36056 -272.788749 
L 368.36016 -273.718619 
L 368.359636 -274.648488 
L 368.358975 -275.578357 
L 368.358169 -276.508226 
L 368.357217 -277.438095 
L 368.356121 -278.367964 
L 368.35489 -279.297834 
L 368.353536 -280.227703 
L 368.352072 -281.157572 
L 368.350515 -282.087441 
L 368.348881 -283.01731 
L 368.347186 -283.947179 
L 368.345442 -284.877048 
L 368.343661 -285.806918 
L 368.341846 -286.736787 
L 368.339999 -287.666656 
L 368.338116 -288.596525 
L 368.336189 -289.526394 
L 368.334207 -290.456263 
L 368.332154 -291.386133 
L 368.330015 -292.316002 
L 368.327773 -293.245871 
L 368.325413 -294.17574 
L 368.322922 -295.105609 
L 368.320288 -296.035478 
L 368.317506 -296.965347 
L 368.314575 -297.895217 
L 368.311499 -298.825086 
L 368.308286 -299.754955 
L 368.304952 -300.684824 
L 368.301517 -301.614693 
L 368.298006 -302.544562 
L 368.29445 -303.474431 
L 368.290885 -304.404301 
L 368.287351 -305.33417 
L 368.283894 -306.264039 
L 368.280564 -307.193908 
L 368.277414 -308.123777 
L 368.274501 -309.053646 
L 368.271887 -309.983516 
L 368.269631 -310.913385 
L 368.267797 -311.843254 
L 368.266441 -312.773123 
L 368.265621 -313.702992 
L 368.265384 -314.632861 
L 368.265769 -315.56273 
L 368.266804 -316.4926 
L 368.268505 -317.422469 
L 368.270869 -318.352338 
L 368.273881 -319.282207 
L 368.277506 -320.212076 
L 368.281695 -321.141945 
L 368.286383 -322.071814 
L 368.291493 -323.001684 
L 368.296938 -323.931553 
L 368.302622 -324.861422 
L 368.308449 -325.791291 
L 368.314321 -326.72116 
L 368.320144 -327.651029 
L 368.325831 -328.580899 
L 368.331304 -329.510768 
L 368.336498 -330.440637 
L 368.341361 -331.370506 
L 368.345852 -332.300375 
L 368.349947 -333.230244 
L 368.353632 -334.160113 
L 368.356908 -335.089983 
L 368.359784 -336.019852 
L 368.362278 -336.949721 
L 368.364414 -337.87959 
L 368.366223 -338.809459 
L 368.381027 -338.809459 
L 368.381027 -338.809459 
L 368.382836 -337.87959 
L 368.384972 -336.949721 
L 368.387466 -336.019852 
L 368.390342 -335.089983 
L 368.393618 -334.160113 
L 368.397303 -333.230244 
L 368.401398 -332.300375 
L 368.405889 -331.370506 
L 368.410752 -330.440637 
L 368.415946 -329.510768 
L 368.421419 -328.580899 
L 368.427106 -327.651029 
L 368.432929 -326.72116 
L 368.438801 -325.791291 
L 368.444628 -324.861422 
L 368.450312 -323.931553 
L 368.455757 -323.001684 
L 368.460867 -322.071814 
L 368.465555 -321.141945 
L 368.469744 -320.212076 
L 368.473369 -319.282207 
L 368.476381 -318.352338 
L 368.478745 -317.422469 
L 368.480446 -316.4926 
L 368.481481 -315.56273 
L 368.481866 -314.632861 
L 368.481629 -313.702992 
L 368.480809 -312.773123 
L 368.479453 -311.843254 
L 368.477619 -310.913385 
L 368.475363 -309.983516 
L 368.472749 -309.053646 
L 368.469836 -308.123777 
L 368.466686 -307.193908 
L 368.463356 -306.264039 
L 368.459899 -305.33417 
L 368.456365 -304.404301 
L 368.4528 -303.474431 
L 368.449244 -302.544562 
L 368.445733 -301.614693 
L 368.442298 -300.684824 
L 368.438964 -299.754955 
L 368.435751 -298.825086 
L 368.432675 -297.895217 
L 368.429744 -296.965347 
L 368.426962 -296.035478 
L 368.424328 -295.105609 
L 368.421837 -294.17574 
L 368.419477 -293.245871 
L 368.417235 -292.316002 
L 368.415096 -291.386133 
L 368.413043 -290.456263 
L 368.411061 -289.526394 
L 368.409134 -288.596525 
L 368.407251 -287.666656 
L 368.405404 -286.736787 
L 368.403589 -285.806918 
L 368.401808 -284.877048 
L 368.400064 -283.947179 
L 368.398369 -283.01731 
L 368.396735 -282.087441 
L 368.395178 -281.157572 
L 368.393714 -280.227703 
L 368.39236 -279.297834 
L 368.391129 -278.367964 
L 368.390033 -277.438095 
L 368.389081 -276.508226 
L 368.388275 -275.578357 
L 368.387614 -274.648488 
L 368.38709 -273.718619 
L 368.38669 -272.788749 
L 368.386399 -271.85888 
L 368.386196 -270.929011 
L 368.386059 -269.999142 
L 368.385962 -269.069273 
L 368.385883 -268.139404 
L 368.385798 -267.209535 
L 368.385685 -266.279665 
L 368.385528 -265.349796 
L 368.385313 -264.419927 
L 368.385029 -263.490058 
L 368.384672 -262.560189 
L 368.384242 -261.63032 
L 368.383741 -260.700451 
L 368.383177 -259.770581 
L 368.38256 -258.840712 
L 368.381902 -257.910843 
L 368.381217 -256.980974 
L 368.380518 -256.051105 
L 368.379821 -255.121236 
L 368.379136 -254.191366 
L 368.378476 -253.261497 
L 368.377851 -252.331628 
L 368.377268 -251.401759 
L 368.376732 -250.47189 
L 368.376247 -249.542021 
L 368.375814 -248.612152 
L 368.375434 -247.682282 
L 368.375103 -246.752413 
z
" id="m5bd5342b69" style="stroke:#3d3d3d;stroke-width:1.5;"/>
    </defs>
    <g clip-path="url(#p06433e1eba)">
     <use style="fill:#c03d3e;stroke:#3d3d3d;stroke-width:1.5;" x="0" xlink:href="#m5bd5342b69" y="373.223584"/>
    </g>
   </g>
   <g id="PolyCollection_4">
    <defs>
     <path d="M 392.18299 -96.889459 
L 392.18026 -96.889459 
L 392.179868 -98.799435 
L 392.179393 -100.709412 
L 392.178825 -102.619388 
L 392.178155 -104.529364 
L 392.177377 -106.43934 
L 392.176484 -108.349317 
L 392.175471 -110.259293 
L 392.174337 -112.169269 
L 392.173079 -114.079245 
L 392.171698 -115.989221 
L 392.170194 -117.899198 
L 392.168568 -119.809174 
L 392.16682 -121.71915 
L 392.164949 -123.629126 
L 392.162955 -125.539103 
L 392.160838 -127.449079 
L 392.158597 -129.359055 
L 392.156233 -131.269031 
L 392.153752 -133.179007 
L 392.151164 -135.088984 
L 392.148486 -136.99896 
L 392.145741 -138.908936 
L 392.142963 -140.818912 
L 392.140196 -142.728889 
L 392.137489 -144.638865 
L 392.134899 -146.548841 
L 392.132487 -148.458817 
L 392.130314 -150.368794 
L 392.128437 -152.27877 
L 392.126906 -154.188746 
L 392.12576 -156.098722 
L 392.125022 -158.008698 
L 392.124699 -159.918675 
L 392.124782 -161.828651 
L 392.125243 -163.738627 
L 392.126043 -165.648603 
L 392.12713 -167.55858 
L 392.128445 -169.468556 
L 392.129928 -171.378532 
L 392.13152 -173.288508 
L 392.133171 -175.198484 
L 392.13484 -177.108461 
L 392.136498 -179.018437 
L 392.138131 -180.928413 
L 392.139734 -182.838389 
L 392.141317 -184.748366 
L 392.142897 -186.658342 
L 392.144494 -188.568318 
L 392.146132 -190.478294 
L 392.147833 -192.388271 
L 392.149611 -194.298247 
L 392.151475 -196.208223 
L 392.153427 -198.118199 
L 392.155456 -200.028175 
L 392.157546 -201.938152 
L 392.159672 -203.848128 
L 392.161804 -205.758104 
L 392.163909 -207.66808 
L 392.165953 -209.578057 
L 392.167903 -211.488033 
L 392.169729 -213.398009 
L 392.171405 -215.307985 
L 392.172913 -217.217961 
L 392.174238 -219.127938 
L 392.175373 -221.037914 
L 392.176317 -222.94789 
L 392.177073 -224.857866 
L 392.177648 -226.767843 
L 392.178056 -228.677819 
L 392.178311 -230.587795 
L 392.178431 -232.497771 
L 392.178435 -234.407748 
L 392.178344 -236.317724 
L 392.178179 -238.2277 
L 392.177961 -240.137676 
L 392.177713 -242.047652 
L 392.177455 -243.957629 
L 392.177206 -245.867605 
L 392.176983 -247.777581 
L 392.176803 -249.687557 
L 392.176678 -251.597534 
L 392.176615 -253.50751 
L 392.176621 -255.417486 
L 392.176697 -257.327462 
L 392.176841 -259.237438 
L 392.177048 -261.147415 
L 392.177309 -263.057391 
L 392.177615 -264.967367 
L 392.177953 -266.877343 
L 392.178312 -268.78732 
L 392.17868 -270.697296 
L 392.179045 -272.607272 
L 392.179397 -274.517248 
L 392.17973 -276.427225 
L 392.180037 -278.337201 
L 392.180314 -280.247177 
L 392.180558 -282.157153 
L 392.180769 -284.067129 
L 392.180949 -285.977106 
L 392.182301 -285.977106 
L 392.182301 -285.977106 
L 392.182481 -284.067129 
L 392.182692 -282.157153 
L 392.182936 -280.247177 
L 392.183213 -278.337201 
L 392.18352 -276.427225 
L 392.183853 -274.517248 
L 392.184205 -272.607272 
L 392.18457 -270.697296 
L 392.184938 -268.78732 
L 392.185297 -266.877343 
L 392.185635 -264.967367 
L 392.185941 -263.057391 
L 392.186202 -261.147415 
L 392.186409 -259.237438 
L 392.186553 -257.327462 
L 392.186629 -255.417486 
L 392.186635 -253.50751 
L 392.186572 -251.597534 
L 392.186447 -249.687557 
L 392.186267 -247.777581 
L 392.186044 -245.867605 
L 392.185795 -243.957629 
L 392.185537 -242.047652 
L 392.185289 -240.137676 
L 392.185071 -238.2277 
L 392.184906 -236.317724 
L 392.184815 -234.407748 
L 392.184819 -232.497771 
L 392.184939 -230.587795 
L 392.185194 -228.677819 
L 392.185602 -226.767843 
L 392.186177 -224.857866 
L 392.186933 -222.94789 
L 392.187877 -221.037914 
L 392.189012 -219.127938 
L 392.190337 -217.217961 
L 392.191845 -215.307985 
L 392.193521 -213.398009 
L 392.195347 -211.488033 
L 392.197297 -209.578057 
L 392.199341 -207.66808 
L 392.201446 -205.758104 
L 392.203578 -203.848128 
L 392.205704 -201.938152 
L 392.207794 -200.028175 
L 392.209823 -198.118199 
L 392.211775 -196.208223 
L 392.213639 -194.298247 
L 392.215417 -192.388271 
L 392.217118 -190.478294 
L 392.218756 -188.568318 
L 392.220353 -186.658342 
L 392.221933 -184.748366 
L 392.223516 -182.838389 
L 392.225119 -180.928413 
L 392.226752 -179.018437 
L 392.22841 -177.108461 
L 392.230079 -175.198484 
L 392.23173 -173.288508 
L 392.233322 -171.378532 
L 392.234805 -169.468556 
L 392.23612 -167.55858 
L 392.237207 -165.648603 
L 392.238007 -163.738627 
L 392.238468 -161.828651 
L 392.238551 -159.918675 
L 392.238228 -158.008698 
L 392.23749 -156.098722 
L 392.236344 -154.188746 
L 392.234813 -152.27877 
L 392.232936 -150.368794 
L 392.230763 -148.458817 
L 392.228351 -146.548841 
L 392.225761 -144.638865 
L 392.223054 -142.728889 
L 392.220287 -140.818912 
L 392.217509 -138.908936 
L 392.214764 -136.99896 
L 392.212086 -135.088984 
L 392.209498 -133.179007 
L 392.207017 -131.269031 
L 392.204653 -129.359055 
L 392.202412 -127.449079 
L 392.200295 -125.539103 
L 392.198301 -123.629126 
L 392.19643 -121.71915 
L 392.194682 -119.809174 
L 392.193056 -117.899198 
L 392.191552 -115.989221 
L 392.190171 -114.079245 
L 392.188913 -112.169269 
L 392.187779 -110.259293 
L 392.186766 -108.349317 
L 392.185873 -106.43934 
L 392.185095 -104.529364 
L 392.184425 -102.619388 
L 392.183857 -100.709412 
L 392.183382 -98.799435 
L 392.18299 -96.889459 
z
" id="mcdae4a3f55" style="stroke:#3d3d3d;stroke-width:1.5;"/>
    </defs>
    <g clip-path="url(#p06433e1eba)">
     <use style="fill:#efbed3;stroke:#3d3d3d;stroke-width:1.5;" x="0" xlink:href="#mcdae4a3f55" y="373.223584"/>
    </g>
   </g>
   <g id="matplotlib.axis_1">
    <g id="xtick_1">
     <g id="line2d_1">
      <defs>
       <path d="M 0 0 
L 0 3.5 
" id="m4845e57235" style="stroke:#000000;stroke-width:0.8;"/>
      </defs>
      <g>
       <use style="stroke:#000000;stroke-width:0.8;" x="58.869625" xlink:href="#m4845e57235" y="288.430125"/>
      </g>
     </g>
     <g id="text_1">
      <!-- libfuzzer -->
      <defs>
       <path d="M 9.421875 75.984375 
L 18.40625 75.984375 
L 18.40625 0 
L 9.421875 0 
z
" id="DejaVuSans-108"/>
       <path d="M 9.421875 54.6875 
L 18.40625 54.6875 
L 18.40625 0 
L 9.421875 0 
z
M 9.421875 75.984375 
L 18.40625 75.984375 
L 18.40625 64.59375 
L 9.421875 64.59375 
z
" id="DejaVuSans-105"/>
       <path d="M 48.6875 27.296875 
Q 48.6875 37.203125 44.609375 42.84375 
Q 40.53125 48.484375 33.40625 48.484375 
Q 26.265625 48.484375 22.1875 42.84375 
Q 18.109375 37.203125 18.109375 27.296875 
Q 18.109375 17.390625 22.1875 11.75 
Q 26.265625 6.109375 33.40625 6.109375 
Q 40.53125 6.109375 44.609375 11.75 
Q 48.6875 17.390625 48.6875 27.296875 
z
M 18.109375 46.390625 
Q 20.953125 51.265625 25.265625 53.625 
Q 29.59375 56 35.59375 56 
Q 45.5625 56 51.78125 48.09375 
Q 58.015625 40.1875 58.015625 27.296875 
Q 58.015625 14.40625 51.78125 6.484375 
Q 45.5625 -1.421875 35.59375 -1.421875 
Q 29.59375 -1.421875 25.265625 0.953125 
Q 20.953125 3.328125 18.109375 8.203125 
L 18.109375 0 
L 9.078125 0 
L 9.078125 75.984375 
L 18.109375 75.984375 
z
" id="DejaVuSans-98"/>
       <path d="M 37.109375 75.984375 
L 37.109375 68.5 
L 28.515625 68.5 
Q 23.6875 68.5 21.796875 66.546875 
Q 19.921875 64.59375 19.921875 59.515625 
L 19.921875 54.6875 
L 34.71875 54.6875 
L 34.71875 47.703125 
L 19.921875 47.703125 
L 19.921875 0 
L 10.890625 0 
L 10.890625 47.703125 
L 2.296875 47.703125 
L 2.296875 54.6875 
L 10.890625 54.6875 
L 10.890625 58.5 
Q 10.890625 67.625 15.140625 71.796875 
Q 19.390625 75.984375 28.609375 75.984375 
z
" id="DejaVuSans-102"/>
       <path d="M 8.5 21.578125 
L 8.5 54.6875 
L 17.484375 54.6875 
L 17.484375 21.921875 
Q 17.484375 14.15625 20.5 10.265625 
Q 23.53125 6.390625 29.59375 6.390625 
Q 36.859375 6.390625 41.078125 11.03125 
Q 45.3125 15.671875 45.3125 23.6875 
L 45.3125 54.6875 
L 54.296875 54.6875 
L 54.296875 0 
L 45.3125 0 
L 45.3125 8.40625 
Q 42.046875 3.421875 37.71875 1 
Q 33.40625 -1.421875 27.6875 -1.421875 
Q 18.265625 -1.421875 13.375 4.4375 
Q 8.5 10.296875 8.5 21.578125 
z
M 31.109375 56 
z
" id="DejaVuSans-117"/>
       <path d="M 5.515625 54.6875 
L 48.1875 54.6875 
L 48.1875 46.484375 
L 14.40625 7.171875 
L 48.1875 7.171875 
L 48.1875 0 
L 4.296875 0 
L 4.296875 8.203125 
L 38.09375 47.515625 
L 5.515625 47.515625 
z
" id="DejaVuSans-122"/>
       <path d="M 56.203125 29.59375 
L 56.203125 25.203125 
L 14.890625 25.203125 
Q 15.484375 15.921875 20.484375 11.0625 
Q 25.484375 6.203125 34.421875 6.203125 
Q 39.59375 6.203125 44.453125 7.46875 
Q 49.3125 8.734375 54.109375 11.28125 
L 54.109375 2.78125 
Q 49.265625 0.734375 44.1875 -0.34375 
Q 39.109375 -1.421875 33.890625 -1.421875 
Q 20.796875 -1.421875 13.15625 6.1875 
Q 5.515625 13.8125 5.515625 26.8125 
Q 5.515625 40.234375 12.765625 48.109375 
Q 20.015625 56 32.328125 56 
Q 43.359375 56 49.78125 48.890625 
Q 56.203125 41.796875 56.203125 29.59375 
z
M 47.21875 32.234375 
Q 47.125 39.59375 43.09375 43.984375 
Q 39.0625 48.390625 32.421875 48.390625 
Q 24.90625 48.390625 20.390625 44.140625 
Q 15.875 39.890625 15.1875 32.171875 
z
" id="DejaVuSans-101"/>
       <path d="M 41.109375 46.296875 
Q 39.59375 47.171875 37.8125 47.578125 
Q 36.03125 48 33.890625 48 
Q 26.265625 48 22.1875 43.046875 
Q 18.109375 38.09375 18.109375 28.8125 
L 18.109375 0 
L 9.078125 0 
L 9.078125 54.6875 
L 18.109375 54.6875 
L 18.109375 46.1875 
Q 20.953125 51.171875 25.484375 53.578125 
Q 30.03125 56 36.53125 56 
Q 37.453125 56 38.578125 55.875 
Q 39.703125 55.765625 41.0625 55.515625 
z
" id="DejaVuSans-114"/>
      </defs>
      <g transform="translate(21.003404 323.272284)rotate(-30)scale(0.1 -0.1)">
       <use xlink:href="#DejaVuSans-108"/>
       <use x="27.783203" xlink:href="#DejaVuSans-105"/>
       <use x="55.566406" xlink:href="#DejaVuSans-98"/>
       <use x="119.042969" xlink:href="#DejaVuSans-102"/>
       <use x="154.248047" xlink:href="#DejaVuSans-117"/>
       <use x="217.626953" xlink:href="#DejaVuSans-122"/>
       <use x="270.117188" xlink:href="#DejaVuSans-122"/>
       <use x="322.607422" xlink:href="#DejaVuSans-101"/>
       <use x="384.130859" xlink:href="#DejaVuSans-114"/>
      </g>
     </g>
    </g>
    <g id="xtick_2">
     <g id="line2d_2">
      <g>
       <use style="stroke:#000000;stroke-width:0.8;" x="82.677625" xlink:href="#m4845e57235" y="288.430125"/>
      </g>
     </g>
     <g id="text_2">
      <!-- honggfuzz -->
      <defs>
       <path d="M 54.890625 33.015625 
L 54.890625 0 
L 45.90625 0 
L 45.90625 32.71875 
Q 45.90625 40.484375 42.875 44.328125 
Q 39.84375 48.1875 33.796875 48.1875 
Q 26.515625 48.1875 22.3125 43.546875 
Q 18.109375 38.921875 18.109375 30.90625 
L 18.109375 0 
L 9.078125 0 
L 9.078125 75.984375 
L 18.109375 75.984375 
L 18.109375 46.1875 
Q 21.34375 51.125 25.703125 53.5625 
Q 30.078125 56 35.796875 56 
Q 45.21875 56 50.046875 50.171875 
Q 54.890625 44.34375 54.890625 33.015625 
z
" id="DejaVuSans-104"/>
       <path d="M 30.609375 48.390625 
Q 23.390625 48.390625 19.1875 42.75 
Q 14.984375 37.109375 14.984375 27.296875 
Q 14.984375 17.484375 19.15625 11.84375 
Q 23.34375 6.203125 30.609375 6.203125 
Q 37.796875 6.203125 41.984375 11.859375 
Q 46.1875 17.53125 46.1875 27.296875 
Q 46.1875 37.015625 41.984375 42.703125 
Q 37.796875 48.390625 30.609375 48.390625 
z
M 30.609375 56 
Q 42.328125 56 49.015625 48.375 
Q 55.71875 40.765625 55.71875 27.296875 
Q 55.71875 13.875 49.015625 6.21875 
Q 42.328125 -1.421875 30.609375 -1.421875 
Q 18.84375 -1.421875 12.171875 6.21875 
Q 5.515625 13.875 5.515625 27.296875 
Q 5.515625 40.765625 12.171875 48.375 
Q 18.84375 56 30.609375 56 
z
" id="DejaVuSans-111"/>
       <path d="M 54.890625 33.015625 
L 54.890625 0 
L 45.90625 0 
L 45.90625 32.71875 
Q 45.90625 40.484375 42.875 44.328125 
Q 39.84375 48.1875 33.796875 48.1875 
Q 26.515625 48.1875 22.3125 43.546875 
Q 18.109375 38.921875 18.109375 30.90625 
L 18.109375 0 
L 9.078125 0 
L 9.078125 54.6875 
L 18.109375 54.6875 
L 18.109375 46.1875 
Q 21.34375 51.125 25.703125 53.5625 
Q 30.078125 56 35.796875 56 
Q 45.21875 56 50.046875 50.171875 
Q 54.890625 44.34375 54.890625 33.015625 
z
" id="DejaVuSans-110"/>
       <path d="M 45.40625 27.984375 
Q 45.40625 37.75 41.375 43.109375 
Q 37.359375 48.484375 30.078125 48.484375 
Q 22.859375 48.484375 18.828125 43.109375 
Q 14.796875 37.75 14.796875 27.984375 
Q 14.796875 18.265625 18.828125 12.890625 
Q 22.859375 7.515625 30.078125 7.515625 
Q 37.359375 7.515625 41.375 12.890625 
Q 45.40625 18.265625 45.40625 27.984375 
z
M 54.390625 6.78125 
Q 54.390625 -7.171875 48.1875 -13.984375 
Q 42 -20.796875 29.203125 -20.796875 
Q 24.46875 -20.796875 20.265625 -20.09375 
Q 16.0625 -19.390625 12.109375 -17.921875 
L 12.109375 -9.1875 
Q 16.0625 -11.328125 19.921875 -12.34375 
Q 23.78125 -13.375 27.78125 -13.375 
Q 36.625 -13.375 41.015625 -8.765625 
Q 45.40625 -4.15625 45.40625 5.171875 
L 45.40625 9.625 
Q 42.625 4.78125 38.28125 2.390625 
Q 33.9375 0 27.875 0 
Q 17.828125 0 11.671875 7.65625 
Q 5.515625 15.328125 5.515625 27.984375 
Q 5.515625 40.671875 11.671875 48.328125 
Q 17.828125 56 27.875 56 
Q 33.9375 56 38.28125 53.609375 
Q 42.625 51.21875 45.40625 46.390625 
L 45.40625 54.6875 
L 54.390625 54.6875 
z
" id="DejaVuSans-103"/>
      </defs>
      <g transform="translate(36.738424 327.933221)rotate(-30)scale(0.1 -0.1)">
       <use xlink:href="#DejaVuSans-104"/>
       <use x="63.378906" xlink:href="#DejaVuSans-111"/>
       <use x="124.560547" xlink:href="#DejaVuSans-110"/>
       <use x="187.939453" xlink:href="#DejaVuSans-103"/>
       <use x="251.416016" xlink:href="#DejaVuSans-103"/>
       <use x="314.892578" xlink:href="#DejaVuSans-102"/>
       <use x="350.097656" xlink:href="#DejaVuSans-117"/>
       <use x="413.476562" xlink:href="#DejaVuSans-122"/>
       <use x="465.966797" xlink:href="#DejaVuSans-122"/>
      </g>
     </g>
    </g>
    <g id="xtick_3">
     <g id="line2d_3">
      <g>
       <use style="stroke:#000000;stroke-width:0.8;" x="106.485625" xlink:href="#m4845e57235" y="288.430125"/>
      </g>
     </g>
     <g id="text_3">
      <!-- entropic -->
      <defs>
       <path d="M 18.3125 70.21875 
L 18.3125 54.6875 
L 36.8125 54.6875 
L 36.8125 47.703125 
L 18.3125 47.703125 
L 18.3125 18.015625 
Q 18.3125 11.328125 20.140625 9.421875 
Q 21.96875 7.515625 27.59375 7.515625 
L 36.8125 7.515625 
L 36.8125 0 
L 27.59375 0 
Q 17.1875 0 13.234375 3.875 
Q 9.28125 7.765625 9.28125 18.015625 
L 9.28125 47.703125 
L 2.6875 47.703125 
L 2.6875 54.6875 
L 9.28125 54.6875 
L 9.28125 70.21875 
z
" id="DejaVuSans-116"/>
       <path d="M 18.109375 8.203125 
L 18.109375 -20.796875 
L 9.078125 -20.796875 
L 9.078125 54.6875 
L 18.109375 54.6875 
L 18.109375 46.390625 
Q 20.953125 51.265625 25.265625 53.625 
Q 29.59375 56 35.59375 56 
Q 45.5625 56 51.78125 48.09375 
Q 58.015625 40.1875 58.015625 27.296875 
Q 58.015625 14.40625 51.78125 6.484375 
Q 45.5625 -1.421875 35.59375 -1.421875 
Q 29.59375 -1.421875 25.265625 0.953125 
Q 20.953125 3.328125 18.109375 8.203125 
z
M 48.6875 27.296875 
Q 48.6875 37.203125 44.609375 42.84375 
Q 40.53125 48.484375 33.40625 48.484375 
Q 26.265625 48.484375 22.1875 42.84375 
Q 18.109375 37.203125 18.109375 27.296875 
Q 18.109375 17.390625 22.1875 11.75 
Q 26.265625 6.109375 33.40625 6.109375 
Q 40.53125 6.109375 44.609375 11.75 
Q 48.6875 17.390625 48.6875 27.296875 
z
" id="DejaVuSans-112"/>
       <path d="M 48.78125 52.59375 
L 48.78125 44.1875 
Q 44.96875 46.296875 41.140625 47.34375 
Q 37.3125 48.390625 33.40625 48.390625 
Q 24.65625 48.390625 19.8125 42.84375 
Q 14.984375 37.3125 14.984375 27.296875 
Q 14.984375 17.28125 19.8125 11.734375 
Q 24.65625 6.203125 33.40625 6.203125 
Q 37.3125 6.203125 41.140625 7.25 
Q 44.96875 8.296875 48.78125 10.40625 
L 48.78125 2.09375 
Q 45.015625 0.34375 40.984375 -0.53125 
Q 36.96875 -1.421875 32.421875 -1.421875 
Q 20.0625 -1.421875 12.78125 6.34375 
Q 5.515625 14.109375 5.515625 27.296875 
Q 5.515625 40.671875 12.859375 48.328125 
Q 20.21875 56 33.015625 56 
Q 37.15625 56 41.109375 55.140625 
Q 45.0625 54.296875 48.78125 52.59375 
z
" id="DejaVuSans-99"/>
      </defs>
      <g transform="translate(69.903557 322.530877)rotate(-30)scale(0.1 -0.1)">
       <use xlink:href="#DejaVuSans-101"/>
       <use x="61.523438" xlink:href="#DejaVuSans-110"/>
       <use x="124.902344" xlink:href="#DejaVuSans-116"/>
       <use x="164.111328" xlink:href="#DejaVuSans-114"/>
       <use x="202.974609" xlink:href="#DejaVuSans-111"/>
       <use x="264.15625" xlink:href="#DejaVuSans-112"/>
       <use x="327.632812" xlink:href="#DejaVuSans-105"/>
       <use x="355.416016" xlink:href="#DejaVuSans-99"/>
      </g>
     </g>
    </g>
    <g id="xtick_4">
     <g id="line2d_4">
      <g>
       <use style="stroke:#000000;stroke-width:0.8;" x="130.293625" xlink:href="#m4845e57235" y="288.430125"/>
      </g>
     </g>
     <g id="text_4">
      <!-- mopt -->
      <defs>
       <path d="M 52 44.1875 
Q 55.375 50.25 60.0625 53.125 
Q 64.75 56 71.09375 56 
Q 79.640625 56 84.28125 50.015625 
Q 88.921875 44.046875 88.921875 33.015625 
L 88.921875 0 
L 79.890625 0 
L 79.890625 32.71875 
Q 79.890625 40.578125 77.09375 44.375 
Q 74.3125 48.1875 68.609375 48.1875 
Q 61.625 48.1875 57.5625 43.546875 
Q 53.515625 38.921875 53.515625 30.90625 
L 53.515625 0 
L 44.484375 0 
L 44.484375 32.71875 
Q 44.484375 40.625 41.703125 44.40625 
Q 38.921875 48.1875 33.109375 48.1875 
Q 26.21875 48.1875 22.15625 43.53125 
Q 18.109375 38.875 18.109375 30.90625 
L 18.109375 0 
L 9.078125 0 
L 9.078125 54.6875 
L 18.109375 54.6875 
L 18.109375 46.1875 
Q 21.1875 51.21875 25.484375 53.609375 
Q 29.78125 56 35.6875 56 
Q 41.65625 56 45.828125 52.96875 
Q 50 49.953125 52 44.1875 
z
" id="DejaVuSans-109"/>
      </defs>
      <g transform="translate(106.626161 315.074627)rotate(-30)scale(0.1 -0.1)">
       <use xlink:href="#DejaVuSans-109"/>
       <use x="97.412109" xlink:href="#DejaVuSans-111"/>
       <use x="158.59375" xlink:href="#DejaVuSans-112"/>
       <use x="222.070312" xlink:href="#DejaVuSans-116"/>
      </g>
     </g>
    </g>
    <g id="xtick_5">
     <g id="line2d_5">
      <g>
       <use style="stroke:#000000;stroke-width:0.8;" x="154.101625" xlink:href="#m4845e57235" y="288.430125"/>
      </g>
     </g>
     <g id="text_5">
      <!-- lafintel -->
      <defs>
       <path d="M 34.28125 27.484375 
Q 23.390625 27.484375 19.1875 25 
Q 14.984375 22.515625 14.984375 16.5 
Q 14.984375 11.71875 18.140625 8.90625 
Q 21.296875 6.109375 26.703125 6.109375 
Q 34.1875 6.109375 38.703125 11.40625 
Q 43.21875 16.703125 43.21875 25.484375 
L 43.21875 27.484375 
z
M 52.203125 31.203125 
L 52.203125 0 
L 43.21875 0 
L 43.21875 8.296875 
Q 40.140625 3.328125 35.546875 0.953125 
Q 30.953125 -1.421875 24.3125 -1.421875 
Q 15.921875 -1.421875 10.953125 3.296875 
Q 6 8.015625 6 15.921875 
Q 6 25.140625 12.171875 29.828125 
Q 18.359375 34.515625 30.609375 34.515625 
L 43.21875 34.515625 
L 43.21875 35.40625 
Q 43.21875 41.609375 39.140625 45 
Q 35.0625 48.390625 27.6875 48.390625 
Q 23 48.390625 18.546875 47.265625 
Q 14.109375 46.140625 10.015625 43.890625 
L 10.015625 52.203125 
Q 14.9375 54.109375 19.578125 55.046875 
Q 24.21875 56 28.609375 56 
Q 40.484375 56 46.34375 49.84375 
Q 52.203125 43.703125 52.203125 31.203125 
z
" id="DejaVuSans-97"/>
      </defs>
      <g transform="translate(123.27592 319.20744)rotate(-30)scale(0.1 -0.1)">
       <use xlink:href="#DejaVuSans-108"/>
       <use x="27.783203" xlink:href="#DejaVuSans-97"/>
       <use x="89.0625" xlink:href="#DejaVuSans-102"/>
       <use x="124.267578" xlink:href="#DejaVuSans-105"/>
       <use x="152.050781" xlink:href="#DejaVuSans-110"/>
       <use x="215.429688" xlink:href="#DejaVuSans-116"/>
       <use x="254.638672" xlink:href="#DejaVuSans-101"/>
       <use x="316.162109" xlink:href="#DejaVuSans-108"/>
      </g>
     </g>
    </g>
    <g id="xtick_6">
     <g id="line2d_6">
      <g>
       <use style="stroke:#000000;stroke-width:0.8;" x="177.909625" xlink:href="#m4845e57235" y="288.430125"/>
      </g>
     </g>
     <g id="text_6">
      <!-- fastcgs_lm -->
      <defs>
       <path d="M 44.28125 53.078125 
L 44.28125 44.578125 
Q 40.484375 46.53125 36.375 47.5 
Q 32.28125 48.484375 27.875 48.484375 
Q 21.1875 48.484375 17.84375 46.4375 
Q 14.5 44.390625 14.5 40.28125 
Q 14.5 37.15625 16.890625 35.375 
Q 19.28125 33.59375 26.515625 31.984375 
L 29.59375 31.296875 
Q 39.15625 29.25 43.1875 25.515625 
Q 47.21875 21.78125 47.21875 15.09375 
Q 47.21875 7.46875 41.1875 3.015625 
Q 35.15625 -1.421875 24.609375 -1.421875 
Q 20.21875 -1.421875 15.453125 -0.5625 
Q 10.6875 0.296875 5.421875 2 
L 5.421875 11.28125 
Q 10.40625 8.6875 15.234375 7.390625 
Q 20.0625 6.109375 24.8125 6.109375 
Q 31.15625 6.109375 34.5625 8.28125 
Q 37.984375 10.453125 37.984375 14.40625 
Q 37.984375 18.0625 35.515625 20.015625 
Q 33.0625 21.96875 24.703125 23.78125 
L 21.578125 24.515625 
Q 13.234375 26.265625 9.515625 29.90625 
Q 5.8125 33.546875 5.8125 39.890625 
Q 5.8125 47.609375 11.28125 51.796875 
Q 16.75 56 26.8125 56 
Q 31.78125 56 36.171875 55.265625 
Q 40.578125 54.546875 44.28125 53.078125 
z
" id="DejaVuSans-115"/>
       <path d="M 50.984375 -16.609375 
L 50.984375 -23.578125 
L -0.984375 -23.578125 
L -0.984375 -16.609375 
z
" id="DejaVuSans-95"/>
      </defs>
      <g transform="translate(130.525557 328.687127)rotate(-30)scale(0.1 -0.1)">
       <use xlink:href="#DejaVuSans-102"/>
       <use x="35.205078" xlink:href="#DejaVuSans-97"/>
       <use x="96.484375" xlink:href="#DejaVuSans-115"/>
       <use x="148.583984" xlink:href="#DejaVuSans-116"/>
       <use x="187.792969" xlink:href="#DejaVuSans-99"/>
       <use x="242.773438" xlink:href="#DejaVuSans-103"/>
       <use x="306.25" xlink:href="#DejaVuSans-115"/>
       <use x="358.349609" xlink:href="#DejaVuSans-95"/>
       <use x="408.349609" xlink:href="#DejaVuSans-108"/>
       <use x="436.132812" xlink:href="#DejaVuSans-109"/>
      </g>
     </g>
    </g>
    <g id="xtick_7">
     <g id="line2d_7">
      <g>
       <use style="stroke:#000000;stroke-width:0.8;" x="201.717625" xlink:href="#m4845e57235" y="288.430125"/>
      </g>
     </g>
     <g id="text_7">
      <!-- fairfuzz -->
      <g transform="translate(168.72821 320.456659)rotate(-30)scale(0.1 -0.1)">
       <use xlink:href="#DejaVuSans-102"/>
       <use x="35.205078" xlink:href="#DejaVuSans-97"/>
       <use x="96.484375" xlink:href="#DejaVuSans-105"/>
       <use x="124.267578" xlink:href="#DejaVuSans-114"/>
       <use x="165.380859" xlink:href="#DejaVuSans-102"/>
       <use x="200.585938" xlink:href="#DejaVuSans-117"/>
       <use x="263.964844" xlink:href="#DejaVuSans-122"/>
       <use x="316.455078" xlink:href="#DejaVuSans-122"/>
      </g>
     </g>
    </g>
    <g id="xtick_8">
     <g id="line2d_8">
      <g>
       <use style="stroke:#000000;stroke-width:0.8;" x="225.525625" xlink:href="#m4845e57235" y="288.430125"/>
      </g>
     </g>
     <g id="text_8">
      <!-- aflsmart -->
      <g transform="translate(188.514604 322.778534)rotate(-30)scale(0.1 -0.1)">
       <use xlink:href="#DejaVuSans-97"/>
       <use x="61.279297" xlink:href="#DejaVuSans-102"/>
       <use x="96.484375" xlink:href="#DejaVuSans-108"/>
       <use x="124.267578" xlink:href="#DejaVuSans-115"/>
       <use x="176.367188" xlink:href="#DejaVuSans-109"/>
       <use x="273.779297" xlink:href="#DejaVuSans-97"/>
       <use x="335.058594" xlink:href="#DejaVuSans-114"/>
       <use x="376.171875" xlink:href="#DejaVuSans-116"/>
      </g>
     </g>
    </g>
    <g id="xtick_9">
     <g id="line2d_9">
      <g>
       <use style="stroke:#000000;stroke-width:0.8;" x="249.333625" xlink:href="#m4845e57235" y="288.430125"/>
      </g>
     </g>
     <g id="text_9">
      <!-- aflplusplus_optimal -->
      <g transform="translate(164.508843 350.303534)rotate(-30)scale(0.1 -0.1)">
       <use xlink:href="#DejaVuSans-97"/>
       <use x="61.279297" xlink:href="#DejaVuSans-102"/>
       <use x="96.484375" xlink:href="#DejaVuSans-108"/>
       <use x="124.267578" xlink:href="#DejaVuSans-112"/>
       <use x="187.744141" xlink:href="#DejaVuSans-108"/>
       <use x="215.527344" xlink:href="#DejaVuSans-117"/>
       <use x="278.90625" xlink:href="#DejaVuSans-115"/>
       <use x="331.005859" xlink:href="#DejaVuSans-112"/>
       <use x="394.482422" xlink:href="#DejaVuSans-108"/>
       <use x="422.265625" xlink:href="#DejaVuSans-117"/>
       <use x="485.644531" xlink:href="#DejaVuSans-115"/>
       <use x="537.744141" xlink:href="#DejaVuSans-95"/>
       <use x="587.744141" xlink:href="#DejaVuSans-111"/>
       <use x="648.925781" xlink:href="#DejaVuSans-112"/>
       <use x="712.402344" xlink:href="#DejaVuSans-116"/>
       <use x="751.611328" xlink:href="#DejaVuSans-105"/>
       <use x="779.394531" xlink:href="#DejaVuSans-109"/>
       <use x="876.806641" xlink:href="#DejaVuSans-97"/>
       <use x="938.085938" xlink:href="#DejaVuSans-108"/>
      </g>
     </g>
    </g>
    <g id="xtick_10">
     <g id="line2d_10">
      <g>
       <use style="stroke:#000000;stroke-width:0.8;" x="273.141625" xlink:href="#m4845e57235" y="288.430125"/>
      </g>
     </g>
     <g id="text_10">
      <!-- aflplusplus -->
      <g transform="translate(225.532618 328.897284)rotate(-30)scale(0.1 -0.1)">
       <use xlink:href="#DejaVuSans-97"/>
       <use x="61.279297" xlink:href="#DejaVuSans-102"/>
       <use x="96.484375" xlink:href="#DejaVuSans-108"/>
       <use x="124.267578" xlink:href="#DejaVuSans-112"/>
       <use x="187.744141" xlink:href="#DejaVuSans-108"/>
       <use x="215.527344" xlink:href="#DejaVuSans-117"/>
       <use x="278.90625" xlink:href="#DejaVuSans-115"/>
       <use x="331.005859" xlink:href="#DejaVuSans-112"/>
       <use x="394.482422" xlink:href="#DejaVuSans-108"/>
       <use x="422.265625" xlink:href="#DejaVuSans-117"/>
       <use x="485.644531" xlink:href="#DejaVuSans-115"/>
      </g>
     </g>
    </g>
    <g id="xtick_11">
     <g id="line2d_11">
      <g>
       <use style="stroke:#000000;stroke-width:0.8;" x="296.949625" xlink:href="#m4845e57235" y="288.430125"/>
      </g>
     </g>
     <g id="text_11">
      <!-- aflfast -->
      <g transform="translate(268.885729 317.612909)rotate(-30)scale(0.1 -0.1)">
       <use xlink:href="#DejaVuSans-97"/>
       <use x="61.279297" xlink:href="#DejaVuSans-102"/>
       <use x="96.484375" xlink:href="#DejaVuSans-108"/>
       <use x="124.267578" xlink:href="#DejaVuSans-102"/>
       <use x="159.472656" xlink:href="#DejaVuSans-97"/>
       <use x="220.751953" xlink:href="#DejaVuSans-115"/>
       <use x="272.851562" xlink:href="#DejaVuSans-116"/>
      </g>
     </g>
    </g>
    <g id="xtick_12">
     <g id="line2d_12">
      <g>
       <use style="stroke:#000000;stroke-width:0.8;" x="320.757625" xlink:href="#m4845e57235" y="288.430125"/>
      </g>
     </g>
     <g id="text_12">
      <!-- aflcc -->
      <g transform="translate(299.432489 313.722284)rotate(-30)scale(0.1 -0.1)">
       <use xlink:href="#DejaVuSans-97"/>
       <use x="61.279297" xlink:href="#DejaVuSans-102"/>
       <use x="96.484375" xlink:href="#DejaVuSans-108"/>
       <use x="124.267578" xlink:href="#DejaVuSans-99"/>
       <use x="179.248047" xlink:href="#DejaVuSans-99"/>
      </g>
     </g>
    </g>
    <g id="xtick_13">
     <g id="line2d_13">
      <g>
       <use style="stroke:#000000;stroke-width:0.8;" x="344.565625" xlink:href="#m4845e57235" y="288.430125"/>
      </g>
     </g>
     <g id="text_13">
      <!-- afl -->
      <g transform="translate(332.764062 308.223846)rotate(-30)scale(0.1 -0.1)">
       <use xlink:href="#DejaVuSans-97"/>
       <use x="61.279297" xlink:href="#DejaVuSans-102"/>
       <use x="96.484375" xlink:href="#DejaVuSans-108"/>
      </g>
     </g>
    </g>
    <g id="xtick_14">
     <g id="line2d_14">
      <g>
       <use style="stroke:#000000;stroke-width:0.8;" x="368.373625" xlink:href="#m4845e57235" y="288.430125"/>
      </g>
     </g>
     <g id="text_14">
      <!-- eclipser -->
      <g transform="translate(333.53308 321.525409)rotate(-30)scale(0.1 -0.1)">
       <use xlink:href="#DejaVuSans-101"/>
       <use x="61.523438" xlink:href="#DejaVuSans-99"/>
       <use x="116.503906" xlink:href="#DejaVuSans-108"/>
       <use x="144.287109" xlink:href="#DejaVuSans-105"/>
       <use x="172.070312" xlink:href="#DejaVuSans-112"/>
       <use x="235.546875" xlink:href="#DejaVuSans-115"/>
       <use x="287.646484" xlink:href="#DejaVuSans-101"/>
       <use x="349.169922" xlink:href="#DejaVuSans-114"/>
      </g>
     </g>
    </g>
    <g id="xtick_15">
     <g id="line2d_15">
      <g>
       <use style="stroke:#000000;stroke-width:0.8;" x="392.181625" xlink:href="#m4845e57235" y="288.430125"/>
      </g>
     </g>
     <g id="text_15">
      <!-- manul -->
      <g transform="translate(364.016242 317.671502)rotate(-30)scale(0.1 -0.1)">
       <use xlink:href="#DejaVuSans-109"/>
       <use x="97.412109" xlink:href="#DejaVuSans-97"/>
       <use x="158.691406" xlink:href="#DejaVuSans-110"/>
       <use x="222.070312" xlink:href="#DejaVuSans-117"/>
       <use x="285.449219" xlink:href="#DejaVuSans-108"/>
      </g>
     </g>
    </g>
    <g id="text_16">
     <!-- Fuzzer (highest median coverage on the left) -->
     <defs>
      <path d="M 9.8125 72.90625 
L 51.703125 72.90625 
L 51.703125 64.59375 
L 19.671875 64.59375 
L 19.671875 43.109375 
L 48.578125 43.109375 
L 48.578125 34.8125 
L 19.671875 34.8125 
L 19.671875 0 
L 9.8125 0 
z
" id="DejaVuSans-70"/>
      <path id="DejaVuSans-32"/>
      <path d="M 31 75.875 
Q 24.46875 64.65625 21.28125 53.65625 
Q 18.109375 42.671875 18.109375 31.390625 
Q 18.109375 20.125 21.3125 9.0625 
Q 24.515625 -2 31 -13.1875 
L 23.1875 -13.1875 
Q 15.875 -1.703125 12.234375 9.375 
Q 8.59375 20.453125 8.59375 31.390625 
Q 8.59375 42.28125 12.203125 53.3125 
Q 15.828125 64.359375 23.1875 75.875 
z
" id="DejaVuSans-40"/>
      <path d="M 45.40625 46.390625 
L 45.40625 75.984375 
L 54.390625 75.984375 
L 54.390625 0 
L 45.40625 0 
L 45.40625 8.203125 
Q 42.578125 3.328125 38.25 0.953125 
Q 33.9375 -1.421875 27.875 -1.421875 
Q 17.96875 -1.421875 11.734375 6.484375 
Q 5.515625 14.40625 5.515625 27.296875 
Q 5.515625 40.1875 11.734375 48.09375 
Q 17.96875 56 27.875 56 
Q 33.9375 56 38.25 53.625 
Q 42.578125 51.265625 45.40625 46.390625 
z
M 14.796875 27.296875 
Q 14.796875 17.390625 18.875 11.75 
Q 22.953125 6.109375 30.078125 6.109375 
Q 37.203125 6.109375 41.296875 11.75 
Q 45.40625 17.390625 45.40625 27.296875 
Q 45.40625 37.203125 41.296875 42.84375 
Q 37.203125 48.484375 30.078125 48.484375 
Q 22.953125 48.484375 18.875 42.84375 
Q 14.796875 37.203125 14.796875 27.296875 
z
" id="DejaVuSans-100"/>
      <path d="M 2.984375 54.6875 
L 12.5 54.6875 
L 29.59375 8.796875 
L 46.6875 54.6875 
L 56.203125 54.6875 
L 35.6875 0 
L 23.484375 0 
z
" id="DejaVuSans-118"/>
      <path d="M 8.015625 75.875 
L 15.828125 75.875 
Q 23.140625 64.359375 26.78125 53.3125 
Q 30.421875 42.28125 30.421875 31.390625 
Q 30.421875 20.453125 26.78125 9.375 
Q 23.140625 -1.703125 15.828125 -13.1875 
L 8.015625 -13.1875 
Q 14.5 -2 17.703125 9.0625 
Q 20.90625 20.125 20.90625 31.390625 
Q 20.90625 42.671875 17.703125 53.65625 
Q 14.5 64.65625 8.015625 75.875 
z
" id="DejaVuSans-41"/>
     </defs>
     <g transform="translate(112.907656 363.943897)scale(0.1 -0.1)">
      <use xlink:href="#DejaVuSans-70"/>
      <use x="52.019531" xlink:href="#DejaVuSans-117"/>
      <use x="115.398438" xlink:href="#DejaVuSans-122"/>
      <use x="167.888672" xlink:href="#DejaVuSans-122"/>
      <use x="220.378906" xlink:href="#DejaVuSans-101"/>
      <use x="281.902344" xlink:href="#DejaVuSans-114"/>
      <use x="323.015625" xlink:href="#DejaVuSans-32"/>
      <use x="354.802734" xlink:href="#DejaVuSans-40"/>
      <use x="393.816406" xlink:href="#DejaVuSans-104"/>
      <use x="457.195312" xlink:href="#DejaVuSans-105"/>
      <use x="484.978516" xlink:href="#DejaVuSans-103"/>
      <use x="548.455078" xlink:href="#DejaVuSans-104"/>
      <use x="611.833984" xlink:href="#DejaVuSans-101"/>
      <use x="673.357422" xlink:href="#DejaVuSans-115"/>
      <use x="725.457031" xlink:href="#DejaVuSans-116"/>
      <use x="764.666016" xlink:href="#DejaVuSans-32"/>
      <use x="796.453125" xlink:href="#DejaVuSans-109"/>
      <use x="893.865234" xlink:href="#DejaVuSans-101"/>
      <use x="955.388672" xlink:href="#DejaVuSans-100"/>
      <use x="1018.865234" xlink:href="#DejaVuSans-105"/>
      <use x="1046.648438" xlink:href="#DejaVuSans-97"/>
      <use x="1107.927734" xlink:href="#DejaVuSans-110"/>
      <use x="1171.306641" xlink:href="#DejaVuSans-32"/>
      <use x="1203.09375" xlink:href="#DejaVuSans-99"/>
      <use x="1258.074219" xlink:href="#DejaVuSans-111"/>
      <use x="1319.255859" xlink:href="#DejaVuSans-118"/>
      <use x="1378.435547" xlink:href="#DejaVuSans-101"/>
      <use x="1439.958984" xlink:href="#DejaVuSans-114"/>
      <use x="1481.072266" xlink:href="#DejaVuSans-97"/>
      <use x="1542.351562" xlink:href="#DejaVuSans-103"/>
      <use x="1605.828125" xlink:href="#DejaVuSans-101"/>
      <use x="1667.351562" xlink:href="#DejaVuSans-32"/>
      <use x="1699.138672" xlink:href="#DejaVuSans-111"/>
      <use x="1760.320312" xlink:href="#DejaVuSans-110"/>
      <use x="1823.699219" xlink:href="#DejaVuSans-32"/>
      <use x="1855.486328" xlink:href="#DejaVuSans-116"/>
      <use x="1894.695312" xlink:href="#DejaVuSans-104"/>
      <use x="1958.074219" xlink:href="#DejaVuSans-101"/>
      <use x="2019.597656" xlink:href="#DejaVuSans-32"/>
      <use x="2051.384766" xlink:href="#DejaVuSans-108"/>
      <use x="2079.167969" xlink:href="#DejaVuSans-101"/>
      <use x="2140.691406" xlink:href="#DejaVuSans-102"/>
      <use x="2174.146484" xlink:href="#DejaVuSans-116"/>
      <use x="2213.355469" xlink:href="#DejaVuSans-41"/>
     </g>
    </g>
   </g>
   <g id="matplotlib.axis_2">
    <g id="ytick_1">
     <g id="line2d_16">
      <defs>
       <path d="M 0 0 
L -3.5 0 
" id="mef3cf67c97" style="stroke:#000000;stroke-width:0.8;"/>
      </defs>
      <g>
       <use style="stroke:#000000;stroke-width:0.8;" x="46.965625" xlink:href="#mef3cf67c97" y="280.588329"/>
      </g>
     </g>
     <g id="text_17">
      <!-- 450 -->
      <defs>
       <path d="M 37.796875 64.3125 
L 12.890625 25.390625 
L 37.796875 25.390625 
z
M 35.203125 72.90625 
L 47.609375 72.90625 
L 47.609375 25.390625 
L 58.015625 25.390625 
L 58.015625 17.1875 
L 47.609375 17.1875 
L 47.609375 0 
L 37.796875 0 
L 37.796875 17.1875 
L 4.890625 17.1875 
L 4.890625 26.703125 
z
" id="DejaVuSans-52"/>
       <path d="M 10.796875 72.90625 
L 49.515625 72.90625 
L 49.515625 64.59375 
L 19.828125 64.59375 
L 19.828125 46.734375 
Q 21.96875 47.46875 24.109375 47.828125 
Q 26.265625 48.1875 28.421875 48.1875 
Q 40.625 48.1875 47.75 41.5 
Q 54.890625 34.8125 54.890625 23.390625 
Q 54.890625 11.625 47.5625 5.09375 
Q 40.234375 -1.421875 26.90625 -1.421875 
Q 22.3125 -1.421875 17.546875 -0.640625 
Q 12.796875 0.140625 7.71875 1.703125 
L 7.71875 11.625 
Q 12.109375 9.234375 16.796875 8.0625 
Q 21.484375 6.890625 26.703125 6.890625 
Q 35.15625 6.890625 40.078125 11.328125 
Q 45.015625 15.765625 45.015625 23.390625 
Q 45.015625 31 40.078125 35.4375 
Q 35.15625 39.890625 26.703125 39.890625 
Q 22.75 39.890625 18.8125 39.015625 
Q 14.890625 38.140625 10.796875 36.28125 
z
" id="DejaVuSans-53"/>
       <path d="M 31.78125 66.40625 
Q 24.171875 66.40625 20.328125 58.90625 
Q 16.5 51.421875 16.5 36.375 
Q 16.5 21.390625 20.328125 13.890625 
Q 24.171875 6.390625 31.78125 6.390625 
Q 39.453125 6.390625 43.28125 13.890625 
Q 47.125 21.390625 47.125 36.375 
Q 47.125 51.421875 43.28125 58.90625 
Q 39.453125 66.40625 31.78125 66.40625 
z
M 31.78125 74.21875 
Q 44.046875 74.21875 50.515625 64.515625 
Q 56.984375 54.828125 56.984375 36.375 
Q 56.984375 17.96875 50.515625 8.265625 
Q 44.046875 -1.421875 31.78125 -1.421875 
Q 19.53125 -1.421875 13.0625 8.265625 
Q 6.59375 17.96875 6.59375 36.375 
Q 6.59375 54.828125 13.0625 64.515625 
Q 19.53125 74.21875 31.78125 74.21875 
z
" id="DejaVuSans-48"/>
      </defs>
      <g transform="translate(20.878125 284.387548)scale(0.1 -0.1)">
       <use xlink:href="#DejaVuSans-52"/>
       <use x="63.623047" xlink:href="#DejaVuSans-53"/>
       <use x="127.246094" xlink:href="#DejaVuSans-48"/>
      </g>
     </g>
    </g>
    <g id="ytick_2">
     <g id="line2d_17">
      <g>
       <use style="stroke:#000000;stroke-width:0.8;" x="46.965625" xlink:href="#mef3cf67c97" y="248.717998"/>
      </g>
     </g>
     <g id="text_18">
      <!-- 475 -->
      <defs>
       <path d="M 8.203125 72.90625 
L 55.078125 72.90625 
L 55.078125 68.703125 
L 28.609375 0 
L 18.3125 0 
L 43.21875 64.59375 
L 8.203125 64.59375 
z
" id="DejaVuSans-55"/>
      </defs>
      <g transform="translate(20.878125 252.517216)scale(0.1 -0.1)">
       <use xlink:href="#DejaVuSans-52"/>
       <use x="63.623047" xlink:href="#DejaVuSans-55"/>
       <use x="127.246094" xlink:href="#DejaVuSans-53"/>
      </g>
     </g>
    </g>
    <g id="ytick_3">
     <g id="line2d_18">
      <g>
       <use style="stroke:#000000;stroke-width:0.8;" x="46.965625" xlink:href="#mef3cf67c97" y="216.847666"/>
      </g>
     </g>
     <g id="text_19">
      <!-- 500 -->
      <g transform="translate(20.878125 220.646885)scale(0.1 -0.1)">
       <use xlink:href="#DejaVuSans-53"/>
       <use x="63.623047" xlink:href="#DejaVuSans-48"/>
       <use x="127.246094" xlink:href="#DejaVuSans-48"/>
      </g>
     </g>
    </g>
    <g id="ytick_4">
     <g id="line2d_19">
      <g>
       <use style="stroke:#000000;stroke-width:0.8;" x="46.965625" xlink:href="#mef3cf67c97" y="184.977335"/>
      </g>
     </g>
     <g id="text_20">
      <!-- 525 -->
      <defs>
       <path d="M 19.1875 8.296875 
L 53.609375 8.296875 
L 53.609375 0 
L 7.328125 0 
L 7.328125 8.296875 
Q 12.9375 14.109375 22.625 23.890625 
Q 32.328125 33.6875 34.8125 36.53125 
Q 39.546875 41.84375 41.421875 45.53125 
Q 43.3125 49.21875 43.3125 52.78125 
Q 43.3125 58.59375 39.234375 62.25 
Q 35.15625 65.921875 28.609375 65.921875 
Q 23.96875 65.921875 18.8125 64.3125 
Q 13.671875 62.703125 7.8125 59.421875 
L 7.8125 69.390625 
Q 13.765625 71.78125 18.9375 73 
Q 24.125 74.21875 28.421875 74.21875 
Q 39.75 74.21875 46.484375 68.546875 
Q 53.21875 62.890625 53.21875 53.421875 
Q 53.21875 48.921875 51.53125 44.890625 
Q 49.859375 40.875 45.40625 35.40625 
Q 44.1875 33.984375 37.640625 27.21875 
Q 31.109375 20.453125 19.1875 8.296875 
z
" id="DejaVuSans-50"/>
      </defs>
      <g transform="translate(20.878125 188.776554)scale(0.1 -0.1)">
       <use xlink:href="#DejaVuSans-53"/>
       <use x="63.623047" xlink:href="#DejaVuSans-50"/>
       <use x="127.246094" xlink:href="#DejaVuSans-53"/>
      </g>
     </g>
    </g>
    <g id="ytick_5">
     <g id="line2d_20">
      <g>
       <use style="stroke:#000000;stroke-width:0.8;" x="46.965625" xlink:href="#mef3cf67c97" y="153.107004"/>
      </g>
     </g>
     <g id="text_21">
      <!-- 550 -->
      <g transform="translate(20.878125 156.906222)scale(0.1 -0.1)">
       <use xlink:href="#DejaVuSans-53"/>
       <use x="63.623047" xlink:href="#DejaVuSans-53"/>
       <use x="127.246094" xlink:href="#DejaVuSans-48"/>
      </g>
     </g>
    </g>
    <g id="ytick_6">
     <g id="line2d_21">
      <g>
       <use style="stroke:#000000;stroke-width:0.8;" x="46.965625" xlink:href="#mef3cf67c97" y="121.236672"/>
      </g>
     </g>
     <g id="text_22">
      <!-- 575 -->
      <g transform="translate(20.878125 125.035891)scale(0.1 -0.1)">
       <use xlink:href="#DejaVuSans-53"/>
       <use x="63.623047" xlink:href="#DejaVuSans-55"/>
       <use x="127.246094" xlink:href="#DejaVuSans-53"/>
      </g>
     </g>
    </g>
    <g id="ytick_7">
     <g id="line2d_22">
      <g>
       <use style="stroke:#000000;stroke-width:0.8;" x="46.965625" xlink:href="#mef3cf67c97" y="89.366341"/>
      </g>
     </g>
     <g id="text_23">
      <!-- 600 -->
      <defs>
       <path d="M 33.015625 40.375 
Q 26.375 40.375 22.484375 35.828125 
Q 18.609375 31.296875 18.609375 23.390625 
Q 18.609375 15.53125 22.484375 10.953125 
Q 26.375 6.390625 33.015625 6.390625 
Q 39.65625 6.390625 43.53125 10.953125 
Q 47.40625 15.53125 47.40625 23.390625 
Q 47.40625 31.296875 43.53125 35.828125 
Q 39.65625 40.375 33.015625 40.375 
z
M 52.59375 71.296875 
L 52.59375 62.3125 
Q 48.875 64.0625 45.09375 64.984375 
Q 41.3125 65.921875 37.59375 65.921875 
Q 27.828125 65.921875 22.671875 59.328125 
Q 17.53125 52.734375 16.796875 39.40625 
Q 19.671875 43.65625 24.015625 45.921875 
Q 28.375 48.1875 33.59375 48.1875 
Q 44.578125 48.1875 50.953125 41.515625 
Q 57.328125 34.859375 57.328125 23.390625 
Q 57.328125 12.15625 50.6875 5.359375 
Q 44.046875 -1.421875 33.015625 -1.421875 
Q 20.359375 -1.421875 13.671875 8.265625 
Q 6.984375 17.96875 6.984375 36.375 
Q 6.984375 53.65625 15.1875 63.9375 
Q 23.390625 74.21875 37.203125 74.21875 
Q 40.921875 74.21875 44.703125 73.484375 
Q 48.484375 72.75 52.59375 71.296875 
z
" id="DejaVuSans-54"/>
      </defs>
      <g transform="translate(20.878125 93.165559)scale(0.1 -0.1)">
       <use xlink:href="#DejaVuSans-54"/>
       <use x="63.623047" xlink:href="#DejaVuSans-48"/>
       <use x="127.246094" xlink:href="#DejaVuSans-48"/>
      </g>
     </g>
    </g>
    <g id="ytick_8">
     <g id="line2d_23">
      <g>
       <use style="stroke:#000000;stroke-width:0.8;" x="46.965625" xlink:href="#mef3cf67c97" y="57.496009"/>
      </g>
     </g>
     <g id="text_24">
      <!-- 625 -->
      <g transform="translate(20.878125 61.295228)scale(0.1 -0.1)">
       <use xlink:href="#DejaVuSans-54"/>
       <use x="63.623047" xlink:href="#DejaVuSans-50"/>
       <use x="127.246094" xlink:href="#DejaVuSans-53"/>
      </g>
     </g>
    </g>
    <g id="ytick_9">
     <g id="line2d_24">
      <g>
       <use style="stroke:#000000;stroke-width:0.8;" x="46.965625" xlink:href="#mef3cf67c97" y="25.625678"/>
      </g>
     </g>
     <g id="text_25">
      <!-- 650 -->
      <g transform="translate(20.878125 29.424897)scale(0.1 -0.1)">
       <use xlink:href="#DejaVuSans-54"/>
       <use x="63.623047" xlink:href="#DejaVuSans-53"/>
       <use x="127.246094" xlink:href="#DejaVuSans-48"/>
      </g>
     </g>
    </g>
    <g id="text_26">
     <!-- Reached edge coverage -->
     <defs>
      <path d="M 44.390625 34.1875 
Q 47.5625 33.109375 50.5625 29.59375 
Q 53.5625 26.078125 56.59375 19.921875 
L 66.609375 0 
L 56 0 
L 46.6875 18.703125 
Q 43.0625 26.03125 39.671875 28.421875 
Q 36.28125 30.8125 30.421875 30.8125 
L 19.671875 30.8125 
L 19.671875 0 
L 9.8125 0 
L 9.8125 72.90625 
L 32.078125 72.90625 
Q 44.578125 72.90625 50.734375 67.671875 
Q 56.890625 62.453125 56.890625 51.90625 
Q 56.890625 45.015625 53.6875 40.46875 
Q 50.484375 35.9375 44.390625 34.1875 
z
M 19.671875 64.796875 
L 19.671875 38.921875 
L 32.078125 38.921875 
Q 39.203125 38.921875 42.84375 42.21875 
Q 46.484375 45.515625 46.484375 51.90625 
Q 46.484375 58.296875 42.84375 61.546875 
Q 39.203125 64.796875 32.078125 64.796875 
z
" id="DejaVuSans-82"/>
     </defs>
     <g transform="translate(14.798438 215.82725)rotate(-90)scale(0.1 -0.1)">
      <use xlink:href="#DejaVuSans-82"/>
      <use x="64.982422" xlink:href="#DejaVuSans-101"/>
      <use x="126.505859" xlink:href="#DejaVuSans-97"/>
      <use x="187.785156" xlink:href="#DejaVuSans-99"/>
      <use x="242.765625" xlink:href="#DejaVuSans-104"/>
      <use x="306.144531" xlink:href="#DejaVuSans-101"/>
      <use x="367.667969" xlink:href="#DejaVuSans-100"/>
      <use x="431.144531" xlink:href="#DejaVuSans-32"/>
      <use x="462.931641" xlink:href="#DejaVuSans-101"/>
      <use x="524.455078" xlink:href="#DejaVuSans-100"/>
      <use x="587.931641" xlink:href="#DejaVuSans-103"/>
      <use x="651.408203" xlink:href="#DejaVuSans-101"/>
      <use x="712.931641" xlink:href="#DejaVuSans-32"/>
      <use x="744.71875" xlink:href="#DejaVuSans-99"/>
      <use x="799.699219" xlink:href="#DejaVuSans-111"/>
      <use x="860.880859" xlink:href="#DejaVuSans-118"/>
      <use x="920.060547" xlink:href="#DejaVuSans-101"/>
      <use x="981.583984" xlink:href="#DejaVuSans-114"/>
      <use x="1022.697266" xlink:href="#DejaVuSans-97"/>
      <use x="1083.976562" xlink:href="#DejaVuSans-103"/>
      <use x="1147.453125" xlink:href="#DejaVuSans-101"/>
     </g>
    </g>
   </g>
   <g id="line2d_25">
    <path clip-path="url(#p06433e1eba)" d="M 49.346425 37.098997 
L 68.392825 37.098997 
" style="fill:none;stroke:#3d3d3d;stroke-linecap:square;stroke-width:1.5;"/>
   </g>
   <g id="line2d_26">
    <path clip-path="url(#p06433e1eba)" d="M 73.154425 37.098997 
L 92.200825 37.098997 
" style="fill:none;stroke:#3d3d3d;stroke-linecap:square;stroke-width:1.5;"/>
   </g>
   <g id="line2d_27">
    <path clip-path="url(#p06433e1eba)" d="M 106.485625 38.373811 
L 106.485625 38.373811 
" style="fill:none;stroke:#3d3d3d;stroke-linecap:square;stroke-width:1.5;"/>
   </g>
   <g id="line2d_28">
    <path clip-path="url(#p06433e1eba)" d="M 106.485625 38.373811 
L 106.485625 38.373811 
" style="fill:none;stroke:#3d3d3d;stroke-linecap:square;stroke-width:4.5;"/>
   </g>
   <g id="line2d_29">
    <path clip-path="url(#p06433e1eba)" d="M 120.770425 39.648624 
L 139.816825 39.648624 
" style="fill:none;stroke:#3d3d3d;stroke-linecap:square;stroke-width:1.5;"/>
   </g>
   <g id="line2d_30">
    <path clip-path="url(#p06433e1eba)" d="M 144.578425 39.648624 
L 163.624825 39.648624 
" style="fill:none;stroke:#3d3d3d;stroke-linecap:square;stroke-width:1.5;"/>
   </g>
   <g id="line2d_31">
    <path clip-path="url(#p06433e1eba)" d="M 168.386425 39.648624 
L 187.432825 39.648624 
" style="fill:none;stroke:#3d3d3d;stroke-linecap:square;stroke-width:1.5;"/>
   </g>
   <g id="line2d_32">
    <path clip-path="url(#p06433e1eba)" d="M 192.194425 39.648624 
L 211.240825 39.648624 
" style="fill:none;stroke:#3d3d3d;stroke-linecap:square;stroke-width:1.5;"/>
   </g>
   <g id="line2d_33">
    <path clip-path="url(#p06433e1eba)" d="M 216.002425 39.648624 
L 235.048825 39.648624 
" style="fill:none;stroke:#3d3d3d;stroke-linecap:square;stroke-width:1.5;"/>
   </g>
   <g id="line2d_34">
    <path clip-path="url(#p06433e1eba)" d="M 239.810425 39.648624 
L 258.856825 39.648624 
" style="fill:none;stroke:#3d3d3d;stroke-linecap:square;stroke-width:1.5;"/>
   </g>
   <g id="line2d_35">
    <path clip-path="url(#p06433e1eba)" d="M 263.618425 39.648624 
L 282.664825 39.648624 
" style="fill:none;stroke:#3d3d3d;stroke-linecap:square;stroke-width:1.5;"/>
   </g>
   <g id="line2d_36">
    <path clip-path="url(#p06433e1eba)" d="M 296.949625 39.648624 
L 296.949625 39.648624 
" style="fill:none;stroke:#3d3d3d;stroke-linecap:square;stroke-width:1.5;"/>
   </g>
   <g id="line2d_37">
    <path clip-path="url(#p06433e1eba)" d="M 296.949625 39.648624 
L 296.949625 39.648624 
" style="fill:none;stroke:#3d3d3d;stroke-linecap:square;stroke-width:4.5;"/>
   </g>
   <g id="line2d_38">
    <path clip-path="url(#p06433e1eba)" d="M 311.234425 39.648624 
L 330.280825 39.648624 
" style="fill:none;stroke:#3d3d3d;stroke-linecap:square;stroke-width:1.5;"/>
   </g>
   <g id="line2d_39">
    <path clip-path="url(#p06433e1eba)" d="M 335.042425 39.648624 
L 354.088825 39.648624 
" style="fill:none;stroke:#3d3d3d;stroke-linecap:square;stroke-width:1.5;"/>
   </g>
   <g id="line2d_40">
    <path clip-path="url(#p06433e1eba)" d="M 368.373625 85.541901 
L 368.373625 52.396756 
" style="fill:none;stroke:#3d3d3d;stroke-linecap:square;stroke-width:1.5;"/>
   </g>
   <g id="line2d_41">
    <path clip-path="url(#p06433e1eba)" d="M 368.373625 72.793768 
L 368.373625 54.946383 
" style="fill:none;stroke:#3d3d3d;stroke-linecap:square;stroke-width:4.5;"/>
   </g>
   <g id="line2d_42">
    <path clip-path="url(#p06433e1eba)" d="M 392.181625 244.893558 
L 392.181625 174.778829 
" style="fill:none;stroke:#3d3d3d;stroke-linecap:square;stroke-width:1.5;"/>
   </g>
   <g id="line2d_43">
    <path clip-path="url(#p06433e1eba)" d="M 392.181625 217.803776 
L 392.181625 187.845665 
" style="fill:none;stroke:#3d3d3d;stroke-linecap:square;stroke-width:4.5;"/>
   </g>
   <g id="patch_3">
    <path d="M 46.965625 280.588329 
L 46.965625 25.625678 
" style="fill:none;stroke:#000000;stroke-linecap:square;stroke-linejoin:miter;stroke-width:0.8;"/>
   </g>
   <g id="patch_4">
    <path d="M 58.869625 288.430125 
L 392.181625 288.430125 
" style="fill:none;stroke:#000000;stroke-linecap:square;stroke-linejoin:miter;stroke-width:0.8;"/>
   </g>
   <g id="PathCollection_1">
    <defs>
     <path d="M 0 1.5 
C 0.397805 1.5 0.77937 1.341951 1.06066 1.06066 
C 1.341951 0.77937 1.5 0.397805 1.5 0 
C 1.5 -0.397805 1.341951 -0.77937 1.06066 -1.06066 
C 0.77937 -1.341951 0.397805 -1.5 0 -1.5 
C -0.397805 -1.5 -0.77937 -1.341951 -1.06066 -1.06066 
C -1.341951 -0.77937 -1.5 -0.397805 -1.5 0 
C -1.5 0.397805 -1.341951 0.77937 -1.06066 1.06066 
C -0.77937 1.341951 -0.397805 1.5 0 1.5 
z
" id="m82e3498bea" style="stroke:#3d3d3d;"/>
    </defs>
    <g clip-path="url(#p06433e1eba)">
     <use style="fill:#ffffff;stroke:#3d3d3d;" x="106.485625" xlink:href="#m82e3498bea" y="38.373811"/>
    </g>
   </g>
   <g id="PathCollection_2">
    <g clip-path="url(#p06433e1eba)">
     <use style="fill:#ffffff;stroke:#3d3d3d;" x="296.949625" xlink:href="#m82e3498bea" y="39.648624"/>
    </g>
   </g>
   <g id="PathCollection_3">
    <g clip-path="url(#p06433e1eba)">
     <use style="fill:#ffffff;stroke:#3d3d3d;" x="368.373625" xlink:href="#m82e3498bea" y="62.595262"/>
    </g>
   </g>
   <g id="PathCollection_4">
    <g clip-path="url(#p06433e1eba)">
     <use style="fill:#ffffff;stroke:#3d3d3d;" x="392.181625" xlink:href="#m82e3498bea" y="211.111007"/>
    </g>
   </g>
   <g id="text_27">
    <!-- jsoncpp_jsoncpp_fuzzer (23h, 13 trials/fuzzer) -->
    <defs>
     <path d="M 9.421875 54.6875 
L 18.40625 54.6875 
L 18.40625 -0.984375 
Q 18.40625 -11.421875 14.421875 -16.109375 
Q 10.453125 -20.796875 1.609375 -20.796875 
L -1.8125 -20.796875 
L -1.8125 -13.1875 
L 0.59375 -13.1875 
Q 5.71875 -13.1875 7.5625 -10.8125 
Q 9.421875 -8.453125 9.421875 -0.984375 
z
M 9.421875 75.984375 
L 18.40625 75.984375 
L 18.40625 64.59375 
L 9.421875 64.59375 
z
" id="DejaVuSans-106"/>
     <path d="M 40.578125 39.3125 
Q 47.65625 37.796875 51.625 33 
Q 55.609375 28.21875 55.609375 21.1875 
Q 55.609375 10.40625 48.1875 4.484375 
Q 40.765625 -1.421875 27.09375 -1.421875 
Q 22.515625 -1.421875 17.65625 -0.515625 
Q 12.796875 0.390625 7.625 2.203125 
L 7.625 11.71875 
Q 11.71875 9.328125 16.59375 8.109375 
Q 21.484375 6.890625 26.8125 6.890625 
Q 36.078125 6.890625 40.9375 10.546875 
Q 45.796875 14.203125 45.796875 21.1875 
Q 45.796875 27.640625 41.28125 31.265625 
Q 36.765625 34.90625 28.71875 34.90625 
L 20.21875 34.90625 
L 20.21875 43.015625 
L 29.109375 43.015625 
Q 36.375 43.015625 40.234375 45.921875 
Q 44.09375 48.828125 44.09375 54.296875 
Q 44.09375 59.90625 40.109375 62.90625 
Q 36.140625 65.921875 28.71875 65.921875 
Q 24.65625 65.921875 20.015625 65.03125 
Q 15.375 64.15625 9.8125 62.3125 
L 9.8125 71.09375 
Q 15.4375 72.65625 20.34375 73.4375 
Q 25.25 74.21875 29.59375 74.21875 
Q 40.828125 74.21875 47.359375 69.109375 
Q 53.90625 64.015625 53.90625 55.328125 
Q 53.90625 49.265625 50.4375 45.09375 
Q 46.96875 40.921875 40.578125 39.3125 
z
" id="DejaVuSans-51"/>
     <path d="M 11.71875 12.40625 
L 22.015625 12.40625 
L 22.015625 4 
L 14.015625 -11.625 
L 7.71875 -11.625 
L 11.71875 4 
z
" id="DejaVuSans-44"/>
     <path d="M 12.40625 8.296875 
L 28.515625 8.296875 
L 28.515625 63.921875 
L 10.984375 60.40625 
L 10.984375 69.390625 
L 28.421875 72.90625 
L 38.28125 72.90625 
L 38.28125 8.296875 
L 54.390625 8.296875 
L 54.390625 0 
L 12.40625 0 
z
" id="DejaVuSans-49"/>
     <path d="M 25.390625 72.90625 
L 33.6875 72.90625 
L 8.296875 -9.28125 
L 0 -9.28125 
z
" id="DejaVuSans-47"/>
    </defs>
    <g transform="translate(88.058125 16.318125)scale(0.12 -0.12)">
     <use xlink:href="#DejaVuSans-106"/>
     <use x="27.783203" xlink:href="#DejaVuSans-115"/>
     <use x="79.882812" xlink:href="#DejaVuSans-111"/>
     <use x="141.064453" xlink:href="#DejaVuSans-110"/>
     <use x="204.443359" xlink:href="#DejaVuSans-99"/>
     <use x="259.423828" xlink:href="#DejaVuSans-112"/>
     <use x="322.900391" xlink:href="#DejaVuSans-112"/>
     <use x="386.376953" xlink:href="#DejaVuSans-95"/>
     <use x="436.376953" xlink:href="#DejaVuSans-106"/>
     <use x="464.160156" xlink:href="#DejaVuSans-115"/>
     <use x="516.259766" xlink:href="#DejaVuSans-111"/>
     <use x="577.441406" xlink:href="#DejaVuSans-110"/>
     <use x="640.820312" xlink:href="#DejaVuSans-99"/>
     <use x="695.800781" xlink:href="#DejaVuSans-112"/>
     <use x="759.277344" xlink:href="#DejaVuSans-112"/>
     <use x="822.753906" xlink:href="#DejaVuSans-95"/>
     <use x="872.753906" xlink:href="#DejaVuSans-102"/>
     <use x="907.958984" xlink:href="#DejaVuSans-117"/>
     <use x="971.337891" xlink:href="#DejaVuSans-122"/>
     <use x="1023.828125" xlink:href="#DejaVuSans-122"/>
     <use x="1076.318359" xlink:href="#DejaVuSans-101"/>
     <use x="1137.841797" xlink:href="#DejaVuSans-114"/>
     <use x="1178.955078" xlink:href="#DejaVuSans-32"/>
     <use x="1210.742188" xlink:href="#DejaVuSans-40"/>
     <use x="1249.755859" xlink:href="#DejaVuSans-50"/>
     <use x="1313.378906" xlink:href="#DejaVuSans-51"/>
     <use x="1377.001953" xlink:href="#DejaVuSans-104"/>
     <use x="1440.380859" xlink:href="#DejaVuSans-44"/>
     <use x="1472.167969" xlink:href="#DejaVuSans-32"/>
     <use x="1503.955078" xlink:href="#DejaVuSans-49"/>
     <use x="1567.578125" xlink:href="#DejaVuSans-51"/>
     <use x="1631.201172" xlink:href="#DejaVuSans-32"/>
     <use x="1662.988281" xlink:href="#DejaVuSans-116"/>
     <use x="1702.197266" xlink:href="#DejaVuSans-114"/>
     <use x="1743.310547" xlink:href="#DejaVuSans-105"/>
     <use x="1771.09375" xlink:href="#DejaVuSans-97"/>
     <use x="1832.373047" xlink:href="#DejaVuSans-108"/>
     <use x="1860.15625" xlink:href="#DejaVuSans-115"/>
     <use x="1912.255859" xlink:href="#DejaVuSans-47"/>
     <use x="1945.947266" xlink:href="#DejaVuSans-102"/>
     <use x="1981.152344" xlink:href="#DejaVuSans-117"/>
     <use x="2044.53125" xlink:href="#DejaVuSans-122"/>
     <use x="2097.021484" xlink:href="#DejaVuSans-122"/>
     <use x="2149.511719" xlink:href="#DejaVuSans-101"/>
     <use x="2211.035156" xlink:href="#DejaVuSans-114"/>
     <use x="2252.148438" xlink:href="#DejaVuSans-41"/>
    </g>
   </g>
  </g>
 </g>
 <defs>
  <clipPath id="p06433e1eba">
   <rect height="266.112" width="357.12" x="46.965625" y="22.318125"/>
  </clipPath>
 </defs>
</svg>
