<?xml version="1.0" encoding="utf-8" standalone="no"?>
<!DOCTYPE svg PUBLIC "-//W3C//DTD SVG 1.1//EN"
  "http://www.w3.org/Graphics/SVG/1.1/DTD/svg11.dtd">
<!-- Created with matplotlib (https://matplotlib.org/) -->
<svg height="373.223584pt" version="1.1" viewBox="0 0 411.285625 373.223584" width="411.285625pt" xmlns="http://www.w3.org/2000/svg" xmlns:xlink="http://www.w3.org/1999/xlink">
 <defs>
  <style type="text/css">
*{stroke-linecap:butt;stroke-linejoin:round;}
  </style>
 </defs>
 <g id="figure_1">
  <g id="patch_1">
   <path d="M 0 373.223584 
L 411.285625 373.223584 
L 411.285625 -0 
L 0 -0 
z
" style="fill:#ffffff;"/>
  </g>
  <g id="axes_1">
   <g id="patch_2">
    <path d="M 46.965625 288.430125 
L 404.085625 288.430125 
L 404.085625 22.318125 
L 46.965625 22.318125 
z
" style="fill:#ffffff;"/>
   </g>
   <g id="PolyCollection_1">
    <defs>
     <path d="M 58.951751 -288.473993 
L 58.787499 -288.473993 
L 58.767762 -288.501244 
L 58.744823 -288.528495 
L 58.718581 -288.555747 
L 58.689051 -288.582998 
L 58.656378 -288.61025 
L 58.620865 -288.637501 
L 58.582974 -288.664753 
L 58.543339 -288.692004 
L 58.502752 -288.719255 
L 58.462145 -288.746507 
L 58.42256 -288.773758 
L 58.38511 -288.80101 
L 58.350924 -288.828261 
L 58.321095 -288.855512 
L 58.296623 -288.882764 
L 58.278356 -288.910015 
L 58.266945 -288.937267 
L 58.262803 -288.964518 
L 58.26608 -288.99177 
L 58.276658 -289.019021 
L 58.294153 -289.046272 
L 58.317941 -289.073524 
L 58.347192 -289.100775 
L 58.380924 -289.128027 
L 58.418051 -289.155278 
L 58.457444 -289.182529 
L 58.497988 -289.209781 
L 58.538628 -289.237032 
L 58.578418 -289.264284 
L 58.616547 -289.291535 
L 58.652365 -289.318787 
L 58.685386 -289.346038 
L 58.715291 -289.373289 
L 58.741915 -289.400541 
L 58.765227 -289.427792 
L 58.785314 -289.455044 
L 58.802347 -289.482295 
L 58.816561 -289.509546 
L 58.828228 -289.536798 
L 58.837634 -289.564049 
L 58.845056 -289.591301 
L 58.850748 -289.618552 
L 58.854921 -289.645804 
L 58.857728 -289.673055 
L 58.85925 -289.700306 
L 58.859475 -289.727558 
L 58.858284 -289.754809 
L 58.855422 -289.782061 
L 58.850469 -289.809312 
L 58.842807 -289.836563 
L 58.831576 -289.863815 
L 58.815629 -289.891066 
L 58.793484 -289.918318 
L 58.76327 -289.945569 
L 58.722688 -289.972821 
L 58.668977 -290.000072 
L 58.598898 -290.027323 
L 58.508749 -290.054575 
L 58.394418 -290.081826 
L 58.251478 -290.109078 
L 58.075334 -290.136329 
L 57.861434 -290.16358 
L 57.605528 -290.190832 
L 57.303987 -290.218083 
L 56.954154 -290.245335 
L 56.554721 -290.272586 
L 56.1061 -290.299837 
L 55.610757 -290.327089 
L 55.073476 -290.35434 
L 54.501525 -290.381592 
L 53.904674 -290.408843 
L 53.295068 -290.436095 
L 52.686918 -290.463346 
L 52.096017 -290.490597 
L 51.539112 -290.517849 
L 51.033134 -290.5451 
L 50.59436 -290.572352 
L 50.23755 -290.599603 
L 49.975127 -290.626854 
L 49.816455 -290.654106 
L 49.767288 -290.681357 
L 49.829424 -290.708609 
L 50.000592 -290.73586 
L 50.274594 -290.763112 
L 50.641676 -290.790363 
L 51.089103 -290.817614 
L 51.601894 -290.844866 
L 52.16365 -290.872117 
L 52.757418 -290.899369 
L 53.366529 -290.92662 
L 53.975341 -290.953871 
L 54.569865 -290.981123 
L 55.138221 -291.008374 
L 55.670927 -291.035626 
L 56.16101 -291.062877 
L 56.603968 -291.090129 
L 56.997589 -291.11738 
L 57.341682 -291.144631 
L 57.637732 -291.171883 
L 60.101518 -291.171883 
L 60.101518 -291.171883 
L 60.397568 -291.144631 
L 60.741661 -291.11738 
L 61.135282 -291.090129 
L 61.57824 -291.062877 
L 62.068323 -291.035626 
L 62.601029 -291.008374 
L 63.169385 -290.981123 
L 63.763909 -290.953871 
L 64.372721 -290.92662 
L 64.981832 -290.899369 
L 65.5756 -290.872117 
L 66.137356 -290.844866 
L 66.650147 -290.817614 
L 67.097574 -290.790363 
L 67.464656 -290.763112 
L 67.738658 -290.73586 
L 67.909826 -290.708609 
L 67.971962 -290.681357 
L 67.922795 -290.654106 
L 67.764123 -290.626854 
L 67.5017 -290.599603 
L 67.14489 -290.572352 
L 66.706116 -290.5451 
L 66.200138 -290.517849 
L 65.643233 -290.490597 
L 65.052332 -290.463346 
L 64.444182 -290.436095 
L 63.834576 -290.408843 
L 63.237725 -290.381592 
L 62.665774 -290.35434 
L 62.128493 -290.327089 
L 61.63315 -290.299837 
L 61.184529 -290.272586 
L 60.785096 -290.245335 
L 60.435263 -290.218083 
L 60.133722 -290.190832 
L 59.877816 -290.16358 
L 59.663916 -290.136329 
L 59.487772 -290.109078 
L 59.344832 -290.081826 
L 59.230501 -290.054575 
L 59.140352 -290.027323 
L 59.070273 -290.000072 
L 59.016562 -289.972821 
L 58.97598 -289.945569 
L 58.945766 -289.918318 
L 58.923621 -289.891066 
L 58.907674 -289.863815 
L 58.896443 -289.836563 
L 58.888781 -289.809312 
L 58.883828 -289.782061 
L 58.880966 -289.754809 
L 58.879775 -289.727558 
L 58.88 -289.700306 
L 58.881522 -289.673055 
L 58.884329 -289.645804 
L 58.888502 -289.618552 
L 58.894194 -289.591301 
L 58.901616 -289.564049 
L 58.911022 -289.536798 
L 58.922689 -289.509546 
L 58.936903 -289.482295 
L 58.953936 -289.455044 
L 58.974023 -289.427792 
L 58.997335 -289.400541 
L 59.023959 -289.373289 
L 59.053864 -289.346038 
L 59.086885 -289.318787 
L 59.122703 -289.291535 
L 59.160832 -289.264284 
L 59.200622 -289.237032 
L 59.241262 -289.209781 
L 59.281806 -289.182529 
L 59.321199 -289.155278 
L 59.358326 -289.128027 
L 59.392058 -289.100775 
L 59.421309 -289.073524 
L 59.445097 -289.046272 
L 59.462592 -289.019021 
L 59.47317 -288.99177 
L 59.476447 -288.964518 
L 59.472305 -288.937267 
L 59.460894 -288.910015 
L 59.442627 -288.882764 
L 59.418155 -288.855512 
L 59.388326 -288.828261 
L 59.35414 -288.80101 
L 59.31669 -288.773758 
L 59.277105 -288.746507 
L 59.236498 -288.719255 
L 59.195911 -288.692004 
L 59.156276 -288.664753 
L 59.118385 -288.637501 
L 59.082872 -288.61025 
L 59.050199 -288.582998 
L 59.020669 -288.555747 
L 58.994427 -288.528495 
L 58.971488 -288.501244 
L 58.951751 -288.473993 
z
" id="m2d92d60fc4" style="stroke:#3d3d3d;stroke-width:1.5;"/>
    </defs>
    <g clip-path="url(#p82219f09f5)">
     <use style="fill:#7f7f7f;stroke:#3d3d3d;stroke-width:1.5;" x="0" xlink:href="#m2d92d60fc4" y="373.223584"/>
    </g>
   </g>
   <g id="PolyCollection_2">
    <defs>
     <path d="M 201.798271 -288.49444 
L 201.636979 -288.49444 
L 201.617021 -288.521278 
L 201.593738 -288.548117 
L 201.567029 -288.574955 
L 201.536919 -288.601793 
L 201.503578 -288.628632 
L 201.467347 -288.65547 
L 201.42875 -288.682308 
L 201.388491 -288.709147 
L 201.347446 -288.735985 
L 201.30664 -288.762823 
L 201.267206 -288.789662 
L 201.230341 -288.8165 
L 201.197242 -288.843338 
L 201.169045 -288.870177 
L 201.146761 -288.897015 
L 201.131216 -288.923853 
L 201.122999 -288.950692 
L 201.122425 -288.97753 
L 201.129516 -289.004368 
L 201.144 -289.031207 
L 201.165327 -289.058045 
L 201.192703 -289.084883 
L 201.225141 -289.111722 
L 201.26152 -289.13856 
L 201.300647 -289.165398 
L 201.341323 -289.192237 
L 201.3824 -289.219075 
L 201.422836 -289.245913 
L 201.46173 -289.272752 
L 201.498351 -289.29959 
L 201.532148 -289.326428 
L 201.562754 -289.353267 
L 201.589973 -289.380105 
L 201.613761 -289.406943 
L 201.6342 -289.433782 
L 201.651475 -289.46062 
L 201.665839 -289.487458 
L 201.677591 -289.514297 
L 201.687048 -289.541135 
L 201.694526 -289.567973 
L 201.700324 -289.594812 
L 201.704705 -289.62165 
L 201.707892 -289.648489 
L 201.71005 -289.675327 
L 201.711285 -289.702165 
L 201.711623 -289.729004 
L 201.711005 -289.755842 
L 201.709264 -289.78268 
L 201.706098 -289.809519 
L 201.701042 -289.836357 
L 201.693427 -289.863195 
L 201.682328 -289.890034 
L 201.666515 -289.916872 
L 201.644389 -289.94371 
L 201.613921 -289.970549 
L 201.572598 -289.997387 
L 201.517376 -290.024225 
L 201.444661 -290.051064 
L 201.350313 -290.077902 
L 201.229706 -290.10474 
L 201.077833 -290.131579 
L 200.889479 -290.158417 
L 200.659466 -290.185255 
L 200.382963 -290.212094 
L 200.055869 -290.238932 
L 199.675234 -290.26577 
L 199.239712 -290.292609 
L 198.750001 -290.319447 
L 198.20924 -290.346285 
L 197.623311 -290.373124 
L 197.001007 -290.399962 
L 196.354032 -290.4268 
L 195.696793 -290.453639 
L 195.045982 -290.480477 
L 194.419948 -290.507315 
L 193.837882 -290.534154 
L 193.318867 -290.560992 
L 192.880853 -290.58783 
L 192.53963 -290.614669 
L 192.307886 -290.641507 
L 192.194425 -290.668345 
L 192.20361 -290.695184 
L 192.335088 -290.722022 
L 192.583806 -290.74886 
L 192.940343 -290.775699 
L 193.391494 -290.802537 
L 193.921082 -290.829376 
L 194.510925 -290.856214 
L 195.141858 -290.883052 
L 195.794758 -290.909891 
L 196.451476 -290.936729 
L 197.095626 -290.963567 
L 197.713182 -290.990406 
L 198.292866 -291.017244 
L 198.826323 -291.044082 
L 199.308094 -291.070921 
L 199.735427 -291.097759 
L 200.107953 -291.124597 
L 200.427288 -291.151436 
L 203.007962 -291.151436 
L 203.007962 -291.151436 
L 203.327297 -291.124597 
L 203.699823 -291.097759 
L 204.127156 -291.070921 
L 204.608927 -291.044082 
L 205.142384 -291.017244 
L 205.722068 -290.990406 
L 206.339624 -290.963567 
L 206.983774 -290.936729 
L 207.640492 -290.909891 
L 208.293392 -290.883052 
L 208.924325 -290.856214 
L 209.514168 -290.829376 
L 210.043756 -290.802537 
L 210.494907 -290.775699 
L 210.851444 -290.74886 
L 211.100162 -290.722022 
L 211.23164 -290.695184 
L 211.240825 -290.668345 
L 211.127364 -290.641507 
L 210.89562 -290.614669 
L 210.554397 -290.58783 
L 210.116383 -290.560992 
L 209.597368 -290.534154 
L 209.015302 -290.507315 
L 208.389268 -290.480477 
L 207.738457 -290.453639 
L 207.081218 -290.4268 
L 206.434243 -290.399962 
L 205.811939 -290.373124 
L 205.22601 -290.346285 
L 204.685249 -290.319447 
L 204.195538 -290.292609 
L 203.760016 -290.26577 
L 203.379381 -290.238932 
L 203.052287 -290.212094 
L 202.775784 -290.185255 
L 202.545771 -290.158417 
L 202.357417 -290.131579 
L 202.205544 -290.10474 
L 202.084937 -290.077902 
L 201.990589 -290.051064 
L 201.917874 -290.024225 
L 201.862652 -289.997387 
L 201.821329 -289.970549 
L 201.790861 -289.94371 
L 201.768735 -289.916872 
L 201.752922 -289.890034 
L 201.741823 -289.863195 
L 201.734208 -289.836357 
L 201.729152 -289.809519 
L 201.725986 -289.78268 
L 201.724245 -289.755842 
L 201.723627 -289.729004 
L 201.723965 -289.702165 
L 201.7252 -289.675327 
L 201.727358 -289.648489 
L 201.730545 -289.62165 
L 201.734926 -289.594812 
L 201.740724 -289.567973 
L 201.748202 -289.541135 
L 201.757659 -289.514297 
L 201.769411 -289.487458 
L 201.783775 -289.46062 
L 201.80105 -289.433782 
L 201.821489 -289.406943 
L 201.845277 -289.380105 
L 201.872496 -289.353267 
L 201.903102 -289.326428 
L 201.936899 -289.29959 
L 201.97352 -289.272752 
L 202.012414 -289.245913 
L 202.05285 -289.219075 
L 202.093927 -289.192237 
L 202.134603 -289.165398 
L 202.17373 -289.13856 
L 202.210109 -289.111722 
L 202.242547 -289.084883 
L 202.269923 -289.058045 
L 202.29125 -289.031207 
L 202.305734 -289.004368 
L 202.312825 -288.97753 
L 202.312251 -288.950692 
L 202.304034 -288.923853 
L 202.288489 -288.897015 
L 202.266205 -288.870177 
L 202.238008 -288.843338 
L 202.204909 -288.8165 
L 202.168044 -288.789662 
L 202.12861 -288.762823 
L 202.087804 -288.735985 
L 202.046759 -288.709147 
L 202.0065 -288.682308 
L 201.967903 -288.65547 
L 201.931672 -288.628632 
L 201.898331 -288.601793 
L 201.868221 -288.574955 
L 201.841512 -288.548117 
L 201.818229 -288.521278 
L 201.798271 -288.49444 
z
" id="me394945350" style="stroke:#3d3d3d;stroke-width:1.5;"/>
    </defs>
    <g clip-path="url(#p82219f09f5)">
     <use style="fill:#e1812c;stroke:#3d3d3d;stroke-width:1.5;" x="0" xlink:href="#me394945350" y="373.223584"/>
    </g>
   </g>
   <g id="PolyCollection_3">
    <defs>
     <path d="M 320.79233 -269.776558 
L 320.72292 -269.776558 
L 320.717161 -269.991129 
L 320.710734 -270.2057 
L 320.703618 -270.420272 
L 320.695802 -270.634843 
L 320.687289 -270.849414 
L 320.678092 -271.063986 
L 320.668242 -271.278557 
L 320.657786 -271.493128 
L 320.646788 -271.7077 
L 320.635332 -271.922271 
L 320.623515 -272.136842 
L 320.611456 -272.351414 
L 320.599286 -272.565985 
L 320.587149 -272.780556 
L 320.575204 -272.995128 
L 320.563614 -273.209699 
L 320.552546 -273.424271 
L 320.542168 -273.638842 
L 320.532645 -273.853413 
L 320.524131 -274.067985 
L 320.516767 -274.282556 
L 320.510678 -274.497127 
L 320.505966 -274.711699 
L 320.502711 -274.92627 
L 320.500961 -275.140841 
L 320.50074 -275.355413 
L 320.502037 -275.569984 
L 320.504812 -275.784555 
L 320.508992 -275.999127 
L 320.514477 -276.213698 
L 320.521136 -276.428269 
L 320.528816 -276.642841 
L 320.537338 -276.857412 
L 320.546507 -277.071983 
L 320.556112 -277.286555 
L 320.565928 -277.501126 
L 320.575726 -277.715697 
L 320.585269 -277.930269 
L 320.594324 -278.14484 
L 320.602658 -278.359412 
L 320.610044 -278.573983 
L 320.616264 -278.788554 
L 320.621112 -279.003126 
L 320.624395 -279.217697 
L 320.625937 -279.432268 
L 320.625581 -279.64684 
L 320.623189 -279.861411 
L 320.618647 -280.075982 
L 320.611868 -280.290554 
L 320.602793 -280.505125 
L 320.591392 -280.719696 
L 320.57767 -280.934268 
L 320.561669 -281.148839 
L 320.543469 -281.36341 
L 320.523189 -281.577982 
L 320.500992 -281.792553 
L 320.477081 -282.007124 
L 320.451702 -282.221696 
L 320.425143 -282.436267 
L 320.397729 -282.650838 
L 320.369818 -282.86541 
L 320.341798 -283.079981 
L 320.31408 -283.294553 
L 320.287089 -283.509124 
L 320.261256 -283.723695 
L 320.237009 -283.938267 
L 320.214762 -284.152838 
L 320.194907 -284.367409 
L 320.1778 -284.581981 
L 320.163755 -284.796552 
L 320.153036 -285.011123 
L 320.145846 -285.225695 
L 320.142325 -285.440266 
L 320.142544 -285.654837 
L 320.146505 -285.869409 
L 320.154141 -286.08398 
L 320.165315 -286.298551 
L 320.17983 -286.513123 
L 320.197429 -286.727694 
L 320.21781 -286.942265 
L 320.240626 -287.156837 
L 320.265504 -287.371408 
L 320.292046 -287.58598 
L 320.319849 -287.800551 
L 320.348508 -288.015122 
L 320.377627 -288.229694 
L 320.406831 -288.444265 
L 320.43577 -288.658836 
L 320.464126 -288.873408 
L 320.491621 -289.087979 
L 320.518013 -289.30255 
L 320.543106 -289.517122 
L 320.566746 -289.731693 
L 320.588818 -289.946264 
L 320.609251 -290.160836 
L 320.628008 -290.375407 
L 320.645086 -290.589978 
L 320.660511 -290.80455 
L 320.674334 -291.019121 
L 320.840916 -291.019121 
L 320.840916 -291.019121 
L 320.854739 -290.80455 
L 320.870164 -290.589978 
L 320.887242 -290.375407 
L 320.905999 -290.160836 
L 320.926432 -289.946264 
L 320.948504 -289.731693 
L 320.972144 -289.517122 
L 320.997237 -289.30255 
L 321.023629 -289.087979 
L 321.051124 -288.873408 
L 321.07948 -288.658836 
L 321.108419 -288.444265 
L 321.137623 -288.229694 
L 321.166742 -288.015122 
L 321.195401 -287.800551 
L 321.223204 -287.58598 
L 321.249746 -287.371408 
L 321.274624 -287.156837 
L 321.29744 -286.942265 
L 321.317821 -286.727694 
L 321.33542 -286.513123 
L 321.349935 -286.298551 
L 321.361109 -286.08398 
L 321.368745 -285.869409 
L 321.372706 -285.654837 
L 321.372925 -285.440266 
L 321.369404 -285.225695 
L 321.362214 -285.011123 
L 321.351495 -284.796552 
L 321.33745 -284.581981 
L 321.320343 -284.367409 
L 321.300488 -284.152838 
L 321.278241 -283.938267 
L 321.253994 -283.723695 
L 321.228161 -283.509124 
L 321.20117 -283.294553 
L 321.173452 -283.079981 
L 321.145432 -282.86541 
L 321.117521 -282.650838 
L 321.090107 -282.436267 
L 321.063548 -282.221696 
L 321.038169 -282.007124 
L 321.014258 -281.792553 
L 320.992061 -281.577982 
L 320.971781 -281.36341 
L 320.953581 -281.148839 
L 320.93758 -280.934268 
L 320.923858 -280.719696 
L 320.912457 -280.505125 
L 320.903382 -280.290554 
L 320.896603 -280.075982 
L 320.892061 -279.861411 
L 320.889669 -279.64684 
L 320.889313 -279.432268 
L 320.890855 -279.217697 
L 320.894138 -279.003126 
L 320.898986 -278.788554 
L 320.905206 -278.573983 
L 320.912592 -278.359412 
L 320.920926 -278.14484 
L 320.929981 -277.930269 
L 320.939524 -277.715697 
L 320.949322 -277.501126 
L 320.959138 -277.286555 
L 320.968743 -277.071983 
L 320.977912 -276.857412 
L 320.986434 -276.642841 
L 320.994114 -276.428269 
L 321.000773 -276.213698 
L 321.006258 -275.999127 
L 321.010438 -275.784555 
L 321.013213 -275.569984 
L 321.01451 -275.355413 
L 321.014289 -275.140841 
L 321.012539 -274.92627 
L 321.009284 -274.711699 
L 321.004572 -274.497127 
L 320.998483 -274.282556 
L 320.991119 -274.067985 
L 320.982605 -273.853413 
L 320.973082 -273.638842 
L 320.962704 -273.424271 
L 320.951636 -273.209699 
L 320.940046 -272.995128 
L 320.928101 -272.780556 
L 320.915964 -272.565985 
L 320.903794 -272.351414 
L 320.891735 -272.136842 
L 320.879918 -271.922271 
L 320.868462 -271.7077 
L 320.857464 -271.493128 
L 320.847008 -271.278557 
L 320.837158 -271.063986 
L 320.827961 -270.849414 
L 320.819448 -270.634843 
L 320.811632 -270.420272 
L 320.804516 -270.2057 
L 320.798089 -269.991129 
L 320.79233 -269.776558 
z
" id="ma4271f70f7" style="stroke:#3d3d3d;stroke-width:1.5;"/>
    </defs>
    <g clip-path="url(#p82219f09f5)">
     <use style="fill:#c03d3e;stroke:#3d3d3d;stroke-width:1.5;" x="0" xlink:href="#ma4271f70f7" y="373.223584"/>
    </g>
   </g>
   <g id="PolyCollection_4">
    <defs>
     <path d="M 344.568862 -243.671569 
L 344.562388 -243.671569 
L 344.561693 -244.275037 
L 344.560886 -244.878505 
L 344.559958 -245.481973 
L 344.558899 -246.08544 
L 344.5577 -246.688908 
L 344.556356 -247.292376 
L 344.554859 -247.895843 
L 344.553207 -248.499311 
L 344.551395 -249.102779 
L 344.549423 -249.706247 
L 344.54729 -250.309714 
L 344.544998 -250.913182 
L 344.54255 -251.51665 
L 344.539948 -252.120118 
L 344.537197 -252.723585 
L 344.534302 -253.327053 
L 344.531268 -253.930521 
L 344.5281 -254.533989 
L 344.524806 -255.137456 
L 344.521393 -255.740924 
L 344.51787 -256.344392 
L 344.514246 -256.94786 
L 344.510535 -257.551327 
L 344.50675 -258.154795 
L 344.502911 -258.758263 
L 344.499037 -259.361731 
L 344.495151 -259.965198 
L 344.49128 -260.568666 
L 344.487452 -261.172134 
L 344.483694 -261.775601 
L 344.480035 -262.379069 
L 344.476503 -262.982537 
L 344.473121 -263.586005 
L 344.469909 -264.189472 
L 344.466879 -264.79294 
L 344.464037 -265.396408 
L 344.461382 -265.999876 
L 344.458902 -266.603343 
L 344.456579 -267.206811 
L 344.454385 -267.810279 
L 344.45229 -268.413747 
L 344.450254 -269.017214 
L 344.44824 -269.620682 
L 344.446209 -270.22415 
L 344.444124 -270.827618 
L 344.441954 -271.431085 
L 344.439675 -272.034553 
L 344.437272 -272.638021 
L 344.434738 -273.241488 
L 344.432076 -273.844956 
L 344.429297 -274.448424 
L 344.426419 -275.051892 
L 344.423466 -275.655359 
L 344.420464 -276.258827 
L 344.41744 -276.862295 
L 344.414418 -277.465763 
L 344.411421 -278.06923 
L 344.408465 -278.672698 
L 344.405562 -279.276166 
L 344.40272 -279.879634 
L 344.399943 -280.483101 
L 344.397234 -281.086569 
L 344.394597 -281.690037 
L 344.392042 -282.293505 
L 344.389584 -282.896972 
L 344.387249 -283.50044 
L 344.385077 -284.103908 
L 344.383117 -284.707375 
L 344.381433 -285.310843 
L 344.3801 -285.914311 
L 344.379203 -286.517779 
L 344.37883 -287.121246 
L 344.379074 -287.724714 
L 344.380019 -288.328182 
L 344.381743 -288.93165 
L 344.384309 -289.535117 
L 344.387759 -290.138585 
L 344.392114 -290.742053 
L 344.39737 -291.345521 
L 344.403494 -291.948988 
L 344.410431 -292.552456 
L 344.418096 -293.155924 
L 344.426389 -293.759392 
L 344.435186 -294.362859 
L 344.444355 -294.966327 
L 344.453754 -295.569795 
L 344.463243 -296.173262 
L 344.47268 -296.77673 
L 344.481936 -297.380198 
L 344.490893 -297.983666 
L 344.499448 -298.587133 
L 344.507517 -299.190601 
L 344.515034 -299.794069 
L 344.521955 -300.397537 
L 344.528253 -301.001004 
L 344.533918 -301.604472 
L 344.538958 -302.20794 
L 344.543391 -302.811408 
L 344.547248 -303.414875 
L 344.584002 -303.414875 
L 344.584002 -303.414875 
L 344.587859 -302.811408 
L 344.592292 -302.20794 
L 344.597332 -301.604472 
L 344.602997 -301.001004 
L 344.609295 -300.397537 
L 344.616216 -299.794069 
L 344.623733 -299.190601 
L 344.631802 -298.587133 
L 344.640357 -297.983666 
L 344.649314 -297.380198 
L 344.65857 -296.77673 
L 344.668007 -296.173262 
L 344.677496 -295.569795 
L 344.686895 -294.966327 
L 344.696064 -294.362859 
L 344.704861 -293.759392 
L 344.713154 -293.155924 
L 344.720819 -292.552456 
L 344.727756 -291.948988 
L 344.73388 -291.345521 
L 344.739136 -290.742053 
L 344.743491 -290.138585 
L 344.746941 -289.535117 
L 344.749507 -288.93165 
L 344.751231 -288.328182 
L 344.752176 -287.724714 
L 344.75242 -287.121246 
L 344.752047 -286.517779 
L 344.75115 -285.914311 
L 344.749817 -285.310843 
L 344.748133 -284.707375 
L 344.746173 -284.103908 
L 344.744001 -283.50044 
L 344.741666 -282.896972 
L 344.739208 -282.293505 
L 344.736653 -281.690037 
L 344.734016 -281.086569 
L 344.731307 -280.483101 
L 344.72853 -279.879634 
L 344.725688 -279.276166 
L 344.722785 -278.672698 
L 344.719829 -278.06923 
L 344.716832 -277.465763 
L 344.71381 -276.862295 
L 344.710786 -276.258827 
L 344.707784 -275.655359 
L 344.704831 -275.051892 
L 344.701953 -274.448424 
L 344.699174 -273.844956 
L 344.696512 -273.241488 
L 344.693978 -272.638021 
L 344.691575 -272.034553 
L 344.689296 -271.431085 
L 344.687126 -270.827618 
L 344.685041 -270.22415 
L 344.68301 -269.620682 
L 344.680996 -269.017214 
L 344.67896 -268.413747 
L 344.676865 -267.810279 
L 344.674671 -267.206811 
L 344.672348 -266.603343 
L 344.669868 -265.999876 
L 344.667213 -265.396408 
L 344.664371 -264.79294 
L 344.661341 -264.189472 
L 344.658129 -263.586005 
L 344.654747 -262.982537 
L 344.651215 -262.379069 
L 344.647556 -261.775601 
L 344.643798 -261.172134 
L 344.63997 -260.568666 
L 344.636099 -259.965198 
L 344.632213 -259.361731 
L 344.628339 -258.758263 
L 344.6245 -258.154795 
L 344.620715 -257.551327 
L 344.617004 -256.94786 
L 344.61338 -256.344392 
L 344.609857 -255.740924 
L 344.606444 -255.137456 
L 344.60315 -254.533989 
L 344.599982 -253.930521 
L 344.596948 -253.327053 
L 344.594053 -252.723585 
L 344.591302 -252.120118 
L 344.5887 -251.51665 
L 344.586252 -250.913182 
L 344.58396 -250.309714 
L 344.581827 -249.706247 
L 344.579855 -249.102779 
L 344.578043 -248.499311 
L 344.576391 -247.895843 
L 344.574894 -247.292376 
L 344.57355 -246.688908 
L 344.572351 -246.08544 
L 344.571292 -245.481973 
L 344.570364 -244.878505 
L 344.569557 -244.275037 
L 344.568862 -243.671569 
z
" id="med12f3f1ca" style="stroke:#3d3d3d;stroke-width:1.5;"/>
    </defs>
    <g clip-path="url(#p82219f09f5)">
     <use style="fill:#9372b2;stroke:#3d3d3d;stroke-width:1.5;" x="0" xlink:href="#med12f3f1ca" y="373.223584"/>
    </g>
   </g>
   <g id="PolyCollection_5">
    <defs>
     <path d="M 368.381417 -239.515933 
L 368.365833 -239.515933 
L 368.36402 -240.168734 
L 368.361892 -240.821534 
L 368.35942 -241.474335 
L 368.356579 -242.127136 
L 368.353351 -242.779937 
L 368.349723 -243.432737 
L 368.345691 -244.085538 
L 368.341263 -244.738339 
L 368.336456 -245.391139 
L 368.331299 -246.04394 
L 368.325834 -246.696741 
L 368.320116 -247.349542 
L 368.314208 -248.002342 
L 368.308185 -248.655143 
L 368.302127 -249.307944 
L 368.29612 -249.960744 
L 368.29025 -250.613545 
L 368.284603 -251.266346 
L 368.279256 -251.919146 
L 368.274281 -252.571947 
L 368.269736 -253.224748 
L 368.265662 -253.877549 
L 368.262089 -254.530349 
L 368.259026 -255.18315 
L 368.256465 -255.835951 
L 368.254383 -256.488751 
L 368.252741 -257.141552 
L 368.251486 -257.794353 
L 368.250556 -258.447154 
L 368.249884 -259.099954 
L 368.249397 -259.752755 
L 368.249023 -260.405556 
L 368.248692 -261.058356 
L 368.248341 -261.711157 
L 368.247914 -262.363958 
L 368.247363 -263.016759 
L 368.246651 -263.669559 
L 368.245752 -264.32236 
L 368.244648 -264.975161 
L 368.243333 -265.627961 
L 368.241809 -266.280762 
L 368.240086 -266.933563 
L 368.238181 -267.586363 
L 368.236117 -268.239164 
L 368.233921 -268.891965 
L 368.231627 -269.544766 
L 368.229271 -270.197566 
L 368.226893 -270.850367 
L 368.224535 -271.503168 
L 368.222245 -272.155968 
L 368.220068 -272.808769 
L 368.218056 -273.46157 
L 368.216259 -274.114371 
L 368.214727 -274.767171 
L 368.213511 -275.419972 
L 368.21266 -276.072773 
L 368.212219 -276.725573 
L 368.212228 -277.378374 
L 368.212722 -278.031175 
L 368.21373 -278.683976 
L 368.215271 -279.336776 
L 368.217357 -279.989577 
L 368.21999 -280.642378 
L 368.223161 -281.295178 
L 368.226854 -281.947979 
L 368.231041 -282.60078 
L 368.235687 -283.25358 
L 368.240751 -283.906381 
L 368.246181 -284.559182 
L 368.251925 -285.211983 
L 368.257925 -285.864783 
L 368.264121 -286.517584 
L 368.270453 -287.170385 
L 368.276861 -287.823185 
L 368.283288 -288.475986 
L 368.28968 -289.128787 
L 368.295984 -289.781588 
L 368.302156 -290.434388 
L 368.308154 -291.087189 
L 368.313941 -291.73999 
L 368.319487 -292.39279 
L 368.324767 -293.045591 
L 368.32976 -293.698392 
L 368.334451 -294.351193 
L 368.33883 -295.003993 
L 368.342892 -295.656794 
L 368.346634 -296.309595 
L 368.350059 -296.962395 
L 368.353174 -297.615196 
L 368.355986 -298.267997 
L 368.358509 -298.920797 
L 368.360754 -299.573598 
L 368.36274 -300.226399 
L 368.364481 -300.8792 
L 368.365998 -301.532 
L 368.367309 -302.184801 
L 368.368432 -302.837602 
L 368.369387 -303.490402 
L 368.370193 -304.143203 
L 368.377057 -304.143203 
L 368.377057 -304.143203 
L 368.377863 -303.490402 
L 368.378818 -302.837602 
L 368.379941 -302.184801 
L 368.381252 -301.532 
L 368.382769 -300.8792 
L 368.38451 -300.226399 
L 368.386496 -299.573598 
L 368.388741 -298.920797 
L 368.391264 -298.267997 
L 368.394076 -297.615196 
L 368.397191 -296.962395 
L 368.400616 -296.309595 
L 368.404358 -295.656794 
L 368.40842 -295.003993 
L 368.412799 -294.351193 
L 368.41749 -293.698392 
L 368.422483 -293.045591 
L 368.427763 -292.39279 
L 368.433309 -291.73999 
L 368.439096 -291.087189 
L 368.445094 -290.434388 
L 368.451266 -289.781588 
L 368.45757 -289.128787 
L 368.463962 -288.475986 
L 368.470389 -287.823185 
L 368.476797 -287.170385 
L 368.483129 -286.517584 
L 368.489325 -285.864783 
L 368.495325 -285.211983 
L 368.501069 -284.559182 
L 368.506499 -283.906381 
L 368.511563 -283.25358 
L 368.516209 -282.60078 
L 368.520396 -281.947979 
L 368.524089 -281.295178 
L 368.52726 -280.642378 
L 368.529893 -279.989577 
L 368.531979 -279.336776 
L 368.53352 -278.683976 
L 368.534528 -278.031175 
L 368.535022 -277.378374 
L 368.535031 -276.725573 
L 368.53459 -276.072773 
L 368.533739 -275.419972 
L 368.532523 -274.767171 
L 368.530991 -274.114371 
L 368.529194 -273.46157 
L 368.527182 -272.808769 
L 368.525005 -272.155968 
L 368.522715 -271.503168 
L 368.520357 -270.850367 
L 368.517979 -270.197566 
L 368.515623 -269.544766 
L 368.513329 -268.891965 
L 368.511133 -268.239164 
L 368.509069 -267.586363 
L 368.507164 -266.933563 
L 368.505441 -266.280762 
L 368.503917 -265.627961 
L 368.502602 -264.975161 
L 368.501498 -264.32236 
L 368.500599 -263.669559 
L 368.499887 -263.016759 
L 368.499336 -262.363958 
L 368.498909 -261.711157 
L 368.498558 -261.058356 
L 368.498227 -260.405556 
L 368.497853 -259.752755 
L 368.497366 -259.099954 
L 368.496694 -258.447154 
L 368.495764 -257.794353 
L 368.494509 -257.141552 
L 368.492867 -256.488751 
L 368.490785 -255.835951 
L 368.488224 -255.18315 
L 368.485161 -254.530349 
L 368.481588 -253.877549 
L 368.477514 -253.224748 
L 368.472969 -252.571947 
L 368.467994 -251.919146 
L 368.462647 -251.266346 
L 368.457 -250.613545 
L 368.45113 -249.960744 
L 368.445123 -249.307944 
L 368.439065 -248.655143 
L 368.433042 -248.002342 
L 368.427134 -247.349542 
L 368.421416 -246.696741 
L 368.415951 -246.04394 
L 368.410794 -245.391139 
L 368.405987 -244.738339 
L 368.401559 -244.085538 
L 368.397527 -243.432737 
L 368.393899 -242.779937 
L 368.390671 -242.127136 
L 368.38783 -241.474335 
L 368.385358 -240.821534 
L 368.38323 -240.168734 
L 368.381417 -239.515933 
z
" id="m8bb575d36a" style="stroke:#3d3d3d;stroke-width:1.5;"/>
    </defs>
    <g clip-path="url(#p82219f09f5)">
     <use style="fill:#efbed3;stroke:#3d3d3d;stroke-width:1.5;" x="0" xlink:href="#m8bb575d36a" y="373.223584"/>
    </g>
   </g>
   <g id="PolyCollection_6">
    <defs>
     <path d="M 392.183157 -96.889459 
L 392.180093 -96.889459 
L 392.179768 -99.333096 
L 392.179396 -101.776732 
L 392.178973 -104.220368 
L 392.1785 -106.664005 
L 392.177976 -109.107641 
L 392.177403 -111.551277 
L 392.176783 -113.994914 
L 392.176121 -116.43855 
L 392.175422 -118.882186 
L 392.174694 -121.325823 
L 392.173942 -123.769459 
L 392.173175 -126.213096 
L 392.1724 -128.656732 
L 392.171623 -131.100368 
L 392.17085 -133.544005 
L 392.170083 -135.987641 
L 392.169323 -138.431277 
L 392.168566 -140.874914 
L 392.167806 -143.31855 
L 392.167033 -145.762186 
L 392.166235 -148.205823 
L 392.165394 -150.649459 
L 392.164492 -153.093096 
L 392.163509 -155.536732 
L 392.162425 -157.980368 
L 392.161219 -160.424005 
L 392.159876 -162.867641 
L 392.15838 -165.311277 
L 392.156725 -167.754914 
L 392.154908 -170.19855 
L 392.152933 -172.642186 
L 392.150813 -175.085823 
L 392.148569 -177.529459 
L 392.146228 -179.973096 
L 392.143826 -182.416732 
L 392.141403 -184.860368 
L 392.139006 -187.304005 
L 392.136682 -189.747641 
L 392.134483 -192.191277 
L 392.132456 -194.634914 
L 392.13065 -197.07855 
L 392.129105 -199.522186 
L 392.127857 -201.965823 
L 392.126936 -204.409459 
L 392.12636 -206.853096 
L 392.126142 -209.296732 
L 392.126282 -211.740368 
L 392.126773 -214.184005 
L 392.127599 -216.627641 
L 392.128735 -219.071277 
L 392.130148 -221.514914 
L 392.1318 -223.95855 
L 392.13365 -226.402186 
L 392.13565 -228.845823 
L 392.137752 -231.289459 
L 392.139907 -233.733096 
L 392.142066 -236.176732 
L 392.144186 -238.620368 
L 392.146221 -241.064005 
L 392.148137 -243.507641 
L 392.149899 -245.951277 
L 392.151483 -248.394914 
L 392.152872 -250.83855 
L 392.154054 -253.282186 
L 392.155027 -255.725823 
L 392.155796 -258.169459 
L 392.156375 -260.613096 
L 392.156783 -263.056732 
L 392.157044 -265.500368 
L 392.157189 -267.944005 
L 392.157251 -270.387641 
L 392.157266 -272.831277 
L 392.157268 -275.274914 
L 392.157293 -277.71855 
L 392.157371 -280.162186 
L 392.157532 -282.605823 
L 392.157797 -285.049459 
L 392.158184 -287.493096 
L 392.158704 -289.936732 
L 392.159362 -292.380368 
L 392.160156 -294.824005 
L 392.161079 -297.267641 
L 392.162117 -299.711277 
L 392.163255 -302.154914 
L 392.164472 -304.59855 
L 392.165746 -307.042186 
L 392.167053 -309.485823 
L 392.168372 -311.929459 
L 392.169679 -314.373096 
L 392.170954 -316.816732 
L 392.172179 -319.260368 
L 392.173341 -321.704005 
L 392.174426 -324.147641 
L 392.175427 -326.591277 
L 392.176338 -329.034914 
L 392.177156 -331.47855 
L 392.177884 -333.922186 
L 392.178522 -336.365823 
L 392.179075 -338.809459 
L 392.184175 -338.809459 
L 392.184175 -338.809459 
L 392.184728 -336.365823 
L 392.185366 -333.922186 
L 392.186094 -331.47855 
L 392.186912 -329.034914 
L 392.187823 -326.591277 
L 392.188824 -324.147641 
L 392.189909 -321.704005 
L 392.191071 -319.260368 
L 392.192296 -316.816732 
L 392.193571 -314.373096 
L 392.194878 -311.929459 
L 392.196197 -309.485823 
L 392.197504 -307.042186 
L 392.198778 -304.59855 
L 392.199995 -302.154914 
L 392.201133 -299.711277 
L 392.202171 -297.267641 
L 392.203094 -294.824005 
L 392.203888 -292.380368 
L 392.204546 -289.936732 
L 392.205066 -287.493096 
L 392.205453 -285.049459 
L 392.205718 -282.605823 
L 392.205879 -280.162186 
L 392.205957 -277.71855 
L 392.205982 -275.274914 
L 392.205984 -272.831277 
L 392.205999 -270.387641 
L 392.206061 -267.944005 
L 392.206206 -265.500368 
L 392.206467 -263.056732 
L 392.206875 -260.613096 
L 392.207454 -258.169459 
L 392.208223 -255.725823 
L 392.209196 -253.282186 
L 392.210378 -250.83855 
L 392.211767 -248.394914 
L 392.213351 -245.951277 
L 392.215113 -243.507641 
L 392.217029 -241.064005 
L 392.219064 -238.620368 
L 392.221184 -236.176732 
L 392.223343 -233.733096 
L 392.225498 -231.289459 
L 392.2276 -228.845823 
L 392.2296 -226.402186 
L 392.23145 -223.95855 
L 392.233102 -221.514914 
L 392.234515 -219.071277 
L 392.235651 -216.627641 
L 392.236477 -214.184005 
L 392.236968 -211.740368 
L 392.237108 -209.296732 
L 392.23689 -206.853096 
L 392.236314 -204.409459 
L 392.235393 -201.965823 
L 392.234145 -199.522186 
L 392.2326 -197.07855 
L 392.230794 -194.634914 
L 392.228767 -192.191277 
L 392.226568 -189.747641 
L 392.224244 -187.304005 
L 392.221847 -184.860368 
L 392.219424 -182.416732 
L 392.217022 -179.973096 
L 392.214681 -177.529459 
L 392.212437 -175.085823 
L 392.210317 -172.642186 
L 392.208342 -170.19855 
L 392.206525 -167.754914 
L 392.20487 -165.311277 
L 392.203374 -162.867641 
L 392.202031 -160.424005 
L 392.200825 -157.980368 
L 392.199741 -155.536732 
L 392.198758 -153.093096 
L 392.197856 -150.649459 
L 392.197015 -148.205823 
L 392.196217 -145.762186 
L 392.195444 -143.31855 
L 392.194684 -140.874914 
L 392.193927 -138.431277 
L 392.193167 -135.987641 
L 392.1924 -133.544005 
L 392.191627 -131.100368 
L 392.19085 -128.656732 
L 392.190075 -126.213096 
L 392.189308 -123.769459 
L 392.188556 -121.325823 
L 392.187828 -118.882186 
L 392.187129 -116.43855 
L 392.186467 -113.994914 
L 392.185847 -111.551277 
L 392.185274 -109.107641 
L 392.18475 -106.664005 
L 392.184277 -104.220368 
L 392.183854 -101.776732 
L 392.183482 -99.333096 
L 392.183157 -96.889459 
z
" id="mfe4ed8f7de" style="stroke:#3d3d3d;stroke-width:1.5;"/>
    </defs>
    <g clip-path="url(#p82219f09f5)">
     <use style="fill:#d684bd;stroke:#3d3d3d;stroke-width:1.5;" x="0" xlink:href="#mfe4ed8f7de" y="373.223584"/>
    </g>
   </g>
   <g id="matplotlib.axis_1">
    <g id="xtick_1">
     <g id="line2d_1">
      <defs>
       <path d="M 0 0 
L 0 3.5 
" id="mfd49830755" style="stroke:#000000;stroke-width:0.8;"/>
      </defs>
      <g>
       <use style="stroke:#000000;stroke-width:0.8;" x="58.869625" xlink:href="#mfd49830755" y="288.430125"/>
      </g>
     </g>
     <g id="text_1">
      <!-- mopt -->
      <defs>
       <path d="M 52 44.1875 
Q 55.375 50.25 60.0625 53.125 
Q 64.75 56 71.09375 56 
Q 79.640625 56 84.28125 50.015625 
Q 88.921875 44.046875 88.921875 33.015625 
L 88.921875 0 
L 79.890625 0 
L 79.890625 32.71875 
Q 79.890625 40.578125 77.09375 44.375 
Q 74.3125 48.1875 68.609375 48.1875 
Q 61.625 48.1875 57.5625 43.546875 
Q 53.515625 38.921875 53.515625 30.90625 
L 53.515625 0 
L 44.484375 0 
L 44.484375 32.71875 
Q 44.484375 40.625 41.703125 44.40625 
Q 38.921875 48.1875 33.109375 48.1875 
Q 26.21875 48.1875 22.15625 43.53125 
Q 18.109375 38.875 18.109375 30.90625 
L 18.109375 0 
L 9.078125 0 
L 9.078125 54.6875 
L 18.109375 54.6875 
L 18.109375 46.1875 
Q 21.1875 51.21875 25.484375 53.609375 
Q 29.78125 56 35.6875 56 
Q 41.65625 56 45.828125 52.96875 
Q 50 49.953125 52 44.1875 
z
" id="DejaVuSans-109"/>
       <path d="M 30.609375 48.390625 
Q 23.390625 48.390625 19.1875 42.75 
Q 14.984375 37.109375 14.984375 27.296875 
Q 14.984375 17.484375 19.15625 11.84375 
Q 23.34375 6.203125 30.609375 6.203125 
Q 37.796875 6.203125 41.984375 11.859375 
Q 46.1875 17.53125 46.1875 27.296875 
Q 46.1875 37.015625 41.984375 42.703125 
Q 37.796875 48.390625 30.609375 48.390625 
z
M 30.609375 56 
Q 42.328125 56 49.015625 48.375 
Q 55.71875 40.765625 55.71875 27.296875 
Q 55.71875 13.875 49.015625 6.21875 
Q 42.328125 -1.421875 30.609375 -1.421875 
Q 18.84375 -1.421875 12.171875 6.21875 
Q 5.515625 13.875 5.515625 27.296875 
Q 5.515625 40.765625 12.171875 48.375 
Q 18.84375 56 30.609375 56 
z
" id="DejaVuSans-111"/>
       <path d="M 18.109375 8.203125 
L 18.109375 -20.796875 
L 9.078125 -20.796875 
L 9.078125 54.6875 
L 18.109375 54.6875 
L 18.109375 46.390625 
Q 20.953125 51.265625 25.265625 53.625 
Q 29.59375 56 35.59375 56 
Q 45.5625 56 51.78125 48.09375 
Q 58.015625 40.1875 58.015625 27.296875 
Q 58.015625 14.40625 51.78125 6.484375 
Q 45.5625 -1.421875 35.59375 -1.421875 
Q 29.59375 -1.421875 25.265625 0.953125 
Q 20.953125 3.328125 18.109375 8.203125 
z
M 48.6875 27.296875 
Q 48.6875 37.203125 44.609375 42.84375 
Q 40.53125 48.484375 33.40625 48.484375 
Q 26.265625 48.484375 22.1875 42.84375 
Q 18.109375 37.203125 18.109375 27.296875 
Q 18.109375 17.390625 22.1875 11.75 
Q 26.265625 6.109375 33.40625 6.109375 
Q 40.53125 6.109375 44.609375 11.75 
Q 48.6875 17.390625 48.6875 27.296875 
z
" id="DejaVuSans-112"/>
       <path d="M 18.3125 70.21875 
L 18.3125 54.6875 
L 36.8125 54.6875 
L 36.8125 47.703125 
L 18.3125 47.703125 
L 18.3125 18.015625 
Q 18.3125 11.328125 20.140625 9.421875 
Q 21.96875 7.515625 27.59375 7.515625 
L 36.8125 7.515625 
L 36.8125 0 
L 27.59375 0 
Q 17.1875 0 13.234375 3.875 
Q 9.28125 7.765625 9.28125 18.015625 
L 9.28125 47.703125 
L 2.6875 47.703125 
L 2.6875 54.6875 
L 9.28125 54.6875 
L 9.28125 70.21875 
z
" id="DejaVuSans-116"/>
      </defs>
      <g transform="translate(35.202161 315.074627)rotate(-30)scale(0.1 -0.1)">
       <use xlink:href="#DejaVuSans-109"/>
       <use x="97.412109" xlink:href="#DejaVuSans-111"/>
       <use x="158.59375" xlink:href="#DejaVuSans-112"/>
       <use x="222.070312" xlink:href="#DejaVuSans-116"/>
      </g>
     </g>
    </g>
    <g id="xtick_2">
     <g id="line2d_2">
      <g>
       <use style="stroke:#000000;stroke-width:0.8;" x="82.677625" xlink:href="#mfd49830755" y="288.430125"/>
      </g>
     </g>
     <g id="text_2">
      <!-- lafintel -->
      <defs>
       <path d="M 9.421875 75.984375 
L 18.40625 75.984375 
L 18.40625 0 
L 9.421875 0 
z
" id="DejaVuSans-108"/>
       <path d="M 34.28125 27.484375 
Q 23.390625 27.484375 19.1875 25 
Q 14.984375 22.515625 14.984375 16.5 
Q 14.984375 11.71875 18.140625 8.90625 
Q 21.296875 6.109375 26.703125 6.109375 
Q 34.1875 6.109375 38.703125 11.40625 
Q 43.21875 16.703125 43.21875 25.484375 
L 43.21875 27.484375 
z
M 52.203125 31.203125 
L 52.203125 0 
L 43.21875 0 
L 43.21875 8.296875 
Q 40.140625 3.328125 35.546875 0.953125 
Q 30.953125 -1.421875 24.3125 -1.421875 
Q 15.921875 -1.421875 10.953125 3.296875 
Q 6 8.015625 6 15.921875 
Q 6 25.140625 12.171875 29.828125 
Q 18.359375 34.515625 30.609375 34.515625 
L 43.21875 34.515625 
L 43.21875 35.40625 
Q 43.21875 41.609375 39.140625 45 
Q 35.0625 48.390625 27.6875 48.390625 
Q 23 48.390625 18.546875 47.265625 
Q 14.109375 46.140625 10.015625 43.890625 
L 10.015625 52.203125 
Q 14.9375 54.109375 19.578125 55.046875 
Q 24.21875 56 28.609375 56 
Q 40.484375 56 46.34375 49.84375 
Q 52.203125 43.703125 52.203125 31.203125 
z
" id="DejaVuSans-97"/>
       <path d="M 37.109375 75.984375 
L 37.109375 68.5 
L 28.515625 68.5 
Q 23.6875 68.5 21.796875 66.546875 
Q 19.921875 64.59375 19.921875 59.515625 
L 19.921875 54.6875 
L 34.71875 54.6875 
L 34.71875 47.703125 
L 19.921875 47.703125 
L 19.921875 0 
L 10.890625 0 
L 10.890625 47.703125 
L 2.296875 47.703125 
L 2.296875 54.6875 
L 10.890625 54.6875 
L 10.890625 58.5 
Q 10.890625 67.625 15.140625 71.796875 
Q 19.390625 75.984375 28.609375 75.984375 
z
" id="DejaVuSans-102"/>
       <path d="M 9.421875 54.6875 
L 18.40625 54.6875 
L 18.40625 0 
L 9.421875 0 
z
M 9.421875 75.984375 
L 18.40625 75.984375 
L 18.40625 64.59375 
L 9.421875 64.59375 
z
" id="DejaVuSans-105"/>
       <path d="M 54.890625 33.015625 
L 54.890625 0 
L 45.90625 0 
L 45.90625 32.71875 
Q 45.90625 40.484375 42.875 44.328125 
Q 39.84375 48.1875 33.796875 48.1875 
Q 26.515625 48.1875 22.3125 43.546875 
Q 18.109375 38.921875 18.109375 30.90625 
L 18.109375 0 
L 9.078125 0 
L 9.078125 54.6875 
L 18.109375 54.6875 
L 18.109375 46.1875 
Q 21.34375 51.125 25.703125 53.5625 
Q 30.078125 56 35.796875 56 
Q 45.21875 56 50.046875 50.171875 
Q 54.890625 44.34375 54.890625 33.015625 
z
" id="DejaVuSans-110"/>
       <path d="M 56.203125 29.59375 
L 56.203125 25.203125 
L 14.890625 25.203125 
Q 15.484375 15.921875 20.484375 11.0625 
Q 25.484375 6.203125 34.421875 6.203125 
Q 39.59375 6.203125 44.453125 7.46875 
Q 49.3125 8.734375 54.109375 11.28125 
L 54.109375 2.78125 
Q 49.265625 0.734375 44.1875 -0.34375 
Q 39.109375 -1.421875 33.890625 -1.421875 
Q 20.796875 -1.421875 13.15625 6.1875 
Q 5.515625 13.8125 5.515625 26.8125 
Q 5.515625 40.234375 12.765625 48.109375 
Q 20.015625 56 32.328125 56 
Q 43.359375 56 49.78125 48.890625 
Q 56.203125 41.796875 56.203125 29.59375 
z
M 47.21875 32.234375 
Q 47.125 39.59375 43.09375 43.984375 
Q 39.0625 48.390625 32.421875 48.390625 
Q 24.90625 48.390625 20.390625 44.140625 
Q 15.875 39.890625 15.1875 32.171875 
z
" id="DejaVuSans-101"/>
      </defs>
      <g transform="translate(51.85192 319.20744)rotate(-30)scale(0.1 -0.1)">
       <use xlink:href="#DejaVuSans-108"/>
       <use x="27.783203" xlink:href="#DejaVuSans-97"/>
       <use x="89.0625" xlink:href="#DejaVuSans-102"/>
       <use x="124.267578" xlink:href="#DejaVuSans-105"/>
       <use x="152.050781" xlink:href="#DejaVuSans-110"/>
       <use x="215.429688" xlink:href="#DejaVuSans-116"/>
       <use x="254.638672" xlink:href="#DejaVuSans-101"/>
       <use x="316.162109" xlink:href="#DejaVuSans-108"/>
      </g>
     </g>
    </g>
    <g id="xtick_3">
     <g id="line2d_3">
      <g>
       <use style="stroke:#000000;stroke-width:0.8;" x="106.485625" xlink:href="#mfd49830755" y="288.430125"/>
      </g>
     </g>
     <g id="text_3">
      <!-- fastcgs_lm -->
      <defs>
       <path d="M 44.28125 53.078125 
L 44.28125 44.578125 
Q 40.484375 46.53125 36.375 47.5 
Q 32.28125 48.484375 27.875 48.484375 
Q 21.1875 48.484375 17.84375 46.4375 
Q 14.5 44.390625 14.5 40.28125 
Q 14.5 37.15625 16.890625 35.375 
Q 19.28125 33.59375 26.515625 31.984375 
L 29.59375 31.296875 
Q 39.15625 29.25 43.1875 25.515625 
Q 47.21875 21.78125 47.21875 15.09375 
Q 47.21875 7.46875 41.1875 3.015625 
Q 35.15625 -1.421875 24.609375 -1.421875 
Q 20.21875 -1.421875 15.453125 -0.5625 
Q 10.6875 0.296875 5.421875 2 
L 5.421875 11.28125 
Q 10.40625 8.6875 15.234375 7.390625 
Q 20.0625 6.109375 24.8125 6.109375 
Q 31.15625 6.109375 34.5625 8.28125 
Q 37.984375 10.453125 37.984375 14.40625 
Q 37.984375 18.0625 35.515625 20.015625 
Q 33.0625 21.96875 24.703125 23.78125 
L 21.578125 24.515625 
Q 13.234375 26.265625 9.515625 29.90625 
Q 5.8125 33.546875 5.8125 39.890625 
Q 5.8125 47.609375 11.28125 51.796875 
Q 16.75 56 26.8125 56 
Q 31.78125 56 36.171875 55.265625 
Q 40.578125 54.546875 44.28125 53.078125 
z
" id="DejaVuSans-115"/>
       <path d="M 48.78125 52.59375 
L 48.78125 44.1875 
Q 44.96875 46.296875 41.140625 47.34375 
Q 37.3125 48.390625 33.40625 48.390625 
Q 24.65625 48.390625 19.8125 42.84375 
Q 14.984375 37.3125 14.984375 27.296875 
Q 14.984375 17.28125 19.8125 11.734375 
Q 24.65625 6.203125 33.40625 6.203125 
Q 37.3125 6.203125 41.140625 7.25 
Q 44.96875 8.296875 48.78125 10.40625 
L 48.78125 2.09375 
Q 45.015625 0.34375 40.984375 -0.53125 
Q 36.96875 -1.421875 32.421875 -1.421875 
Q 20.0625 -1.421875 12.78125 6.34375 
Q 5.515625 14.109375 5.515625 27.296875 
Q 5.515625 40.671875 12.859375 48.328125 
Q 20.21875 56 33.015625 56 
Q 37.15625 56 41.109375 55.140625 
Q 45.0625 54.296875 48.78125 52.59375 
z
" id="DejaVuSans-99"/>
       <path d="M 45.40625 27.984375 
Q 45.40625 37.75 41.375 43.109375 
Q 37.359375 48.484375 30.078125 48.484375 
Q 22.859375 48.484375 18.828125 43.109375 
Q 14.796875 37.75 14.796875 27.984375 
Q 14.796875 18.265625 18.828125 12.890625 
Q 22.859375 7.515625 30.078125 7.515625 
Q 37.359375 7.515625 41.375 12.890625 
Q 45.40625 18.265625 45.40625 27.984375 
z
M 54.390625 6.78125 
Q 54.390625 -7.171875 48.1875 -13.984375 
Q 42 -20.796875 29.203125 -20.796875 
Q 24.46875 -20.796875 20.265625 -20.09375 
Q 16.0625 -19.390625 12.109375 -17.921875 
L 12.109375 -9.1875 
Q 16.0625 -11.328125 19.921875 -12.34375 
Q 23.78125 -13.375 27.78125 -13.375 
Q 36.625 -13.375 41.015625 -8.765625 
Q 45.40625 -4.15625 45.40625 5.171875 
L 45.40625 9.625 
Q 42.625 4.78125 38.28125 2.390625 
Q 33.9375 0 27.875 0 
Q 17.828125 0 11.671875 7.65625 
Q 5.515625 15.328125 5.515625 27.984375 
Q 5.515625 40.671875 11.671875 48.328125 
Q 17.828125 56 27.875 56 
Q 33.9375 56 38.28125 53.609375 
Q 42.625 51.21875 45.40625 46.390625 
L 45.40625 54.6875 
L 54.390625 54.6875 
z
" id="DejaVuSans-103"/>
       <path d="M 50.984375 -16.609375 
L 50.984375 -23.578125 
L -0.984375 -23.578125 
L -0.984375 -16.609375 
z
" id="DejaVuSans-95"/>
      </defs>
      <g transform="translate(59.101557 328.687127)rotate(-30)scale(0.1 -0.1)">
       <use xlink:href="#DejaVuSans-102"/>
       <use x="35.205078" xlink:href="#DejaVuSans-97"/>
       <use x="96.484375" xlink:href="#DejaVuSans-115"/>
       <use x="148.583984" xlink:href="#DejaVuSans-116"/>
       <use x="187.792969" xlink:href="#DejaVuSans-99"/>
       <use x="242.773438" xlink:href="#DejaVuSans-103"/>
       <use x="306.25" xlink:href="#DejaVuSans-115"/>
       <use x="358.349609" xlink:href="#DejaVuSans-95"/>
       <use x="408.349609" xlink:href="#DejaVuSans-108"/>
       <use x="436.132812" xlink:href="#DejaVuSans-109"/>
      </g>
     </g>
    </g>
    <g id="xtick_4">
     <g id="line2d_4">
      <g>
       <use style="stroke:#000000;stroke-width:0.8;" x="130.293625" xlink:href="#mfd49830755" y="288.430125"/>
      </g>
     </g>
     <g id="text_4">
      <!-- aflsmart -->
      <defs>
       <path d="M 41.109375 46.296875 
Q 39.59375 47.171875 37.8125 47.578125 
Q 36.03125 48 33.890625 48 
Q 26.265625 48 22.1875 43.046875 
Q 18.109375 38.09375 18.109375 28.8125 
L 18.109375 0 
L 9.078125 0 
L 9.078125 54.6875 
L 18.109375 54.6875 
L 18.109375 46.1875 
Q 20.953125 51.171875 25.484375 53.578125 
Q 30.03125 56 36.53125 56 
Q 37.453125 56 38.578125 55.875 
Q 39.703125 55.765625 41.0625 55.515625 
z
" id="DejaVuSans-114"/>
      </defs>
      <g transform="translate(93.282604 322.778534)rotate(-30)scale(0.1 -0.1)">
       <use xlink:href="#DejaVuSans-97"/>
       <use x="61.279297" xlink:href="#DejaVuSans-102"/>
       <use x="96.484375" xlink:href="#DejaVuSans-108"/>
       <use x="124.267578" xlink:href="#DejaVuSans-115"/>
       <use x="176.367188" xlink:href="#DejaVuSans-109"/>
       <use x="273.779297" xlink:href="#DejaVuSans-97"/>
       <use x="335.058594" xlink:href="#DejaVuSans-114"/>
       <use x="376.171875" xlink:href="#DejaVuSans-116"/>
      </g>
     </g>
    </g>
    <g id="xtick_5">
     <g id="line2d_5">
      <g>
       <use style="stroke:#000000;stroke-width:0.8;" x="154.101625" xlink:href="#mfd49830755" y="288.430125"/>
      </g>
     </g>
     <g id="text_5">
      <!-- aflplusplus_optimal -->
      <defs>
       <path d="M 8.5 21.578125 
L 8.5 54.6875 
L 17.484375 54.6875 
L 17.484375 21.921875 
Q 17.484375 14.15625 20.5 10.265625 
Q 23.53125 6.390625 29.59375 6.390625 
Q 36.859375 6.390625 41.078125 11.03125 
Q 45.3125 15.671875 45.3125 23.6875 
L 45.3125 54.6875 
L 54.296875 54.6875 
L 54.296875 0 
L 45.3125 0 
L 45.3125 8.40625 
Q 42.046875 3.421875 37.71875 1 
Q 33.40625 -1.421875 27.6875 -1.421875 
Q 18.265625 -1.421875 13.375 4.4375 
Q 8.5 10.296875 8.5 21.578125 
z
M 31.109375 56 
z
" id="DejaVuSans-117"/>
      </defs>
      <g transform="translate(69.276843 350.303534)rotate(-30)scale(0.1 -0.1)">
       <use xlink:href="#DejaVuSans-97"/>
       <use x="61.279297" xlink:href="#DejaVuSans-102"/>
       <use x="96.484375" xlink:href="#DejaVuSans-108"/>
       <use x="124.267578" xlink:href="#DejaVuSans-112"/>
       <use x="187.744141" xlink:href="#DejaVuSans-108"/>
       <use x="215.527344" xlink:href="#DejaVuSans-117"/>
       <use x="278.90625" xlink:href="#DejaVuSans-115"/>
       <use x="331.005859" xlink:href="#DejaVuSans-112"/>
       <use x="394.482422" xlink:href="#DejaVuSans-108"/>
       <use x="422.265625" xlink:href="#DejaVuSans-117"/>
       <use x="485.644531" xlink:href="#DejaVuSans-115"/>
       <use x="537.744141" xlink:href="#DejaVuSans-95"/>
       <use x="587.744141" xlink:href="#DejaVuSans-111"/>
       <use x="648.925781" xlink:href="#DejaVuSans-112"/>
       <use x="712.402344" xlink:href="#DejaVuSans-116"/>
       <use x="751.611328" xlink:href="#DejaVuSans-105"/>
       <use x="779.394531" xlink:href="#DejaVuSans-109"/>
       <use x="876.806641" xlink:href="#DejaVuSans-97"/>
       <use x="938.085938" xlink:href="#DejaVuSans-108"/>
      </g>
     </g>
    </g>
    <g id="xtick_6">
     <g id="line2d_6">
      <g>
       <use style="stroke:#000000;stroke-width:0.8;" x="177.909625" xlink:href="#mfd49830755" y="288.430125"/>
      </g>
     </g>
     <g id="text_6">
      <!-- aflplusplus -->
      <g transform="translate(130.300618 328.897284)rotate(-30)scale(0.1 -0.1)">
       <use xlink:href="#DejaVuSans-97"/>
       <use x="61.279297" xlink:href="#DejaVuSans-102"/>
       <use x="96.484375" xlink:href="#DejaVuSans-108"/>
       <use x="124.267578" xlink:href="#DejaVuSans-112"/>
       <use x="187.744141" xlink:href="#DejaVuSans-108"/>
       <use x="215.527344" xlink:href="#DejaVuSans-117"/>
       <use x="278.90625" xlink:href="#DejaVuSans-115"/>
       <use x="331.005859" xlink:href="#DejaVuSans-112"/>
       <use x="394.482422" xlink:href="#DejaVuSans-108"/>
       <use x="422.265625" xlink:href="#DejaVuSans-117"/>
       <use x="485.644531" xlink:href="#DejaVuSans-115"/>
      </g>
     </g>
    </g>
    <g id="xtick_7">
     <g id="line2d_7">
      <g>
       <use style="stroke:#000000;stroke-width:0.8;" x="201.717625" xlink:href="#mfd49830755" y="288.430125"/>
      </g>
     </g>
     <g id="text_7">
      <!-- aflfast -->
      <g transform="translate(173.653729 317.612909)rotate(-30)scale(0.1 -0.1)">
       <use xlink:href="#DejaVuSans-97"/>
       <use x="61.279297" xlink:href="#DejaVuSans-102"/>
       <use x="96.484375" xlink:href="#DejaVuSans-108"/>
       <use x="124.267578" xlink:href="#DejaVuSans-102"/>
       <use x="159.472656" xlink:href="#DejaVuSans-97"/>
       <use x="220.751953" xlink:href="#DejaVuSans-115"/>
       <use x="272.851562" xlink:href="#DejaVuSans-116"/>
      </g>
     </g>
    </g>
    <g id="xtick_8">
     <g id="line2d_8">
      <g>
       <use style="stroke:#000000;stroke-width:0.8;" x="225.525625" xlink:href="#mfd49830755" y="288.430125"/>
      </g>
     </g>
     <g id="text_8">
      <!-- aflcc -->
      <g transform="translate(204.200489 313.722284)rotate(-30)scale(0.1 -0.1)">
       <use xlink:href="#DejaVuSans-97"/>
       <use x="61.279297" xlink:href="#DejaVuSans-102"/>
       <use x="96.484375" xlink:href="#DejaVuSans-108"/>
       <use x="124.267578" xlink:href="#DejaVuSans-99"/>
       <use x="179.248047" xlink:href="#DejaVuSans-99"/>
      </g>
     </g>
    </g>
    <g id="xtick_9">
     <g id="line2d_9">
      <g>
       <use style="stroke:#000000;stroke-width:0.8;" x="249.333625" xlink:href="#mfd49830755" y="288.430125"/>
      </g>
     </g>
     <g id="text_9">
      <!-- afl -->
      <g transform="translate(237.532062 308.223846)rotate(-30)scale(0.1 -0.1)">
       <use xlink:href="#DejaVuSans-97"/>
       <use x="61.279297" xlink:href="#DejaVuSans-102"/>
       <use x="96.484375" xlink:href="#DejaVuSans-108"/>
      </g>
     </g>
    </g>
    <g id="xtick_10">
     <g id="line2d_10">
      <g>
       <use style="stroke:#000000;stroke-width:0.8;" x="273.141625" xlink:href="#mfd49830755" y="288.430125"/>
      </g>
     </g>
     <g id="text_10">
      <!-- honggfuzz -->
      <defs>
       <path d="M 54.890625 33.015625 
L 54.890625 0 
L 45.90625 0 
L 45.90625 32.71875 
Q 45.90625 40.484375 42.875 44.328125 
Q 39.84375 48.1875 33.796875 48.1875 
Q 26.515625 48.1875 22.3125 43.546875 
Q 18.109375 38.921875 18.109375 30.90625 
L 18.109375 0 
L 9.078125 0 
L 9.078125 75.984375 
L 18.109375 75.984375 
L 18.109375 46.1875 
Q 21.34375 51.125 25.703125 53.5625 
Q 30.078125 56 35.796875 56 
Q 45.21875 56 50.046875 50.171875 
Q 54.890625 44.34375 54.890625 33.015625 
z
" id="DejaVuSans-104"/>
       <path d="M 5.515625 54.6875 
L 48.1875 54.6875 
L 48.1875 46.484375 
L 14.40625 7.171875 
L 48.1875 7.171875 
L 48.1875 0 
L 4.296875 0 
L 4.296875 8.203125 
L 38.09375 47.515625 
L 5.515625 47.515625 
z
" id="DejaVuSans-122"/>
      </defs>
      <g transform="translate(227.202424 327.933221)rotate(-30)scale(0.1 -0.1)">
       <use xlink:href="#DejaVuSans-104"/>
       <use x="63.378906" xlink:href="#DejaVuSans-111"/>
       <use x="124.560547" xlink:href="#DejaVuSans-110"/>
       <use x="187.939453" xlink:href="#DejaVuSans-103"/>
       <use x="251.416016" xlink:href="#DejaVuSans-103"/>
       <use x="314.892578" xlink:href="#DejaVuSans-102"/>
       <use x="350.097656" xlink:href="#DejaVuSans-117"/>
       <use x="413.476562" xlink:href="#DejaVuSans-122"/>
       <use x="465.966797" xlink:href="#DejaVuSans-122"/>
      </g>
     </g>
    </g>
    <g id="xtick_11">
     <g id="line2d_11">
      <g>
       <use style="stroke:#000000;stroke-width:0.8;" x="296.949625" xlink:href="#mfd49830755" y="288.430125"/>
      </g>
     </g>
     <g id="text_11">
      <!-- entropic -->
      <g transform="translate(260.367557 322.530877)rotate(-30)scale(0.1 -0.1)">
       <use xlink:href="#DejaVuSans-101"/>
       <use x="61.523438" xlink:href="#DejaVuSans-110"/>
       <use x="124.902344" xlink:href="#DejaVuSans-116"/>
       <use x="164.111328" xlink:href="#DejaVuSans-114"/>
       <use x="202.974609" xlink:href="#DejaVuSans-111"/>
       <use x="264.15625" xlink:href="#DejaVuSans-112"/>
       <use x="327.632812" xlink:href="#DejaVuSans-105"/>
       <use x="355.416016" xlink:href="#DejaVuSans-99"/>
      </g>
     </g>
    </g>
    <g id="xtick_12">
     <g id="line2d_12">
      <g>
       <use style="stroke:#000000;stroke-width:0.8;" x="320.757625" xlink:href="#mfd49830755" y="288.430125"/>
      </g>
     </g>
     <g id="text_12">
      <!-- eclipser -->
      <g transform="translate(285.91708 321.525409)rotate(-30)scale(0.1 -0.1)">
       <use xlink:href="#DejaVuSans-101"/>
       <use x="61.523438" xlink:href="#DejaVuSans-99"/>
       <use x="116.503906" xlink:href="#DejaVuSans-108"/>
       <use x="144.287109" xlink:href="#DejaVuSans-105"/>
       <use x="172.070312" xlink:href="#DejaVuSans-112"/>
       <use x="235.546875" xlink:href="#DejaVuSans-115"/>
       <use x="287.646484" xlink:href="#DejaVuSans-101"/>
       <use x="349.169922" xlink:href="#DejaVuSans-114"/>
      </g>
     </g>
    </g>
    <g id="xtick_13">
     <g id="line2d_13">
      <g>
       <use style="stroke:#000000;stroke-width:0.8;" x="344.565625" xlink:href="#mfd49830755" y="288.430125"/>
      </g>
     </g>
     <g id="text_13">
      <!-- fairfuzz -->
      <g transform="translate(311.57621 320.456659)rotate(-30)scale(0.1 -0.1)">
       <use xlink:href="#DejaVuSans-102"/>
       <use x="35.205078" xlink:href="#DejaVuSans-97"/>
       <use x="96.484375" xlink:href="#DejaVuSans-105"/>
       <use x="124.267578" xlink:href="#DejaVuSans-114"/>
       <use x="165.380859" xlink:href="#DejaVuSans-102"/>
       <use x="200.585938" xlink:href="#DejaVuSans-117"/>
       <use x="263.964844" xlink:href="#DejaVuSans-122"/>
       <use x="316.455078" xlink:href="#DejaVuSans-122"/>
      </g>
     </g>
    </g>
    <g id="xtick_14">
     <g id="line2d_14">
      <g>
       <use style="stroke:#000000;stroke-width:0.8;" x="368.373625" xlink:href="#mfd49830755" y="288.430125"/>
      </g>
     </g>
     <g id="text_14">
      <!-- manul -->
      <g transform="translate(340.208242 317.671502)rotate(-30)scale(0.1 -0.1)">
       <use xlink:href="#DejaVuSans-109"/>
       <use x="97.412109" xlink:href="#DejaVuSans-97"/>
       <use x="158.691406" xlink:href="#DejaVuSans-110"/>
       <use x="222.070312" xlink:href="#DejaVuSans-117"/>
       <use x="285.449219" xlink:href="#DejaVuSans-108"/>
      </g>
     </g>
    </g>
    <g id="xtick_15">
     <g id="line2d_15">
      <g>
       <use style="stroke:#000000;stroke-width:0.8;" x="392.181625" xlink:href="#mfd49830755" y="288.430125"/>
      </g>
     </g>
     <g id="text_15">
      <!-- libfuzzer -->
      <defs>
       <path d="M 48.6875 27.296875 
Q 48.6875 37.203125 44.609375 42.84375 
Q 40.53125 48.484375 33.40625 48.484375 
Q 26.265625 48.484375 22.1875 42.84375 
Q 18.109375 37.203125 18.109375 27.296875 
Q 18.109375 17.390625 22.1875 11.75 
Q 26.265625 6.109375 33.40625 6.109375 
Q 40.53125 6.109375 44.609375 11.75 
Q 48.6875 17.390625 48.6875 27.296875 
z
M 18.109375 46.390625 
Q 20.953125 51.265625 25.265625 53.625 
Q 29.59375 56 35.59375 56 
Q 45.5625 56 51.78125 48.09375 
Q 58.015625 40.1875 58.015625 27.296875 
Q 58.015625 14.40625 51.78125 6.484375 
Q 45.5625 -1.421875 35.59375 -1.421875 
Q 29.59375 -1.421875 25.265625 0.953125 
Q 20.953125 3.328125 18.109375 8.203125 
L 18.109375 0 
L 9.078125 0 
L 9.078125 75.984375 
L 18.109375 75.984375 
z
" id="DejaVuSans-98"/>
      </defs>
      <g transform="translate(354.315404 323.272284)rotate(-30)scale(0.1 -0.1)">
       <use xlink:href="#DejaVuSans-108"/>
       <use x="27.783203" xlink:href="#DejaVuSans-105"/>
       <use x="55.566406" xlink:href="#DejaVuSans-98"/>
       <use x="119.042969" xlink:href="#DejaVuSans-102"/>
       <use x="154.248047" xlink:href="#DejaVuSans-117"/>
       <use x="217.626953" xlink:href="#DejaVuSans-122"/>
       <use x="270.117188" xlink:href="#DejaVuSans-122"/>
       <use x="322.607422" xlink:href="#DejaVuSans-101"/>
       <use x="384.130859" xlink:href="#DejaVuSans-114"/>
      </g>
     </g>
    </g>
    <g id="text_16">
     <!-- Fuzzer (highest median coverage on the left) -->
     <defs>
      <path d="M 9.8125 72.90625 
L 51.703125 72.90625 
L 51.703125 64.59375 
L 19.671875 64.59375 
L 19.671875 43.109375 
L 48.578125 43.109375 
L 48.578125 34.8125 
L 19.671875 34.8125 
L 19.671875 0 
L 9.8125 0 
z
" id="DejaVuSans-70"/>
      <path id="DejaVuSans-32"/>
      <path d="M 31 75.875 
Q 24.46875 64.65625 21.28125 53.65625 
Q 18.109375 42.671875 18.109375 31.390625 
Q 18.109375 20.125 21.3125 9.0625 
Q 24.515625 -2 31 -13.1875 
L 23.1875 -13.1875 
Q 15.875 -1.703125 12.234375 9.375 
Q 8.59375 20.453125 8.59375 31.390625 
Q 8.59375 42.28125 12.203125 53.3125 
Q 15.828125 64.359375 23.1875 75.875 
z
" id="DejaVuSans-40"/>
      <path d="M 45.40625 46.390625 
L 45.40625 75.984375 
L 54.390625 75.984375 
L 54.390625 0 
L 45.40625 0 
L 45.40625 8.203125 
Q 42.578125 3.328125 38.25 0.953125 
Q 33.9375 -1.421875 27.875 -1.421875 
Q 17.96875 -1.421875 11.734375 6.484375 
Q 5.515625 14.40625 5.515625 27.296875 
Q 5.515625 40.1875 11.734375 48.09375 
Q 17.96875 56 27.875 56 
Q 33.9375 56 38.25 53.625 
Q 42.578125 51.265625 45.40625 46.390625 
z
M 14.796875 27.296875 
Q 14.796875 17.390625 18.875 11.75 
Q 22.953125 6.109375 30.078125 6.109375 
Q 37.203125 6.109375 41.296875 11.75 
Q 45.40625 17.390625 45.40625 27.296875 
Q 45.40625 37.203125 41.296875 42.84375 
Q 37.203125 48.484375 30.078125 48.484375 
Q 22.953125 48.484375 18.875 42.84375 
Q 14.796875 37.203125 14.796875 27.296875 
z
" id="DejaVuSans-100"/>
      <path d="M 2.984375 54.6875 
L 12.5 54.6875 
L 29.59375 8.796875 
L 46.6875 54.6875 
L 56.203125 54.6875 
L 35.6875 0 
L 23.484375 0 
z
" id="DejaVuSans-118"/>
      <path d="M 8.015625 75.875 
L 15.828125 75.875 
Q 23.140625 64.359375 26.78125 53.3125 
Q 30.421875 42.28125 30.421875 31.390625 
Q 30.421875 20.453125 26.78125 9.375 
Q 23.140625 -1.703125 15.828125 -13.1875 
L 8.015625 -13.1875 
Q 14.5 -2 17.703125 9.0625 
Q 20.90625 20.125 20.90625 31.390625 
Q 20.90625 42.671875 17.703125 53.65625 
Q 14.5 64.65625 8.015625 75.875 
z
" id="DejaVuSans-41"/>
     </defs>
     <g transform="translate(112.907656 363.943897)scale(0.1 -0.1)">
      <use xlink:href="#DejaVuSans-70"/>
      <use x="52.019531" xlink:href="#DejaVuSans-117"/>
      <use x="115.398438" xlink:href="#DejaVuSans-122"/>
      <use x="167.888672" xlink:href="#DejaVuSans-122"/>
      <use x="220.378906" xlink:href="#DejaVuSans-101"/>
      <use x="281.902344" xlink:href="#DejaVuSans-114"/>
      <use x="323.015625" xlink:href="#DejaVuSans-32"/>
      <use x="354.802734" xlink:href="#DejaVuSans-40"/>
      <use x="393.816406" xlink:href="#DejaVuSans-104"/>
      <use x="457.195312" xlink:href="#DejaVuSans-105"/>
      <use x="484.978516" xlink:href="#DejaVuSans-103"/>
      <use x="548.455078" xlink:href="#DejaVuSans-104"/>
      <use x="611.833984" xlink:href="#DejaVuSans-101"/>
      <use x="673.357422" xlink:href="#DejaVuSans-115"/>
      <use x="725.457031" xlink:href="#DejaVuSans-116"/>
      <use x="764.666016" xlink:href="#DejaVuSans-32"/>
      <use x="796.453125" xlink:href="#DejaVuSans-109"/>
      <use x="893.865234" xlink:href="#DejaVuSans-101"/>
      <use x="955.388672" xlink:href="#DejaVuSans-100"/>
      <use x="1018.865234" xlink:href="#DejaVuSans-105"/>
      <use x="1046.648438" xlink:href="#DejaVuSans-97"/>
      <use x="1107.927734" xlink:href="#DejaVuSans-110"/>
      <use x="1171.306641" xlink:href="#DejaVuSans-32"/>
      <use x="1203.09375" xlink:href="#DejaVuSans-99"/>
      <use x="1258.074219" xlink:href="#DejaVuSans-111"/>
      <use x="1319.255859" xlink:href="#DejaVuSans-118"/>
      <use x="1378.435547" xlink:href="#DejaVuSans-101"/>
      <use x="1439.958984" xlink:href="#DejaVuSans-114"/>
      <use x="1481.072266" xlink:href="#DejaVuSans-97"/>
      <use x="1542.351562" xlink:href="#DejaVuSans-103"/>
      <use x="1605.828125" xlink:href="#DejaVuSans-101"/>
      <use x="1667.351562" xlink:href="#DejaVuSans-32"/>
      <use x="1699.138672" xlink:href="#DejaVuSans-111"/>
      <use x="1760.320312" xlink:href="#DejaVuSans-110"/>
      <use x="1823.699219" xlink:href="#DejaVuSans-32"/>
      <use x="1855.486328" xlink:href="#DejaVuSans-116"/>
      <use x="1894.695312" xlink:href="#DejaVuSans-104"/>
      <use x="1958.074219" xlink:href="#DejaVuSans-101"/>
      <use x="2019.597656" xlink:href="#DejaVuSans-32"/>
      <use x="2051.384766" xlink:href="#DejaVuSans-108"/>
      <use x="2079.167969" xlink:href="#DejaVuSans-101"/>
      <use x="2140.691406" xlink:href="#DejaVuSans-102"/>
      <use x="2174.146484" xlink:href="#DejaVuSans-116"/>
      <use x="2213.355469" xlink:href="#DejaVuSans-41"/>
     </g>
    </g>
   </g>
   <g id="matplotlib.axis_2">
    <g id="ytick_1">
     <g id="line2d_16">
      <defs>
       <path d="M 0 0 
L -3.5 0 
" id="m0b64a749d0" style="stroke:#000000;stroke-width:0.8;"/>
      </defs>
      <g>
       <use style="stroke:#000000;stroke-width:0.8;" x="46.965625" xlink:href="#m0b64a749d0" y="288.182329"/>
      </g>
     </g>
     <g id="text_17">
      <!-- 520 -->
      <defs>
       <path d="M 10.796875 72.90625 
L 49.515625 72.90625 
L 49.515625 64.59375 
L 19.828125 64.59375 
L 19.828125 46.734375 
Q 21.96875 47.46875 24.109375 47.828125 
Q 26.265625 48.1875 28.421875 48.1875 
Q 40.625 48.1875 47.75 41.5 
Q 54.890625 34.8125 54.890625 23.390625 
Q 54.890625 11.625 47.5625 5.09375 
Q 40.234375 -1.421875 26.90625 -1.421875 
Q 22.3125 -1.421875 17.546875 -0.640625 
Q 12.796875 0.140625 7.71875 1.703125 
L 7.71875 11.625 
Q 12.109375 9.234375 16.796875 8.0625 
Q 21.484375 6.890625 26.703125 6.890625 
Q 35.15625 6.890625 40.078125 11.328125 
Q 45.015625 15.765625 45.015625 23.390625 
Q 45.015625 31 40.078125 35.4375 
Q 35.15625 39.890625 26.703125 39.890625 
Q 22.75 39.890625 18.8125 39.015625 
Q 14.890625 38.140625 10.796875 36.28125 
z
" id="DejaVuSans-53"/>
       <path d="M 19.1875 8.296875 
L 53.609375 8.296875 
L 53.609375 0 
L 7.328125 0 
L 7.328125 8.296875 
Q 12.9375 14.109375 22.625 23.890625 
Q 32.328125 33.6875 34.8125 36.53125 
Q 39.546875 41.84375 41.421875 45.53125 
Q 43.3125 49.21875 43.3125 52.78125 
Q 43.3125 58.59375 39.234375 62.25 
Q 35.15625 65.921875 28.609375 65.921875 
Q 23.96875 65.921875 18.8125 64.3125 
Q 13.671875 62.703125 7.8125 59.421875 
L 7.8125 69.390625 
Q 13.765625 71.78125 18.9375 73 
Q 24.125 74.21875 28.421875 74.21875 
Q 39.75 74.21875 46.484375 68.546875 
Q 53.21875 62.890625 53.21875 53.421875 
Q 53.21875 48.921875 51.53125 44.890625 
Q 49.859375 40.875 45.40625 35.40625 
Q 44.1875 33.984375 37.640625 27.21875 
Q 31.109375 20.453125 19.1875 8.296875 
z
" id="DejaVuSans-50"/>
       <path d="M 31.78125 66.40625 
Q 24.171875 66.40625 20.328125 58.90625 
Q 16.5 51.421875 16.5 36.375 
Q 16.5 21.390625 20.328125 13.890625 
Q 24.171875 6.390625 31.78125 6.390625 
Q 39.453125 6.390625 43.28125 13.890625 
Q 47.125 21.390625 47.125 36.375 
Q 47.125 51.421875 43.28125 58.90625 
Q 39.453125 66.40625 31.78125 66.40625 
z
M 31.78125 74.21875 
Q 44.046875 74.21875 50.515625 64.515625 
Q 56.984375 54.828125 56.984375 36.375 
Q 56.984375 17.96875 50.515625 8.265625 
Q 44.046875 -1.421875 31.78125 -1.421875 
Q 19.53125 -1.421875 13.0625 8.265625 
Q 6.59375 17.96875 6.59375 36.375 
Q 6.59375 54.828125 13.0625 64.515625 
Q 19.53125 74.21875 31.78125 74.21875 
z
" id="DejaVuSans-48"/>
      </defs>
      <g transform="translate(20.878125 291.981548)scale(0.1 -0.1)">
       <use xlink:href="#DejaVuSans-53"/>
       <use x="63.623047" xlink:href="#DejaVuSans-50"/>
       <use x="127.246094" xlink:href="#DejaVuSans-48"/>
      </g>
     </g>
    </g>
    <g id="ytick_2">
     <g id="line2d_17">
      <g>
       <use style="stroke:#000000;stroke-width:0.8;" x="46.965625" xlink:href="#m0b64a749d0" y="253.909244"/>
      </g>
     </g>
     <g id="text_18">
      <!-- 540 -->
      <defs>
       <path d="M 37.796875 64.3125 
L 12.890625 25.390625 
L 37.796875 25.390625 
z
M 35.203125 72.90625 
L 47.609375 72.90625 
L 47.609375 25.390625 
L 58.015625 25.390625 
L 58.015625 17.1875 
L 47.609375 17.1875 
L 47.609375 0 
L 37.796875 0 
L 37.796875 17.1875 
L 4.890625 17.1875 
L 4.890625 26.703125 
z
" id="DejaVuSans-52"/>
      </defs>
      <g transform="translate(20.878125 257.708463)scale(0.1 -0.1)">
       <use xlink:href="#DejaVuSans-53"/>
       <use x="63.623047" xlink:href="#DejaVuSans-52"/>
       <use x="127.246094" xlink:href="#DejaVuSans-48"/>
      </g>
     </g>
    </g>
    <g id="ytick_3">
     <g id="line2d_18">
      <g>
       <use style="stroke:#000000;stroke-width:0.8;" x="46.965625" xlink:href="#m0b64a749d0" y="219.636159"/>
      </g>
     </g>
     <g id="text_19">
      <!-- 560 -->
      <defs>
       <path d="M 33.015625 40.375 
Q 26.375 40.375 22.484375 35.828125 
Q 18.609375 31.296875 18.609375 23.390625 
Q 18.609375 15.53125 22.484375 10.953125 
Q 26.375 6.390625 33.015625 6.390625 
Q 39.65625 6.390625 43.53125 10.953125 
Q 47.40625 15.53125 47.40625 23.390625 
Q 47.40625 31.296875 43.53125 35.828125 
Q 39.65625 40.375 33.015625 40.375 
z
M 52.59375 71.296875 
L 52.59375 62.3125 
Q 48.875 64.0625 45.09375 64.984375 
Q 41.3125 65.921875 37.59375 65.921875 
Q 27.828125 65.921875 22.671875 59.328125 
Q 17.53125 52.734375 16.796875 39.40625 
Q 19.671875 43.65625 24.015625 45.921875 
Q 28.375 48.1875 33.59375 48.1875 
Q 44.578125 48.1875 50.953125 41.515625 
Q 57.328125 34.859375 57.328125 23.390625 
Q 57.328125 12.15625 50.6875 5.359375 
Q 44.046875 -1.421875 33.015625 -1.421875 
Q 20.359375 -1.421875 13.671875 8.265625 
Q 6.984375 17.96875 6.984375 36.375 
Q 6.984375 53.65625 15.1875 63.9375 
Q 23.390625 74.21875 37.203125 74.21875 
Q 40.921875 74.21875 44.703125 73.484375 
Q 48.484375 72.75 52.59375 71.296875 
z
" id="DejaVuSans-54"/>
      </defs>
      <g transform="translate(20.878125 223.435378)scale(0.1 -0.1)">
       <use xlink:href="#DejaVuSans-53"/>
       <use x="63.623047" xlink:href="#DejaVuSans-54"/>
       <use x="127.246094" xlink:href="#DejaVuSans-48"/>
      </g>
     </g>
    </g>
    <g id="ytick_4">
     <g id="line2d_19">
      <g>
       <use style="stroke:#000000;stroke-width:0.8;" x="46.965625" xlink:href="#m0b64a749d0" y="185.363074"/>
      </g>
     </g>
     <g id="text_20">
      <!-- 580 -->
      <defs>
       <path d="M 31.78125 34.625 
Q 24.75 34.625 20.71875 30.859375 
Q 16.703125 27.09375 16.703125 20.515625 
Q 16.703125 13.921875 20.71875 10.15625 
Q 24.75 6.390625 31.78125 6.390625 
Q 38.8125 6.390625 42.859375 10.171875 
Q 46.921875 13.96875 46.921875 20.515625 
Q 46.921875 27.09375 42.890625 30.859375 
Q 38.875 34.625 31.78125 34.625 
z
M 21.921875 38.8125 
Q 15.578125 40.375 12.03125 44.71875 
Q 8.5 49.078125 8.5 55.328125 
Q 8.5 64.0625 14.71875 69.140625 
Q 20.953125 74.21875 31.78125 74.21875 
Q 42.671875 74.21875 48.875 69.140625 
Q 55.078125 64.0625 55.078125 55.328125 
Q 55.078125 49.078125 51.53125 44.71875 
Q 48 40.375 41.703125 38.8125 
Q 48.828125 37.15625 52.796875 32.3125 
Q 56.78125 27.484375 56.78125 20.515625 
Q 56.78125 9.90625 50.3125 4.234375 
Q 43.84375 -1.421875 31.78125 -1.421875 
Q 19.734375 -1.421875 13.25 4.234375 
Q 6.78125 9.90625 6.78125 20.515625 
Q 6.78125 27.484375 10.78125 32.3125 
Q 14.796875 37.15625 21.921875 38.8125 
z
M 18.3125 54.390625 
Q 18.3125 48.734375 21.84375 45.5625 
Q 25.390625 42.390625 31.78125 42.390625 
Q 38.140625 42.390625 41.71875 45.5625 
Q 45.3125 48.734375 45.3125 54.390625 
Q 45.3125 60.0625 41.71875 63.234375 
Q 38.140625 66.40625 31.78125 66.40625 
Q 25.390625 66.40625 21.84375 63.234375 
Q 18.3125 60.0625 18.3125 54.390625 
z
" id="DejaVuSans-56"/>
      </defs>
      <g transform="translate(20.878125 189.162293)scale(0.1 -0.1)">
       <use xlink:href="#DejaVuSans-53"/>
       <use x="63.623047" xlink:href="#DejaVuSans-56"/>
       <use x="127.246094" xlink:href="#DejaVuSans-48"/>
      </g>
     </g>
    </g>
    <g id="ytick_5">
     <g id="line2d_20">
      <g>
       <use style="stroke:#000000;stroke-width:0.8;" x="46.965625" xlink:href="#m0b64a749d0" y="151.089989"/>
      </g>
     </g>
     <g id="text_21">
      <!-- 600 -->
      <g transform="translate(20.878125 154.889208)scale(0.1 -0.1)">
       <use xlink:href="#DejaVuSans-54"/>
       <use x="63.623047" xlink:href="#DejaVuSans-48"/>
       <use x="127.246094" xlink:href="#DejaVuSans-48"/>
      </g>
     </g>
    </g>
    <g id="ytick_6">
     <g id="line2d_21">
      <g>
       <use style="stroke:#000000;stroke-width:0.8;" x="46.965625" xlink:href="#m0b64a749d0" y="116.816904"/>
      </g>
     </g>
     <g id="text_22">
      <!-- 620 -->
      <g transform="translate(20.878125 120.616123)scale(0.1 -0.1)">
       <use xlink:href="#DejaVuSans-54"/>
       <use x="63.623047" xlink:href="#DejaVuSans-50"/>
       <use x="127.246094" xlink:href="#DejaVuSans-48"/>
      </g>
     </g>
    </g>
    <g id="ytick_7">
     <g id="line2d_22">
      <g>
       <use style="stroke:#000000;stroke-width:0.8;" x="46.965625" xlink:href="#m0b64a749d0" y="82.543819"/>
      </g>
     </g>
     <g id="text_23">
      <!-- 640 -->
      <g transform="translate(20.878125 86.343038)scale(0.1 -0.1)">
       <use xlink:href="#DejaVuSans-54"/>
       <use x="63.623047" xlink:href="#DejaVuSans-52"/>
       <use x="127.246094" xlink:href="#DejaVuSans-48"/>
      </g>
     </g>
    </g>
    <g id="ytick_8">
     <g id="line2d_23">
      <g>
       <use style="stroke:#000000;stroke-width:0.8;" x="46.965625" xlink:href="#m0b64a749d0" y="48.270734"/>
      </g>
     </g>
     <g id="text_24">
      <!-- 660 -->
      <g transform="translate(20.878125 52.069953)scale(0.1 -0.1)">
       <use xlink:href="#DejaVuSans-54"/>
       <use x="63.623047" xlink:href="#DejaVuSans-54"/>
       <use x="127.246094" xlink:href="#DejaVuSans-48"/>
      </g>
     </g>
    </g>
    <g id="text_25">
     <!-- Reached edge coverage -->
     <defs>
      <path d="M 44.390625 34.1875 
Q 47.5625 33.109375 50.5625 29.59375 
Q 53.5625 26.078125 56.59375 19.921875 
L 66.609375 0 
L 56 0 
L 46.6875 18.703125 
Q 43.0625 26.03125 39.671875 28.421875 
Q 36.28125 30.8125 30.421875 30.8125 
L 19.671875 30.8125 
L 19.671875 0 
L 9.8125 0 
L 9.8125 72.90625 
L 32.078125 72.90625 
Q 44.578125 72.90625 50.734375 67.671875 
Q 56.890625 62.453125 56.890625 51.90625 
Q 56.890625 45.015625 53.6875 40.46875 
Q 50.484375 35.9375 44.390625 34.1875 
z
M 19.671875 64.796875 
L 19.671875 38.921875 
L 32.078125 38.921875 
Q 39.203125 38.921875 42.84375 42.21875 
Q 46.484375 45.515625 46.484375 51.90625 
Q 46.484375 58.296875 42.84375 61.546875 
Q 39.203125 64.796875 32.078125 64.796875 
z
" id="DejaVuSans-82"/>
     </defs>
     <g transform="translate(14.798438 215.82725)rotate(-90)scale(0.1 -0.1)">
      <use xlink:href="#DejaVuSans-82"/>
      <use x="64.982422" xlink:href="#DejaVuSans-101"/>
      <use x="126.505859" xlink:href="#DejaVuSans-97"/>
      <use x="187.785156" xlink:href="#DejaVuSans-99"/>
      <use x="242.765625" xlink:href="#DejaVuSans-104"/>
      <use x="306.144531" xlink:href="#DejaVuSans-101"/>
      <use x="367.667969" xlink:href="#DejaVuSans-100"/>
      <use x="431.144531" xlink:href="#DejaVuSans-32"/>
      <use x="462.931641" xlink:href="#DejaVuSans-101"/>
      <use x="524.455078" xlink:href="#DejaVuSans-100"/>
      <use x="587.931641" xlink:href="#DejaVuSans-103"/>
      <use x="651.408203" xlink:href="#DejaVuSans-101"/>
      <use x="712.931641" xlink:href="#DejaVuSans-32"/>
      <use x="744.71875" xlink:href="#DejaVuSans-99"/>
      <use x="799.699219" xlink:href="#DejaVuSans-111"/>
      <use x="860.880859" xlink:href="#DejaVuSans-118"/>
      <use x="920.060547" xlink:href="#DejaVuSans-101"/>
      <use x="981.583984" xlink:href="#DejaVuSans-114"/>
      <use x="1022.697266" xlink:href="#DejaVuSans-97"/>
      <use x="1083.976562" xlink:href="#DejaVuSans-103"/>
      <use x="1147.453125" xlink:href="#DejaVuSans-101"/>
     </g>
    </g>
   </g>
   <g id="line2d_24">
    <path clip-path="url(#p82219f09f5)" d="M 58.869625 82.543819 
L 58.869625 82.543819 
" style="fill:none;stroke:#3d3d3d;stroke-linecap:square;stroke-width:1.5;"/>
   </g>
   <g id="line2d_25">
    <path clip-path="url(#p82219f09f5)" d="M 58.869625 82.543819 
L 58.869625 82.543819 
" style="fill:none;stroke:#3d3d3d;stroke-linecap:square;stroke-width:4.5;"/>
   </g>
   <g id="line2d_26">
    <path clip-path="url(#p82219f09f5)" d="M 73.154425 82.543819 
L 92.200825 82.543819 
" style="fill:none;stroke:#3d3d3d;stroke-linecap:square;stroke-width:1.5;"/>
   </g>
   <g id="line2d_27">
    <path clip-path="url(#p82219f09f5)" d="M 96.962425 82.543819 
L 116.008825 82.543819 
" style="fill:none;stroke:#3d3d3d;stroke-linecap:square;stroke-width:1.5;"/>
   </g>
   <g id="line2d_28">
    <path clip-path="url(#p82219f09f5)" d="M 120.770425 82.543819 
L 139.816825 82.543819 
" style="fill:none;stroke:#3d3d3d;stroke-linecap:square;stroke-width:1.5;"/>
   </g>
   <g id="line2d_29">
    <path clip-path="url(#p82219f09f5)" d="M 144.578425 82.543819 
L 163.624825 82.543819 
" style="fill:none;stroke:#3d3d3d;stroke-linecap:square;stroke-width:1.5;"/>
   </g>
   <g id="line2d_30">
    <path clip-path="url(#p82219f09f5)" d="M 168.386425 82.543819 
L 187.432825 82.543819 
" style="fill:none;stroke:#3d3d3d;stroke-linecap:square;stroke-width:1.5;"/>
   </g>
   <g id="line2d_31">
    <path clip-path="url(#p82219f09f5)" d="M 201.717625 82.543819 
L 201.717625 82.543819 
" style="fill:none;stroke:#3d3d3d;stroke-linecap:square;stroke-width:1.5;"/>
   </g>
   <g id="line2d_32">
    <path clip-path="url(#p82219f09f5)" d="M 201.717625 82.543819 
L 201.717625 82.543819 
" style="fill:none;stroke:#3d3d3d;stroke-linecap:square;stroke-width:4.5;"/>
   </g>
   <g id="line2d_33">
    <path clip-path="url(#p82219f09f5)" d="M 216.002425 82.543819 
L 235.048825 82.543819 
" style="fill:none;stroke:#3d3d3d;stroke-linecap:square;stroke-width:1.5;"/>
   </g>
   <g id="line2d_34">
    <path clip-path="url(#p82219f09f5)" d="M 239.810425 82.543819 
L 258.856825 82.543819 
" style="fill:none;stroke:#3d3d3d;stroke-linecap:square;stroke-width:1.5;"/>
   </g>
   <g id="line2d_35">
    <path clip-path="url(#p82219f09f5)" d="M 263.618425 84.257474 
L 282.664825 84.257474 
" style="fill:none;stroke:#3d3d3d;stroke-linecap:square;stroke-width:1.5;"/>
   </g>
   <g id="line2d_36">
    <path clip-path="url(#p82219f09f5)" d="M 287.426425 84.257474 
L 306.472825 84.257474 
" style="fill:none;stroke:#3d3d3d;stroke-linecap:square;stroke-width:1.5;"/>
   </g>
   <g id="line2d_37">
    <path clip-path="url(#p82219f09f5)" d="M 320.757625 97.966708 
L 320.757625 87.684782 
" style="fill:none;stroke:#3d3d3d;stroke-linecap:square;stroke-width:1.5;"/>
   </g>
   <g id="line2d_38">
    <path clip-path="url(#p82219f09f5)" d="M 320.757625 97.966708 
L 320.757625 87.684782 
" style="fill:none;stroke:#3d3d3d;stroke-linecap:square;stroke-width:4.5;"/>
   </g>
   <g id="line2d_39">
    <path clip-path="url(#p82219f09f5)" d="M 344.565625 116.816904 
L 344.565625 82.543819 
" style="fill:none;stroke:#3d3d3d;stroke-linecap:square;stroke-width:1.5;"/>
   </g>
   <g id="line2d_40">
    <path clip-path="url(#p82219f09f5)" d="M 344.565625 104.821325 
L 344.565625 82.543819 
" style="fill:none;stroke:#3d3d3d;stroke-linecap:square;stroke-width:4.5;"/>
   </g>
   <g id="line2d_41">
    <path clip-path="url(#p82219f09f5)" d="M 368.373625 120.244213 
L 368.373625 82.543819 
" style="fill:none;stroke:#3d3d3d;stroke-linecap:square;stroke-width:1.5;"/>
   </g>
   <g id="line2d_42">
    <path clip-path="url(#p82219f09f5)" d="M 368.373625 113.389596 
L 368.373625 92.825745 
" style="fill:none;stroke:#3d3d3d;stroke-linecap:square;stroke-width:4.5;"/>
   </g>
   <g id="line2d_43">
    <path clip-path="url(#p82219f09f5)" d="M 392.181625 171.65384 
L 392.181625 144.235372 
" style="fill:none;stroke:#3d3d3d;stroke-linecap:square;stroke-width:1.5;"/>
   </g>
   <g id="line2d_44">
    <path clip-path="url(#p82219f09f5)" d="M 392.181625 171.65384 
L 392.181625 144.235372 
" style="fill:none;stroke:#3d3d3d;stroke-linecap:square;stroke-width:4.5;"/>
   </g>
   <g id="patch_3">
    <path d="M 46.965625 288.182329 
L 46.965625 48.270734 
" style="fill:none;stroke:#000000;stroke-linecap:square;stroke-linejoin:miter;stroke-width:0.8;"/>
   </g>
   <g id="patch_4">
    <path d="M 58.869625 288.430125 
L 392.181625 288.430125 
" style="fill:none;stroke:#000000;stroke-linecap:square;stroke-linejoin:miter;stroke-width:0.8;"/>
   </g>
   <g id="PathCollection_1">
    <defs>
     <path d="M 0 1.5 
C 0.397805 1.5 0.77937 1.341951 1.06066 1.06066 
C 1.341951 0.77937 1.5 0.397805 1.5 0 
C 1.5 -0.397805 1.341951 -0.77937 1.06066 -1.06066 
C 0.77937 -1.341951 0.397805 -1.5 0 -1.5 
C -0.397805 -1.5 -0.77937 -1.341951 -1.06066 -1.06066 
C -1.341951 -0.77937 -1.5 -0.397805 -1.5 0 
C -1.5 0.397805 -1.341951 0.77937 -1.06066 1.06066 
C -0.77937 1.341951 -0.397805 1.5 0 1.5 
z
" id="mbcdf9d8f24" style="stroke:#3d3d3d;"/>
    </defs>
    <g clip-path="url(#p82219f09f5)">
     <use style="fill:#ffffff;stroke:#3d3d3d;" x="58.869625" xlink:href="#mbcdf9d8f24" y="82.543819"/>
    </g>
   </g>
   <g id="PathCollection_2">
    <g clip-path="url(#p82219f09f5)">
     <use style="fill:#ffffff;stroke:#3d3d3d;" x="201.717625" xlink:href="#mbcdf9d8f24" y="82.543819"/>
    </g>
   </g>
   <g id="PathCollection_3">
    <g clip-path="url(#p82219f09f5)">
     <use style="fill:#ffffff;stroke:#3d3d3d;" x="320.757625" xlink:href="#mbcdf9d8f24" y="87.684782"/>
    </g>
   </g>
   <g id="PathCollection_4">
    <g clip-path="url(#p82219f09f5)">
     <use style="fill:#ffffff;stroke:#3d3d3d;" x="344.565625" xlink:href="#mbcdf9d8f24" y="94.539399"/>
    </g>
   </g>
   <g id="PathCollection_5">
    <g clip-path="url(#p82219f09f5)">
     <use style="fill:#ffffff;stroke:#3d3d3d;" x="368.373625" xlink:href="#mbcdf9d8f24" y="100.537189"/>
    </g>
   </g>
   <g id="PathCollection_6">
    <g clip-path="url(#p82219f09f5)">
     <use style="fill:#ffffff;stroke:#3d3d3d;" x="392.181625" xlink:href="#mbcdf9d8f24" y="171.65384"/>
    </g>
   </g>
   <g id="text_26">
    <!-- systemd_fuzz-link-parser (23h, 13 trials/fuzzer) -->
    <defs>
     <path d="M 32.171875 -5.078125 
Q 28.375 -14.84375 24.75 -17.8125 
Q 21.140625 -20.796875 15.09375 -20.796875 
L 7.90625 -20.796875 
L 7.90625 -13.28125 
L 13.1875 -13.28125 
Q 16.890625 -13.28125 18.9375 -11.515625 
Q 21 -9.765625 23.484375 -3.21875 
L 25.09375 0.875 
L 2.984375 54.6875 
L 12.5 54.6875 
L 29.59375 11.921875 
L 46.6875 54.6875 
L 56.203125 54.6875 
z
" id="DejaVuSans-121"/>
     <path d="M 4.890625 31.390625 
L 31.203125 31.390625 
L 31.203125 23.390625 
L 4.890625 23.390625 
z
" id="DejaVuSans-45"/>
     <path d="M 9.078125 75.984375 
L 18.109375 75.984375 
L 18.109375 31.109375 
L 44.921875 54.6875 
L 56.390625 54.6875 
L 27.390625 29.109375 
L 57.625 0 
L 45.90625 0 
L 18.109375 26.703125 
L 18.109375 0 
L 9.078125 0 
z
" id="DejaVuSans-107"/>
     <path d="M 40.578125 39.3125 
Q 47.65625 37.796875 51.625 33 
Q 55.609375 28.21875 55.609375 21.1875 
Q 55.609375 10.40625 48.1875 4.484375 
Q 40.765625 -1.421875 27.09375 -1.421875 
Q 22.515625 -1.421875 17.65625 -0.515625 
Q 12.796875 0.390625 7.625 2.203125 
L 7.625 11.71875 
Q 11.71875 9.328125 16.59375 8.109375 
Q 21.484375 6.890625 26.8125 6.890625 
Q 36.078125 6.890625 40.9375 10.546875 
Q 45.796875 14.203125 45.796875 21.1875 
Q 45.796875 27.640625 41.28125 31.265625 
Q 36.765625 34.90625 28.71875 34.90625 
L 20.21875 34.90625 
L 20.21875 43.015625 
L 29.109375 43.015625 
Q 36.375 43.015625 40.234375 45.921875 
Q 44.09375 48.828125 44.09375 54.296875 
Q 44.09375 59.90625 40.109375 62.90625 
Q 36.140625 65.921875 28.71875 65.921875 
Q 24.65625 65.921875 20.015625 65.03125 
Q 15.375 64.15625 9.8125 62.3125 
L 9.8125 71.09375 
Q 15.4375 72.65625 20.34375 73.4375 
Q 25.25 74.21875 29.59375 74.21875 
Q 40.828125 74.21875 47.359375 69.109375 
Q 53.90625 64.015625 53.90625 55.328125 
Q 53.90625 49.265625 50.4375 45.09375 
Q 46.96875 40.921875 40.578125 39.3125 
z
" id="DejaVuSans-51"/>
     <path d="M 11.71875 12.40625 
L 22.015625 12.40625 
L 22.015625 4 
L 14.015625 -11.625 
L 7.71875 -11.625 
L 11.71875 4 
z
" id="DejaVuSans-44"/>
     <path d="M 12.40625 8.296875 
L 28.515625 8.296875 
L 28.515625 63.921875 
L 10.984375 60.40625 
L 10.984375 69.390625 
L 28.421875 72.90625 
L 38.28125 72.90625 
L 38.28125 8.296875 
L 54.390625 8.296875 
L 54.390625 0 
L 12.40625 0 
z
" id="DejaVuSans-49"/>
     <path d="M 25.390625 72.90625 
L 33.6875 72.90625 
L 8.296875 -9.28125 
L 0 -9.28125 
z
" id="DejaVuSans-47"/>
    </defs>
    <g transform="translate(83.906875 16.318125)scale(0.12 -0.12)">
     <use xlink:href="#DejaVuSans-115"/>
     <use x="52.099609" xlink:href="#DejaVuSans-121"/>
     <use x="111.279297" xlink:href="#DejaVuSans-115"/>
     <use x="163.378906" xlink:href="#DejaVuSans-116"/>
     <use x="202.587891" xlink:href="#DejaVuSans-101"/>
     <use x="264.111328" xlink:href="#DejaVuSans-109"/>
     <use x="361.523438" xlink:href="#DejaVuSans-100"/>
     <use x="425" xlink:href="#DejaVuSans-95"/>
     <use x="475" xlink:href="#DejaVuSans-102"/>
     <use x="510.205078" xlink:href="#DejaVuSans-117"/>
     <use x="573.583984" xlink:href="#DejaVuSans-122"/>
     <use x="626.074219" xlink:href="#DejaVuSans-122"/>
     <use x="678.564453" xlink:href="#DejaVuSans-45"/>
     <use x="714.648438" xlink:href="#DejaVuSans-108"/>
     <use x="742.431641" xlink:href="#DejaVuSans-105"/>
     <use x="770.214844" xlink:href="#DejaVuSans-110"/>
     <use x="833.59375" xlink:href="#DejaVuSans-107"/>
     <use x="891.503906" xlink:href="#DejaVuSans-45"/>
     <use x="927.587891" xlink:href="#DejaVuSans-112"/>
     <use x="991.064453" xlink:href="#DejaVuSans-97"/>
     <use x="1052.34375" xlink:href="#DejaVuSans-114"/>
     <use x="1093.457031" xlink:href="#DejaVuSans-115"/>
     <use x="1145.556641" xlink:href="#DejaVuSans-101"/>
     <use x="1207.080078" xlink:href="#DejaVuSans-114"/>
     <use x="1248.193359" xlink:href="#DejaVuSans-32"/>
     <use x="1279.980469" xlink:href="#DejaVuSans-40"/>
     <use x="1318.994141" xlink:href="#DejaVuSans-50"/>
     <use x="1382.617188" xlink:href="#DejaVuSans-51"/>
     <use x="1446.240234" xlink:href="#DejaVuSans-104"/>
     <use x="1509.619141" xlink:href="#DejaVuSans-44"/>
     <use x="1541.40625" xlink:href="#DejaVuSans-32"/>
     <use x="1573.193359" xlink:href="#DejaVuSans-49"/>
     <use x="1636.816406" xlink:href="#DejaVuSans-51"/>
     <use x="1700.439453" xlink:href="#DejaVuSans-32"/>
     <use x="1732.226562" xlink:href="#DejaVuSans-116"/>
     <use x="1771.435547" xlink:href="#DejaVuSans-114"/>
     <use x="1812.548828" xlink:href="#DejaVuSans-105"/>
     <use x="1840.332031" xlink:href="#DejaVuSans-97"/>
     <use x="1901.611328" xlink:href="#DejaVuSans-108"/>
     <use x="1929.394531" xlink:href="#DejaVuSans-115"/>
     <use x="1981.494141" xlink:href="#DejaVuSans-47"/>
     <use x="2015.185547" xlink:href="#DejaVuSans-102"/>
     <use x="2050.390625" xlink:href="#DejaVuSans-117"/>
     <use x="2113.769531" xlink:href="#DejaVuSans-122"/>
     <use x="2166.259766" xlink:href="#DejaVuSans-122"/>
     <use x="2218.75" xlink:href="#DejaVuSans-101"/>
     <use x="2280.273438" xlink:href="#DejaVuSans-114"/>
     <use x="2321.386719" xlink:href="#DejaVuSans-41"/>
    </g>
   </g>
  </g>
 </g>
 <defs>
  <clipPath id="p82219f09f5">
   <rect height="266.112" width="357.12" x="46.965625" y="22.318125"/>
  </clipPath>
 </defs>
</svg>
